<svg id="ic_copy_gray_40" xmlns="http://www.w3.org/2000/svg" width="40" height="40" viewBox="0 0 40 40">
  <defs>
    <style>
      .cls-1 {
        fill: none;
      }

      .cls-2 {
        fill: #b8b6c4;
      }
    </style>
  </defs>
  <rect id="영역" class="cls-1" width="40" height="40" transform="translate(0 0)"/>
  <path id="패스_485" data-name="패스 485" class="cls-2" d="M12.152-5.166H7.14v-1.3h3.528v-4.788H9.24v1.288H3.612v-1.288H2.184v4.788h3.5v1.3h-5V-3.99H12.152Zm-8.54-2.45V-8.862H9.24v1.246ZM1.974-2.926v1.162H9.3V1.092h1.442V-2.926Zm23.38-2.436v-1.19H23.38v-5.012H21.938V1.078H23.38v-6.44Zm-7.336-3.08v-2.072H16.576v2.072a6.371,6.371,0,0,1-3.206,5.7l.882,1.162A6.483,6.483,0,0,0,17.3-5.544,6.214,6.214,0,0,0,20.216-1.82L21.1-2.968A6.147,6.147,0,0,1,18.018-8.442Z" transform="translate(7 36)"/>
  <path id="패스_399" data-name="패스 399" class="cls-2" d="M124.46,938.693h-10a2.858,2.858,0,0,0-2.857,2.858v10a2.857,2.857,0,0,0,2.857,2.857h10a2.857,2.857,0,0,0,2.857-2.857v-10A2.858,2.858,0,0,0,124.46,938.693Zm.714,11.429v1.429a.715.715,0,0,1-.714.714h-10a.716.716,0,0,1-.715-.714v-10a.716.716,0,0,1,.715-.715h10a.715.715,0,0,1,.714.715v8.571Z" transform="translate(-101.602 -934.408)"/>
  <path id="패스_400" data-name="패스 400" class="cls-2" d="M128.745,934.408h-10a2.847,2.847,0,0,0-2.829,2.583.29.29,0,0,0,.282.274h1.562a.4.4,0,0,0,.326-.274h0a.714.714,0,0,1,.659-.441h10a.715.715,0,0,1,.715.714v10a.707.707,0,0,1-.378.618l.009.006a.642.642,0,0,0-.346.461v1.429a.382.382,0,0,0,.309.312,2.848,2.848,0,0,0,2.549-2.826v-10A2.858,2.858,0,0,0,128.745,934.408Z" transform="translate(-101.602 -934.408)"/>
</svg>
