<svg xmlns="http://www.w3.org/2000/svg" width="32" height="32" viewBox="0 0 32 32">
    <path style="fill:none" d="M0 0h32v32H0z"/>
    <path data-name="패스 129" d="M-134.333 821.872a10 10 0 0 0-10 10 10 10 0 0 0 10 10 10 10 0 0 0 10-10 10 10 0 0 0-10-10zm-.191 5.072a3.958 3.958 0 0 1 2.891.9 3.41 3.41 0 0 1 .742 1.054 2.232 2.232 0 0 1-.469 2.578 23.622 23.622 0 0 1-1.836 1.719 2.22 2.22 0 0 0-.312 1.445h-1.759c-.039-.156-.078-.116-.078-.234a3.238 3.238 0 0 1 1.562-3.008c.586-.429 1.172-.9 1.172-1.562 0-1.407-2.148-1.758-3.047-.821a2.489 2.489 0 0 0-.547 1.211c-.078-.038-1.6-.234-1.8-.234v-.039a2.715 2.715 0 0 1 1.093-2.149 3.663 3.663 0 0 1 2.384-.859zm-.743 8.575h1.759v1.759h-1.759z" transform="translate(150.333 -815.872)" style="fill:#b8b6c4"/>
</svg>
