<svg id="ic_share_gray_40" xmlns="http://www.w3.org/2000/svg" width="40" height="40" viewBox="0 0 40 40">
  <defs>
    <style>
      .cls-1 {
        fill: none;
      }

      .cls-2 {
        fill: #b8b6c4;
      }
    </style>
  </defs>
  <rect id="영역" class="cls-1" width="40" height="40" transform="translate(0 0)"/>
  <path id="패스_486" data-name="패스 486" class="cls-2" d="M8.96-6.692l1.414.154a11.972,11.972,0,0,0,.35-3.36v-1.064H2.044V-9.8H9.3A11.275,11.275,0,0,1,8.96-6.692Zm3.164.91H6.664V-8.106H5.208v2.324H.728V-4.62h11.4ZM6.384-3.64c-2.73,0-4.452.9-4.452,2.352S3.654,1.078,6.384,1.078c2.688,0,4.424-.9,4.424-2.366S9.072-3.64,6.384-3.64Zm0,3.612C4.466-.028,3.36-.49,3.36-1.288S4.466-2.534,6.384-2.534c1.862,0,2.982.462,2.982,1.246S8.246-.028,6.384-.028ZM19.292-5.516c2.646,0,4.48-1.078,4.48-2.8,0-1.694-1.834-2.786-4.48-2.786-2.674,0-4.494,1.092-4.494,2.786C14.8-6.594,16.618-5.516,19.292-5.516Zm0-4.424c1.792,0,3,.616,3,1.624s-1.19,1.638-3,1.638c-1.862,0-3.01-.616-3.01-1.638S17.472-9.94,19.292-9.94ZM25.06-3.248l-.014-1.19H13.58v1.19h2.8V1.078h1.47V-3.248h2.884V1.078H22.2V-3.248Z" transform="translate(7 36)"/>
  <path id="패스_401" data-name="패스 401" class="cls-2" d="M62.578,970.893,53.943,962.3a1.337,1.337,0,0,0-2.282.948v3.418c-9.238.668-9.964,10.174-9.964,13.106V981.5a.405.405,0,0,0,.265.38.422.422,0,0,0,.139.024.4.4,0,0,0,.308-.143l1.12-1.323a13.186,13.186,0,0,1,8.132-4.62v3.29a1.337,1.337,0,0,0,2.282.947l8.635-8.593a.4.4,0,0,0,0-.573Zm-8.854,3.154a.4.4,0,0,0-.4-.4h-.635a14.827,14.827,0,0,0-8.724,3.45c.569-4.047,2.609-8.4,8.739-8.4h.635a.4.4,0,0,0,.4-.4v-3.274l6.181,6.151-6.181,6.152v-2.64Z" transform="translate(-31.697 -961.908)"/>
</svg>
