<svg id="ic_tracking_48" xmlns="http://www.w3.org/2000/svg" width="48" height="48" viewBox="0 0 48 48">
  <defs>
    <style>
      .cls-1 {
        fill: none;
      }

      .cls-2 {
        fill: #e6458e;
      }
    </style>
  </defs>
  <rect id="영역" class="cls-1" width="48" height="48"/>
  <path id="패스_358" data-name="패스 358" class="cls-2" d="M-463,962.259v11.009a.982.982,0,0,1-.5.888.76.76,0,0,1-.362.093.8.8,0,0,1-.558-.237l-4.446-3-4.445,3a.809.809,0,0,1-.558.237.757.757,0,0,1-.362-.093.979.979,0,0,1-.5-.888V962.259a1.272,1.272,0,0,1,1.184-1.344h9.364A1.272,1.272,0,0,1-463,962.259Z" transform="translate(492.87 -943.582)"/>
  <path id="패스_359" data-name="패스 359" class="cls-2" d="M-453.673,966.724h-.364a14.233,14.233,0,0,0-12.848-12.747h.082V953.6a1.437,1.437,0,0,0-1.437-1.437h0a1.438,1.438,0,0,0-1.438,1.437v.375h.017a14.237,14.237,0,0,0-12.767,12.749v0h-.371a1.438,1.438,0,0,0-1.438,1.437A1.438,1.438,0,0,0-482.8,969.6h.371v-.068a14.235,14.235,0,0,0,12.788,12.834h-.038v.365a1.438,1.438,0,0,0,1.438,1.437h0a1.437,1.437,0,0,0,1.437-1.437v-.365h-.112a14.435,14.435,0,0,0,12.869-12.771v.005h.372a1.437,1.437,0,0,0,1.437-1.437A1.437,1.437,0,0,0-453.673,966.724Zm-13.126,13.3v-.373a1.437,1.437,0,0,0-1.437-1.437h0a1.438,1.438,0,0,0-1.438,1.437v.372a12.01,12.01,0,0,1-10.508-10.418h.372a1.436,1.436,0,0,0,1.436-1.437h0a1.437,1.437,0,0,0-1.436-1.438h-.373a12.059,12.059,0,0,1,10.509-10.51v.372a1.438,1.438,0,0,0,1.438,1.437h0a1.437,1.437,0,0,0,1.437-1.437v-.373a12.012,12.012,0,0,1,10.431,10.511h-.374a1.437,1.437,0,0,0-1.437,1.438h0a1.437,1.437,0,0,0,1.437,1.437h.373A11.961,11.961,0,0,1-466.8,980.026Z" transform="translate(492.236 -944.168)"/>
</svg>
