<svg id="img_attention_gray_64" xmlns="http://www.w3.org/2000/svg" width="64" height="64" viewBox="0 0 64 64">
  <defs>
    <style>
      .cls-1 {
        fill: none;
      }

      .cls-2 {
        fill: #b8b6c4;
      }
    </style>
  </defs>
  <rect id="영역" class="cls-1" width="64" height="64"/>
  <path id="패스_419" data-name="패스 419" class="cls-2" d="M-6.961,1131.493a24.022,24.022,0,0,1-24-24,24.022,24.022,0,0,1,24-24,24.022,24.022,0,0,1,24,24A24.022,24.022,0,0,1-6.961,1131.493Zm2.678-35.975a2.7,2.7,0,0,0-2.678-2.678,2.7,2.7,0,0,0-2.678,2.678v13.389a2.7,2.7,0,0,0,2.678,2.678,2.7,2.7,0,0,0,2.678-2.678Zm-2.678,19.5a3.494,3.494,0,0,0-3.487,3.486,3.494,3.494,0,0,0,3.487,3.487,3.494,3.494,0,0,0,3.486-3.487A3.493,3.493,0,0,0-6.961,1115.021Z" transform="translate(38.961 -1075.493)"/>
</svg>
