<svg id="thum_line_72" xmlns="http://www.w3.org/2000/svg" width="72" height="72" viewBox="0 0 72 72">
  <defs>
    <style>
      .cls-1 {
        fill: none;
      }

      .cls-2 {
        fill: #68b82b;
      }

      .cls-3 {
        fill: #fff;
      }
    </style>
  </defs>
  <rect id="영역" class="cls-1" width="72" height="72" transform="translate(0)"/>
  <path id="패스_550" data-name="패스 550" class="cls-2" d="M36,0A36,36,0,1,1,0,36,36,36,0,0,1,36,0Z"/>
  <path id="패스_545" data-name="패스 545" class="cls-3" d="M218.979,1363.166c0-10.978-11.006-19.909-24.534-19.909s-24.533,8.931-24.533,19.909c0,9.842,8.728,18.084,20.517,19.642.8.173,1.887.527,2.162,1.21a5.042,5.042,0,0,1,.079,2.219s-.288,1.731-.35,2.1c-.107.62-.493,2.426,2.125,1.322s14.129-8.319,19.276-14.244h0c3.555-3.9,5.259-7.855,5.259-12.249" transform="translate(-158.562 -1329.027)"/>
  <path id="패스_546" data-name="패스 546" class="cls-2" d="M189.461,1357.861H187.74a.478.478,0,0,0-.478.477v10.69a.478.478,0,0,0,.478.477h1.721a.478.478,0,0,0,.477-.477v-10.69a.478.478,0,0,0-.477-.477" transform="translate(-158.562 -1329.027)"/>
  <path id="패스_547" data-name="패스 547" class="cls-2" d="M201.3,1357.861h-1.72a.477.477,0,0,0-.478.477v6.351l-4.9-6.616a.572.572,0,0,0-.038-.048l0,0a.377.377,0,0,0-.028-.029l-.009-.009-.026-.021-.012-.01-.025-.017-.014-.008-.026-.014-.015-.008-.027-.011-.016-.006-.028-.009-.017,0-.027-.007-.02,0-.026,0-.024,0h-1.738a.478.478,0,0,0-.478.477v10.69a.478.478,0,0,0,.478.477h1.721a.478.478,0,0,0,.478-.477v-6.349l4.9,6.625a.5.5,0,0,0,.121.117l.005,0,.03.018.013.007.023.012.023.009.015.006.032.01.007,0a.493.493,0,0,0,.123.016h1.72a.478.478,0,0,0,.478-.477v-10.69a.478.478,0,0,0-.478-.477" transform="translate(-158.562 -1329.027)"/>
  <path id="패스_548" data-name="패스 548" class="cls-2" d="M185.312,1366.828h-4.676v-8.489a.477.477,0,0,0-.477-.478h-1.721a.478.478,0,0,0-.478.478v10.688h0a.474.474,0,0,0,.134.33l.006.007.007.007a.477.477,0,0,0,.33.133h6.875a.477.477,0,0,0,.477-.478v-1.721a.477.477,0,0,0-.477-.478" transform="translate(-158.562 -1329.027)"/>
  <path id="패스_549" data-name="패스 549" class="cls-2" d="M210.808,1360.538a.477.477,0,0,0,.477-.478v-1.721a.477.477,0,0,0-.477-.478h-6.875a.475.475,0,0,0-.331.135l-.006.005-.007.009a.473.473,0,0,0-.133.329h0v10.688h0a.474.474,0,0,0,.134.33l.006.007.007.007a.477.477,0,0,0,.33.133h6.875a.477.477,0,0,0,.477-.478v-1.721a.478.478,0,0,0-.477-.478h-4.675v-1.807h4.675a.477.477,0,0,0,.477-.478v-1.72a.477.477,0,0,0-.477-.478h-4.675v-1.807Z" transform="translate(-158.562 -1329.027)"/>
</svg>
