<svg id="ic_plus_purple_24" xmlns="http://www.w3.org/2000/svg" width="24" height="24" viewBox="0 0 24 24">
  <defs>
    <style>
      .cls-1 {
        fill: none;
      }

      .cls-2 {
        fill: #3f37c9;
      }
    </style>
  </defs>
  <rect id="영역" class="cls-1" width="24" height="24"/>
  <path id="패스_448" data-name="패스 448" class="cls-2" d="M6374-8161v-4h-4a1,1,0,0,1-1-1,1,1,0,0,1,1-1h4v-4a1,1,0,0,1,1-1,1,1,0,0,1,1,1v4h4a1,1,0,0,1,1,1,1,1,0,0,1-1,1h-4v4a1,1,0,0,1-1,1A1,1,0,0,1,6374-8161Z" transform="translate(-6363 8178)"/>
</svg>
