<svg xmlns="http://www.w3.org/2000/svg" width="32" height="32" viewBox="0 0 32 32">
    <path style="fill:none" d="M0 0h32v32H0z"/>
    <path data-name="패스 383" d="M-36.887 1031.845a4.7 4.7 0 0 0-1.429.242l1.588 1.594a2.984 2.984 0 0 1 2.819 2.831l1.587 1.593a4.749 4.749 0 0 0 .244-1.441 4.82 4.82 0 0 0-4.809-4.819z" transform="translate(52.887 -1021.168)" style="fill:#b8b6c4"/>
    <path data-name="패스 384" d="m-39.863 1036.827-1.591-1.6a4.764 4.764 0 0 0-.242 1.434 4.82 4.82 0 0 0 4.809 4.819 4.752 4.752 0 0 0 1.422-.239l-1.591-1.6a2.983 2.983 0 0 1-2.807-2.814z" transform="translate(52.887 -1021.168)" style="fill:#b8b6c4"/>
    <path data-name="패스 385" d="M-25.919 1036.909a.905.905 0 0 0 0-.479c-.022-.081-2.315-8.122-10.968-8.122a11.613 11.613 0 0 0-4.381.814 10.332 10.332 0 0 0-1.249.606l-2.283-2.292a.906.906 0 0 0-.643-.267.9.9 0 0 0-.64.266.909.909 0 0 0 0 1.286l2.042 2.05a11.228 11.228 0 0 0-.963.893 12.677 12.677 0 0 0-2.85 4.766.926.926 0 0 0 0 .479c.023.081 2.315 8.121 10.968 8.121a11.612 11.612 0 0 0 4.382-.814 10.314 10.314 0 0 0 1.249-.606l2.282 2.291a.907.907 0 0 0 .643.268.9.9 0 0 0 .641-.267.911.911 0 0 0 0-1.286l-2.042-2.049a11.237 11.237 0 0 0 .963-.894 12.643 12.643 0 0 0 2.849-4.764zm-10.968 6.3a9.462 9.462 0 0 1-9.141-6.541 10.5 10.5 0 0 1 2.281-3.741 9.45 9.45 0 0 1 .98-.877l8.043 8.077.527.529 1.451 1.457.159.159a8.931 8.931 0 0 1-1.34.515 10.259 10.259 0 0 1-2.96.423zm5.881-1.924-1.694-1.7-2.386-2.4-3.166-3.18-1.239-1.243-1.695-1.7a8.944 8.944 0 0 1 1.34-.515 10.257 10.257 0 0 1 2.959-.422 9.467 9.467 0 0 1 9.142 6.541 10.485 10.485 0 0 1-2.282 3.741 9.22 9.22 0 0 1-.979.879z" transform="translate(52.887 -1021.168)" style="fill:#b8b6c4"/>
</svg>
