<svg xmlns="http://www.w3.org/2000/svg" width="24" height="24" viewBox="0 0 24 24">
    <defs>
        <radialGradient id="51hon4cved" cx=".5" cy=".5" r=".5" gradientUnits="objectBoundingBox">
            <stop offset="0" stop-color="#0acefc"/>
            <stop offset="1" stop-color="#0acffe" stop-opacity="0"/>
        </radialGradient>
        <radialGradient id="svk4hyz3ae" cx=".5" cy=".5" r=".5" gradientUnits="objectBoundingBox">
            <stop offset="0" stop-color="#5885f1"/>
            <stop offset="1" stop-color="#5885f1" stop-opacity="0"/>
        </radialGradient>
        <clipPath id="g2iucdfyga">
            <path d="M8 0h8a8 8 0 0 1 8 8v8a8 8 0 0 1-8 8H8a8 8 0 0 1-8-8V8a8 8 0 0 1 8-8z" transform="translate(-.018 -.018)" style="fill:#e6e6e6"/>
        </clipPath>
        <clipPath id="c1xsw553hc">
            <path data-name="패스 590" d="M25.77.225A.785.785 0 0 0 25.111 0Q13.446.011 1.777 0A11.434 11.434 0 0 0 .541.029.723.723 0 0 0 0 .759v24.48a.732.732 0 0 0 .759.748q12.175.008 24.349 0a.77.77 0 0 0 .877-.751Q26 13.321 25.993 1.4c-.021-.392.091-.864-.223-1.175zm-5.69 19.253h-4.895c-.874-1.433-1.9-2.767-2.812-4.178-.543-.736-1.029-1.512-1.561-2.256v6.434h-4.9V6.519h4.871c1.535 2.107 2.952 4.3 4.452 6.437V6.519h4.84z" style="fill:none"/>
        </clipPath>
        <linearGradient id="y1qscg21lb" x1=".5" x2=".5" y2="1" gradientUnits="objectBoundingBox">
            <stop offset="0" stop-color="#1ae95f"/>
            <stop offset=".45" stop-color="#20e45f"/>
            <stop offset="1" stop-color="#5885f1"/>
        </linearGradient>
    </defs>
    <g data-name="마스크 그룹 77" transform="translate(.018 .018)" style="clip-path:url(#g2iucdfyga)">
        <g data-name="그룹 1303">
            <path data-name="패스 588" d="M25.77.225A.785.785 0 0 0 25.111 0Q13.446.011 1.777 0A11.434 11.434 0 0 0 .541.029.723.723 0 0 0 0 .759v24.48a.732.732 0 0 0 .759.748q12.175.008 24.349 0a.77.77 0 0 0 .877-.751Q26 13.321 25.993 1.4c-.021-.392.091-.864-.223-1.175zm-5.69 19.253h-4.895c-.874-1.433-1.9-2.767-2.812-4.178-.543-.736-1.029-1.512-1.561-2.256v6.434h-4.9V6.519h4.871c1.535 2.107 2.952 4.3 4.452 6.437V6.519h4.84z" transform="translate(-1.016 -1.016)" style="fill:url(#y1qscg21lb)"/>
            <path data-name="패스 589" d="M17.61 27h.03v-6.432c.532.743 1.018 1.52 1.561 2.256.909 1.411 1.938 2.745 2.812 4.178h4.895V14.043h-4.84v6.437c-1.5-2.133-2.917-4.33-4.452-6.437h-4.871V27h4.865z" transform="translate(-7.845 -8.54)" style="fill:#fff"/>
            <g data-name="그룹 1300">
                <g data-name="그룹 1299" style="clip-path:url(#c1xsw553hc)" transform="translate(-1.016 -1.016)">
                    <path data-name="패스 592" d="M15.69 0A15.69 15.69 0 1 1 0 15.69 15.69 15.69 0 0 1 15.69 0z" transform="translate(-15.052 9.67)" style="fill:url(#51hon4cved)"/>
                    <path data-name="패스 591" d="M16.471 0A16.471 16.471 0 1 1 0 16.471 16.471 16.471 0 0 1 16.471 0z" transform="translate(7.875 4.728)" style="opacity:.5;mix-blend-mode:multiply;isolation:isolate;fill:url(#svk4hyz3ae)"/>
                </g>
            </g>
        </g>
    </g>
</svg>
