<svg xmlns="http://www.w3.org/2000/svg" width="24" height="24" viewBox="0 0 24 24">
    <path style="fill:none" d="M0 0h24v24H0z"/>
    <path data-name="패스 242" d="M-133.86 1323.21a.517.517 0 0 0 .369-.156.539.539 0 0 0 .153-.377v-4.267a.54.54 0 0 0-.153-.377.517.517 0 0 0-.369-.156h-11.349v1a1 1 0 0 1-1 1 1 1 0 0 1-1-1v-1h-5.608a.517.517 0 0 0-.369.156.543.543 0 0 0-.152.377v4.267a.543.543 0 0 0 .152.377.517.517 0 0 0 .369.156 2.6 2.6 0 0 1 2.259 1.333 2.714 2.714 0 0 1 0 2.667 2.6 2.6 0 0 1-2.259 1.333.521.521 0 0 0-.369.156.546.546 0 0 0-.152.378v4.266a.541.541 0 0 0 .152.377.518.518 0 0 0 .369.157h5.611v-1a1 1 0 0 1 1-1 1 1 0 0 1 1 1v1h11.346a.518.518 0 0 0 .369-.157.538.538 0 0 0 .153-.377v-4.266a.542.542 0 0 0-.153-.378.521.521 0 0 0-.369-.156 2.6 2.6 0 0 1-2.259-1.333 2.719 2.719 0 0 1 0-2.667 2.6 2.6 0 0 1 2.259-1.333zm-12.346 6.667a1 1 0 0 1-1-1v-1a1 1 0 0 1 1-1 1 1 0 0 1 1 1v1a1 1 0 0 1-1 1zm0-5a1 1 0 0 1-1-1v-1a1 1 0 0 1 1-1 1 1 0 0 1 1 1v1a1 1 0 0 1-1 1z" transform="translate(155.338 -1313.877)" style="fill:#3f37c9"/>
</svg>
