<svg id="ic_close_black_40" xmlns="http://www.w3.org/2000/svg" width="40" height="40" viewBox="0 0 40 40">
  <defs>
    <style>
      .cls-1 {
        fill: none;
      }

      .cls-2 {
        fill: #04021f;
      }
    </style>
  </defs>
  <rect id="영역" class="cls-1" width="40" height="40"/>
  <path id="패스_484" data-name="패스 484" class="cls-2" d="M6749.616,21249.326l-7.778-7.779-7.778,7.779a.5.5,0,0,1-.7-.711l7.775-7.775-7.775-7.775a.5.5,0,0,1,0-.709.493.493,0,0,1,.7,0l7.778,7.779,7.778-7.779a.5.5,0,0,1,.709.705l-7.781,7.779,7.781,7.781a.494.494,0,0,1,0,.705.5.5,0,0,1-.709,0Z" transform="translate(-6721.839 -21220.84)"/>
</svg>
