<svg xmlns="http://www.w3.org/2000/svg" width="32.548" height="32" viewBox="0 0 32.548 32">
    <path style="fill:none" d="M0 0h32v32H0z"/>
    <path data-name="패스 571" d="M14133.663 20750.443c-.146-.016-.287-.041-.427-.062-.115-.021-.229-.031-.339-.053-.2-.035-.391-.088-.583-.141-.053-.016-.109-.025-.162-.041a6.084 6.084 0 0 1-.666-.229l-.047-.016a8 8 0 0 1-2.667-1.75 8.257 8.257 0 0 1-.609-.672.23.23 0 0 0-.025-.037 8.22 8.22 0 0 1-.5-.713h-.01c-.016-.025-.031-.057-.047-.084-.062-.1-.115-.207-.172-.307-.1-.187-.2-.369-.287-.557l-.141-.34c-.083-.2-.15-.41-.213-.619-.031-.1-.068-.2-.094-.3a7.813 7.813 0 0 1-.187-.947 7.379 7.379 0 0 1-.073-1.016c0-.109 0-.219.011-.328l.021-.291c0-.072.011-.141.021-.209 0-.041.006-.088.011-.135l.047-.312a.95.95 0 0 1 .026-.125 5.933 5.933 0 0 1 .213-.859c.094-.291.2-.578.328-.869.058-.125.1-.256.156-.375a8.9 8.9 0 0 1 .979-1.463c.1-.125.192-.262.307-.381a7.065 7.065 0 0 1 .954-.875 8.648 8.648 0 0 1 1.084-.709 8.2 8.2 0 0 1 1.114-.5l.146-.053c.224-.072.406-.131.594-.178s.38-.088.573-.125l.161-.025a8.774 8.774 0 0 1 1.323-.109 7.978 7.978 0 0 1 5.641 2.322 1.066 1.066 0 0 1 0 1.516 1.1 1.1 0 0 1-1.537 0 5.89 5.89 0 0 0-4.119-1.7 6.093 6.093 0 0 0-.927.078c-.016 0-.12.016-.13.016-.161.031-.3.063-.437.1s-.276.072-.411.119l-.131.047a5.916 5.916 0 0 0-.812.369 5.206 5.206 0 0 0-.739.48 4.932 4.932 0 0 0-.391.322c-.109.1-.219.2-.322.313a6.25 6.25 0 0 0-.422.525 3.4 3.4 0 0 0-.2.287 5.381 5.381 0 0 0-.344.572 5.726 5.726 0 0 0-.521 1.572.079.079 0 0 1 0 .031l-.083.953a5.693 5.693 0 0 0 1.719 4.084 5.9 5.9 0 0 0 8.279 0 1.1 1.1 0 0 1 1.537 0 1.059 1.059 0 0 1 0 1.51 8.037 8.037 0 0 1-5.677 2.328 10.22 10.22 0 0 1-.793-.039zm-12.946-1.9a3.349 3.349 0 0 1-3.369-3.322v-13.421a3.352 3.352 0 0 1 3.369-3.326h15.55a3.355 3.355 0 0 1 3.369 3.326v2.615a9.783 9.783 0 0 0-1.838-.9v-1.719a1.524 1.524 0 0 0-1.531-1.516h-15.55a1.525 1.525 0 0 0-1.536 1.516v13.416a1.5 1.5 0 0 0 .447 1.066 1.535 1.535 0 0 0 1.083.443h4.979a9.576 9.576 0 0 0 1.146 1.813zm12.853-2.391h-1.766v-7.191h2.859c1.885 0 3.052 1.031 3.052 2.691s-1.167 2.709-3.052 2.709h-.854v1.791zm.239-3.588h.786c.511 0 1.115-.162 1.115-.912 0-.588-.375-.891-1.115-.891h-.786zm9.53 1.828a.371.371 0 0 1-.229-.344v-.744h-3.03a.745.745 0 1 1 0-1.49h3.03v-.75a.37.37 0 0 1 .636-.26l1.489 1.488a.373.373 0 0 1 0 .527l-1.489 1.494a.383.383 0 0 1-.406.078zm-21.356-.818a.465.465 0 0 1-.469-.463v-.922a.465.465 0 0 1 .469-.459h2.775a.322.322 0 0 0 0 .068l-.026.318c0 .16-.011.3-.011.441a9.539 9.539 0 0 0 .058 1.016zm0-4.145a.461.461 0 0 1-.469-.459v-.922a.463.463 0 0 1 .469-.457h4.166c-.141.229-.292.457-.417.7a10.172 10.172 0 0 0-.474 1.141zm0-4.141a.466.466 0 0 1-.469-.463v-.918a.466.466 0 0 1 .469-.463h9.337l-.021.012-.073.025-.052.016-.062.025a9.768 9.768 0 0 0-1.354.609 10.232 10.232 0 0 0-1.3.844c-.13.1-.25.209-.369.313z" transform="translate(-14113.346 -20723.477)" style="fill:#04021f;stroke:transparent"/>
</svg>
