<svg xmlns="http://www.w3.org/2000/svg" width="32" height="32" viewBox="0 0 32 32">
    <path style="fill:none" d="M0 0h32v32H0z"/>
    <path data-name="패스 336" d="M-319.5 1127.491a2.083 2.083 0 0 1-1.46-.614 2.125 2.125 0 0 1-.611-1.467 2.045 2.045 0 0 1 .611-1.466l4.584-4.6a2 2 0 0 1 2.886 0l2.071 2.08 2.376-2.387-1.154-1.159a1.426 1.426 0 0 1-.374-1.4 1.415 1.415 0 0 1 1.019-1.023l7.164-1.91a1.409 1.409 0 0 1 1.392.375 1.428 1.428 0 0 1 .374 1.4l-1.9 7.2a1.412 1.412 0 0 1-1.018 1.023 1.409 1.409 0 0 1-1.392-.375l-1.155-1.16-3.871 3.853a2 2 0 0 1-2.886 0l-2.071-2.08-3.123 3.138a2.14 2.14 0 0 1-1.46.58z" transform="translate(327.066 -1104.49)" style="fill:#3f37c9"/>
</svg>
