<svg id="ic_tracking_ing_48" xmlns="http://www.w3.org/2000/svg" width="48" height="48" viewBox="0 0 48 48">
  <defs>
    <style>
      .cls-1 {
        fill: none;
      }

      .cls-2, .cls-3 {
        fill: #3e4259;
      }

      .cls-3 {
        stroke: rgba(0,0,0,0);
      }
    </style>
  </defs>
  <rect id="영역" class="cls-1" width="48" height="48"/>
  <path id="패스_361" data-name="패스 361" class="cls-2" d="M-453.673,1002.724h-.364a14.233,14.233,0,0,0-12.848-12.747h.082V989.6a1.437,1.437,0,0,0-1.437-1.437h0a1.438,1.438,0,0,0-1.438,1.437v.375h.017a14.237,14.237,0,0,0-12.767,12.749v0h-.371a1.438,1.438,0,0,0-1.438,1.437,1.438,1.438,0,0,0,1.438,1.437h.371v-.068a14.235,14.235,0,0,0,12.788,12.834h-.038v.365a1.438,1.438,0,0,0,1.438,1.437h0a1.437,1.437,0,0,0,1.437-1.437v-.365h-.112a14.435,14.435,0,0,0,12.869-12.771v.005h.372a1.437,1.437,0,0,0,1.437-1.437A1.437,1.437,0,0,0-453.673,1002.724Zm-13.126,13.3v-.373a1.437,1.437,0,0,0-1.437-1.437h0a1.438,1.438,0,0,0-1.438,1.437v.372a12.01,12.01,0,0,1-10.508-10.418h.372a1.436,1.436,0,0,0,1.436-1.437h0a1.437,1.437,0,0,0-1.436-1.438h-.373a12.059,12.059,0,0,1,10.509-10.51v.372a1.438,1.438,0,0,0,1.438,1.437h0a1.437,1.437,0,0,0,1.437-1.437v-.373a12.013,12.013,0,0,1,10.431,10.511h-.374a1.437,1.437,0,0,0-1.437,1.438h0a1.437,1.437,0,0,0,1.437,1.437h.373A11.961,11.961,0,0,1-466.8,1016.026Z" transform="translate(492.236 -980.166)"/>
  <path id="패스_487" data-name="패스 487" class="cls-3" d="M7777.4,21163.73a1.732,1.732,0,1,1,1.731,1.738A1.731,1.731,0,0,1,7777.4,21163.73Zm-5.2,0a1.734,1.734,0,1,1,1.731,1.738A1.731,1.731,0,0,1,7772.2,21163.73Zm-5.2,0a1.734,1.734,0,1,1,1.732,1.738A1.732,1.732,0,0,1,7767,21163.73Z" transform="translate(-7749.933 -21139.734)"/>
</svg>
