<svg id="img_answer_gray_40" xmlns="http://www.w3.org/2000/svg" width="40" height="40" viewBox="0 0 40 40">
  <defs>
    <style>
      .cls-1 {
        fill: none;
      }

      .cls-2 {
        fill: #b8b6c4;
        fill-rule: evenodd;
      }
    </style>
  </defs>
  <rect id="영역" class="cls-1" width="40" height="40"/>
  <path id="패스_428" data-name="패스 428" class="cls-2" d="M-125.2,1158.492h-22.486a4.691,4.691,0,0,0-4.757,4.621v15.4a4.691,4.691,0,0,0,4.757,4.621h5.729l3.056,4.131a3.053,3.053,0,0,0,2.458,1.225,3.053,3.053,0,0,0,2.458-1.225l3.056-4.131h5.729a4.69,4.69,0,0,0,4.757-4.621v-15.4A4.69,4.69,0,0,0-125.2,1158.492Zm-12.957,4.869a1.708,1.708,0,0,1,1.714-1.678,1.708,1.708,0,0,1,1.715,1.678v8.386a1.708,1.708,0,0,1-1.715,1.678,1.708,1.708,0,0,1-1.714-1.678Zm1.714,16.583a2.213,2.213,0,0,1-2.232-2.184,2.213,2.213,0,0,1,2.232-2.183,2.213,2.213,0,0,1,2.233,2.183A2.213,2.213,0,0,1-136.443,1179.944Z" transform="translate(156.443 -1153.492)"/>
</svg>
