<svg id="img_question_gray_64" xmlns="http://www.w3.org/2000/svg" width="64" height="64" viewBox="0 0 64 64">
  <defs>
    <style>
      .cls-1 {
        fill: none;
      }

      .cls-2 {
        fill: #b8b6c4;
      }
    </style>
  </defs>
  <rect id="영역" class="cls-1" width="64" height="64"/>
  <path id="패스_396" data-name="패스 396" class="cls-2" d="M72.115,1183.919l-9.174-9.176A21.552,21.552,0,1,0,60,1177.68l9.174,9.176a2.077,2.077,0,0,0,2.937-2.937Zm-38.137-10.57a17.42,17.42,0,1,1,24.632,0A17.311,17.311,0,0,1,33.978,1173.349Z" transform="translate(-16.723 -1131.465)"/>
  <path id="패스_397" data-name="패스 397" class="cls-2" d="M46.29,1173.492a2.78,2.78,0,1,1,2.779-2.78A2.785,2.785,0,0,1,46.29,1173.492Z" transform="translate(-16.723 -1131.465)"/>
  <path id="패스_398" data-name="패스 398" class="cls-2" d="M49.707,1161.812a2.1,2.1,0,0,0-1.065,1.888,2.354,2.354,0,1,1-4.708,0,6.811,6.811,0,0,1,3.547-6.022,2.216,2.216,0,0,0,1.195-2.089,2.393,2.393,0,0,0-2.181-2.292c-.073-.006-.145-.009-.217-.009a2.389,2.389,0,0,0-1.655.633,2.24,2.24,0,0,0-.722,1.667,2.354,2.354,0,1,1-4.708,0,6.957,6.957,0,0,1,2.216-5.117,7.03,7.03,0,0,1,4.842-1.9c.2,0,.407.009.6.026a7.11,7.11,0,0,1,6.528,6.817A6.988,6.988,0,0,1,49.707,1161.812Z" transform="translate(-16.723 -1131.465)"/>
</svg>
