<svg xmlns="http://www.w3.org/2000/svg" width="32" height="32" viewBox="0 0 32 32">
    <defs>
        <clipPath id="kgbz19sk2a">
            <path d="M8 0h16a8 8 0 0 1 8 8v16a8 8 0 0 1-8 8H8a8 8 0 0 1-8-8V8a8 8 0 0 1 8-8z" transform="translate(368 961)" style="fill:#e6e6e6"/>
        </clipPath>
    </defs>
    <rect data-name="썸네일" width="32" height="32" rx="8" style="fill:#e6e6e6"/>
    <g data-name="마스크 그룹 98" transform="translate(-368 -961)" style="clip-path:url(#kgbz19sk2a)">
        <path data-name="패스 581" d="M1281.04-224.952h.037v-7.92c.655.915 1.253 1.871 1.922 2.777 1.119 1.737 2.385 3.379 3.461 5.143h6.025V-240.9h-5.958v7.924c-1.846-2.626-3.591-5.33-5.48-7.924h-6v15.952h5.99z" transform="translate(-899.767 1209.928)" style="fill:#fff"/>
        <path data-name="패스 582" d="M1280.745-269.307a.968.968 0 0 0-.812-.272q-14.361.01-28.724 0a14.062 14.062 0 0 0-1.521.029.89.89 0 0 0-.664.9v30.134a.9.9 0 0 0 .935.921q14.987.01 29.973 0a.947.947 0 0 0 1.08-.924q.015-14.669.007-29.342c-.026-.482.112-1.063-.274-1.446zm-7.005 23.7h-6.025c-1.076-1.764-2.342-3.406-3.461-5.143-.668-.906-1.266-1.861-1.922-2.777v7.92h-6.032v-15.952h6c1.889 2.594 3.634 5.3 5.48 7.924v-7.924h5.958z" transform="translate(-881.021 1230.583)" style="fill:#00bf18"/>
    </g>
</svg>
