<svg id="ic_delete_red_32" xmlns="http://www.w3.org/2000/svg" width="32" height="32" viewBox="0 0 32 32">
  <defs>
    <style>
      .cls-1 {
        fill: none;
      }

      .cls-2 {
        fill: #de3c33;
      }
    </style>
  </defs>
  <rect id="영역" class="cls-1" width="32" height="32"/>
  <path id="패스_348" data-name="패스 348" class="cls-2" d="M-334.519,1024.82a10,10,0,0,0-7.071,2.928,10,10,0,0,0-2.929,7.071,10,10,0,0,0,2.929,7.072,10,10,0,0,0,7.071,2.928,10,10,0,0,0,7.072-2.928,10,10,0,0,0,2.928-7.072,10,10,0,0,0-1.339-5,10,10,0,0,0-3.66-3.66,10,10,0,0,0-5-1.34Zm0,18a8,8,0,0,1-5.657-2.344,8,8,0,0,1-2.343-5.657,8,8,0,0,1,2.343-5.656,8,8,0,0,1,5.657-2.343,8,8,0,0,1,5.657,2.343,8,8,0,0,1,2.343,5.656,8,8,0,0,1-1.072,4,7.991,7.991,0,0,1-2.928,2.927,7.994,7.994,0,0,1-4,1.073Z" transform="translate(350.52 -1018.818)"/>
  <path id="패스_349" data-name="패스 349" class="cls-2" d="M-331.03,1032.308l-2.29,2.3-2.29-2.3a1,1,0,0,0-.97-.259,1,1,0,0,0-.71.709,1,1,0,0,0,.26.97l2.3,2.29-2.3,2.29a1.006,1.006,0,0,0-.26.97,1,1,0,0,0,.71.71,1,1,0,0,0,.97-.26l2.29-2.3,2.29,2.3a1,1,0,0,0,.97.26,1,1,0,0,0,.71-.71,1,1,0,0,0-.26-.97l-2.3-2.29,2.3-2.29a1,1,0,0,0,.26-.97,1,1,0,0,0-.71-.709,1,1,0,0,0-.97.259Z" transform="translate(349.32 -1020.018)"/>
</svg>
