<svg xmlns="http://www.w3.org/2000/svg" width="32" height="32" viewBox="0 0 32 32">
    <path style="fill:none" d="M0 0h32v32H0z"/>
    <path data-name="패스 363" d="M-607.871 994.4v5.11h-3.723v12.78h3.723v5.11h20.277v-23zm-.9 15.088.9-1.356 1.487-2.232-1.487-2.232-.9-1.355h2.39l.8 1.172.422.621 1.218-1.793h2.39l-2.391 3.587 2.391 3.588h-2.391l-1.217-1.794-.422.622-.8 1.172h-2.39zm18.9 5.643h-15.711v-2.841h6.849v-1.39h5.713v-2h-5.713v-2h5.713v-2h-5.713v-2h5.713v-2h-5.713v-1.388h-6.849v-2.84h15.711z" transform="translate(615.594 -989.401)" style="fill:#fff"/>
</svg>
