<svg xmlns="http://www.w3.org/2000/svg" width="30" height="30" viewBox="0 0 30 30">
    <defs>
        <linearGradient id="umenuct9sa" y1=".5" x2="1" y2=".5" gradientUnits="objectBoundingBox">
            <stop offset="0" stop-color="#f5b122"/>
            <stop offset=".5" stop-color="#f06292"/>
            <stop offset="1" stop-color="#7b1fa2"/>
        </linearGradient>
    </defs>
    <path style="fill:none" d="M0 0h30v30H0z"/>
    <path data-name="패스 138" d="M-261.1 888.207a.434.434 0 0 0-.441-.4h-3.259l.662-3.278a.693.693 0 0 0-.133-.584.626.626 0 0 0-.529-.269h-2.914a.667.667 0 0 0-.662.539l-.706 3.546h-4.9l.662-3.278a.69.69 0 0 0-.133-.584.626.626 0 0 0-.529-.269h-2.918a.668.668 0 0 0-.662.539l-.706 3.547h-3.532a.666.666 0 0 0-.661.538l-.619 3.009a.687.687 0 0 0 .133.583.624.624 0 0 0 .529.27h3.267l-1.016 5.073h-3.531a.668.668 0 0 0-.662.539l-.574 2.873a.689.689 0 0 0 .133.584.624.624 0 0 0 .529.269H-281l-.662 3.278a.692.692 0 0 0 .132.584.627.627 0 0 0 .53.269h2.913a.668.668 0 0 0 .662-.539l.706-3.546h4.9l-.661 3.277a.689.689 0 0 0 .132.584.626.626 0 0 0 .529.269h2.869a.668.668 0 0 0 .662-.539l.707-3.547h3.531a.667.667 0 0 0 .662-.538l.574-2.874a.687.687 0 0 0-.133-.583.624.624 0 0 0-.529-.27h-3.267l1.015-5.073h3.532a.666.666 0 0 0 .661-.539l.574-2.873a.691.691 0 0 0-.139-.587zm-9.887 8.979h-4.9l1.015-5.073h4.9z" transform="translate(287.946 -879.627)" style="fill:url(#umenuct9sa)"/>
</svg>
