<svg id="ic_point_payment_color_40" xmlns="http://www.w3.org/2000/svg" xmlns:xlink="http://www.w3.org/1999/xlink" width="40" height="40" viewBox="0 0 40 40">
  <defs>
    <style>
      .cls-1 {
        fill: none;
      }

      .cls-2, .cls-4 {
        mix-blend-mode: multiply;
        isolation: isolate;
      }

      .cls-2 {
        fill: url(#radial-gradient);
      }

      .cls-3 {
        fill: url(#linear-gradient);
      }

      .cls-4 {
        fill: url(#linear-gradient-2);
      }

      .cls-5 {
        fill: #f3e5e2;
      }
    </style>
    <radialGradient id="radial-gradient" cx="0.5" cy="0.5" r="0.514" gradientTransform="translate(-0.067 0.379) scale(0.973 0.973)" gradientUnits="objectBoundingBox">
      <stop offset="0.126" stop-color="#c33a81"/>
      <stop offset="0.219" stop-color="#ce5e98"/>
      <stop offset="0.358" stop-color="#dc8fb7"/>
      <stop offset="0.497" stop-color="#e9b7d1"/>
      <stop offset="0.633" stop-color="#f2d6e5"/>
      <stop offset="0.764" stop-color="#f9ecf3"/>
      <stop offset="0.888" stop-color="#fdfafc"/>
      <stop offset="1" stop-color="#fff"/>
    </radialGradient>
    <linearGradient id="linear-gradient" y1="0.5" x2="1" y2="0.5" gradientUnits="objectBoundingBox">
      <stop offset="0" stop-color="#f26caa"/>
      <stop offset="1" stop-color="#e64e93"/>
    </linearGradient>
    <linearGradient id="linear-gradient-2" x1="0.5" y1="0.092" x2="0.5" y2="0.784" gradientUnits="objectBoundingBox">
      <stop offset="0" stop-color="#56203b"/>
      <stop offset="0.126" stop-color="#56203b" stop-opacity="0.769"/>
      <stop offset="0.349" stop-color="#56203b" stop-opacity="0.435"/>
      <stop offset="0.571" stop-color="#56203b" stop-opacity="0.192"/>
      <stop offset="0.789" stop-color="#56203b" stop-opacity="0.047"/>
      <stop offset="1" stop-color="#56203b" stop-opacity="0"/>
    </linearGradient>
  </defs>
  <rect id="영역" class="cls-1" width="40" height="40"/>
  <path id="패스_647" data-name="패스 647" class="cls-2" d="M10.4,6.608A3.423,3.423,0,0,1,6.934,9.983,3.422,3.422,0,0,1,3.467,6.608,3.422,3.422,0,0,1,6.934,3.233,3.423,3.423,0,0,1,10.4,6.608Z" transform="translate(4 9)"/>
  <path id="패스_648" data-name="패스 648" class="cls-3" d="M27.115,22H5.289C2.551,22.013.046,19.873,0,17.276V4.76A4.8,4.8,0,0,1,4.959,0h22.1A4.918,4.918,0,0,1,32,4.807V17.178A4.931,4.931,0,0,1,27.115,22Z" transform="translate(4 9)"/>
  <path id="패스_651" data-name="패스 651" class="cls-4" d="M.881,0H22.864a.881.881,0,0,1,.881.881V2.617a.881.881,0,0,1-.881.881H.881A.881.881,0,0,1,0,2.617V.881A.881.881,0,0,1,.881,0Z" transform="translate(8.34 22.65)"/>
  <path id="패스_650" data-name="패스 650" class="cls-5" d="M.881,0H22.864a.881.881,0,0,1,.881.881V1.2a.881.881,0,0,1-.881.881H.881A.881.881,0,0,1,0,1.2V.881A.881.881,0,0,1,.881,0Z" transform="translate(8.34 22.65)"/>
  <path id="패스_649" data-name="패스 649" class="cls-5" d="M1.762,0H3.2A1.762,1.762,0,0,1,4.964,1.762V2.4A1.762,1.762,0,0,1,3.2,4.163H1.762A1.762,1.762,0,0,1,0,2.4V1.762A1.762,1.762,0,0,1,1.762,0Z" transform="translate(7.932 12.994)"/>
</svg>
