<svg xmlns="http://www.w3.org/2000/svg" width="32" height="32" viewBox="0 0 32 32">
    <path d="M8 0h16a8 8 0 0 1 8 8v16a8 8 0 0 1-8 8H8a8 8 0 0 1-8-8V8a8 8 0 0 1 8-8z" style="fill:#fff0e0"/>
    <path data-name="패스 403" d="m-39.122 1278.639-6.128 3.2a.241.241 0 0 1-.29-.1l-3.064-5.608a.249.249 0 0 0-.41 0l-3.064 5.584a.24.24 0 0 1-.289.1l-6.1-3.172a.233.233 0 0 0-.314.29l2.123 12.586a.725.725 0 0 0 .676.507h14.379a.694.694 0 0 0 .675-.507l2.123-12.586a.236.236 0 0 0-.317-.294zm-14.782 9.319a1.035 1.035 0 0 1-1.035-1.034 1.035 1.035 0 0 1 1.035-1.035 1.035 1.035 0 0 1 1.034 1.035 1.034 1.034 0 0 1-1.03 1.034zm10.207 0a1.034 1.034 0 0 1-1.034-1.034 1.035 1.035 0 0 1 1.034-1.035 1.035 1.035 0 0 1 1.035 1.035 1.034 1.034 0 0 1-1.038 1.034zm-5.1 0a1.034 1.034 0 0 1-1.034-1.034 1.034 1.034 0 0 1 1.034-1.035 1.035 1.035 0 0 1 1.035 1.035 1.034 1.034 0 0 1-1.038 1.037z" transform="translate(64.801 -1268.021)" style="fill:#f77a0c"/>
</svg>
