<svg id="ic_sort_black_24" xmlns="http://www.w3.org/2000/svg" width="24" height="24" viewBox="0 0 24 24">
  <defs>
    <style>
      .cls-1 {
        fill: none;
      }

      .cls-2 {
        fill: #3e4259;
      }
    </style>
  </defs>
  <rect id="영역" class="cls-1" width="24" height="24"/>
  <path id="패스_340" data-name="패스 340" class="cls-2" d="M-442.533,1113.7a.925.925,0,0,0-.229-.167.937.937,0,0,0-1.058.149l-.064.063-2.916,2.907a.927.927,0,0,0,0,1.282.935.935,0,0,0,1.285,0l1.409-1.4v7.99a.919.919,0,0,0,.914.912.919.919,0,0,0,.914-.912v-10.2A.9.9,0,0,0-442.533,1113.7Z" transform="translate(453.058 -1107.434)"/>
  <path id="패스_341" data-name="패스 341" class="cls-2" d="M-439.582,1125.168a.921.921,0,0,0,.229.167.937.937,0,0,0,1.058-.149l.064-.063,2.916-2.907a.927.927,0,0,0,0-1.282.935.935,0,0,0-1.285,0l-1.409,1.4v-7.99a.919.919,0,0,0-.914-.912.919.919,0,0,0-.914.912v10.2A.9.9,0,0,0-439.582,1125.168Z" transform="translate(453.058 -1107.434)"/>
</svg>
