<svg id="img_question_gray_40" xmlns="http://www.w3.org/2000/svg" width="40" height="40" viewBox="0 0 40 40">
  <defs>
    <style>
      .cls-1 {
        fill: none;
      }

      .cls-2 {
        fill: #b8b6c4;
        fill-rule: evenodd;
      }
    </style>
  </defs>
  <rect id="영역" class="cls-1" width="40" height="40"/>
  <path id="패스_427" data-name="패스 427" class="cls-2" d="M-85.855,1158.492h-22.487a4.691,4.691,0,0,0-4.757,4.621v15.4a4.691,4.691,0,0,0,4.757,4.621h5.729l3.057,4.131a3.053,3.053,0,0,0,2.457,1.225,3.053,3.053,0,0,0,2.458-1.225l3.057-4.131h5.729a4.69,4.69,0,0,0,4.756-4.621v-15.4A4.69,4.69,0,0,0-85.855,1158.492ZM-97.1,1179.944a2.068,2.068,0,0,1-2.089-2.037,2.068,2.068,0,0,1,2.089-2.037,2.068,2.068,0,0,1,2.09,2.037A2.068,2.068,0,0,1-97.1,1179.944Zm2.568-8.558a1.531,1.531,0,0,0-.8,1.383,1.749,1.749,0,0,1-1.769,1.725,1.749,1.749,0,0,1-1.769-1.725,4.973,4.973,0,0,1,2.666-4.412,1.618,1.618,0,0,0,.9-1.53,1.773,1.773,0,0,0-1.639-1.679c-.055-.005-.109-.007-.163-.007a1.819,1.819,0,0,0-1.244.464,1.624,1.624,0,0,0-.543,1.221,1.749,1.749,0,0,1-1.769,1.725,1.75,1.75,0,0,1-1.769-1.725,5.043,5.043,0,0,1,1.665-3.749,5.36,5.36,0,0,1,3.64-1.394c.151,0,.305.007.453.019a5.27,5.27,0,0,1,4.906,4.994A5.1,5.1,0,0,1-94.531,1171.386Z" transform="translate(117.099 -1153.492)"/>
</svg>
