<svg xmlns="http://www.w3.org/2000/svg" width="20" height="20" viewBox="0 0 20 20">
  <defs>
    <style>
      .cls-1 {
        opacity: 0.5;
      }

      .cls-2 {
        fill: #fff;
      }
    </style>
  </defs>
  <g id="icon_review" class="cls-1" transform="translate(4.022 4.022)">
    <path id="패스_1509" data-name="패스 1509" class="cls-2" d="M15.357.956a3.264,3.264,0,0,0-4.616,0L1.619,10.078a.637.637,0,0,0-.163.28L.023,15.505a.637.637,0,0,0,.788.784l5.148-1.462a.637.637,0,0,0,.277-1.063L2.991,10.509l7.561-7.561L13.364,5.76,7.576,11.532a.637.637,0,0,0,.9.9l6.882-6.863a3.264,3.264,0,0,0,0-4.616ZM4.569,13.9l-3.013.856L2.4,11.721ZM14.457,4.67l-.19.19L11.454,2.046l.189-.189A1.99,1.99,0,0,1,14.457,4.67Z" transform="matrix(0.966, -0.259, 0.259, 0.966, -4.022, 0.2)"/>
    <rect id="사각형_311" data-name="사각형 311" class="cls-2" width="15.439" height="1.362" rx="0.681" transform="translate(0.539 14.616)"/>
  </g>
</svg>
