<svg xmlns="http://www.w3.org/2000/svg" width="32" height="32" viewBox="0 0 32 32">
    <path style="fill:none" d="M0 0h32v32H0z"/>
    <path data-name="패스 469" d="m9855.263-1026.322-7.07-7.071-7.072 7.071a1 1 0 0 1-1.412 0 1 1 0 0 1 0-1.415l7.069-7.07-7.069-7.07a1 1 0 0 1 0-1.415 1 1 0 0 1 1.412 0l7.072 7.071 7.07-7.071a1 1 0 0 1 1.415 0 1 1 0 0 1 0 1.415l-7.071 7.07 7.071 7.07a1 1 0 0 1 0 1.415 1 1 0 0 1-.707.293 1 1 0 0 1-.708-.293z" transform="translate(-9832.191 1050.808)" style="fill:#3e4259"/>
</svg>
