<svg xmlns="http://www.w3.org/2000/svg" width="134.999" height="106" viewBox="0 0 134.999 106">
    <path data-name="패스 315" d="M938.791 5392.195c13.258-2.177 27.282.11 38.619 7.233 16.292 10.238 28.514 28.7 28.6 48.359.088 19.973-11.308 36.714-29.549 44.425-10.149 4.291-21.939 6.38-32.756 4.5-18.449-3.213-30.625-13-41.248-28.1-10.2-14.5-9.552-38.432-.23-53.228 8.114-12.884 21.873-20.777 36.564-23.189z" transform="translate(-876.43 -5391.404)" style="fill:#e4e7ef"/>
    <path data-name="패스 316" d="M973.612 5406.195a2.655 2.655 0 0 0-3.054-2.19l-56.992 9.536a2.663 2.663 0 0 0-2.181 3.066l12.019 72.4a2.655 2.655 0 0 0 3.054 2.19l56.992-9.536a2.663 2.663 0 0 0 2.182-3.066z" transform="translate(-876.43 -5391.404)" style="mix-blend-mode:multiply;isolation:isolate;opacity:.2;fill:#3a7ec1"/>
    <path data-name="패스 317" d="m985.214 5478.754-56.992 9.536a2.653 2.653 0 0 1-3.053-2.19l-12.02-72.4a2.663 2.663 0 0 1 2.182-3.066l56.991-9.537a2.655 2.655 0 0 1 3.054 2.19l12.02 72.4a2.663 2.663 0 0 1-2.182 3.067z" transform="translate(-876.43 -5391.404)" style="fill:#f7f8ff"/>
    <path data-name="패스 318" d="M961.211 5420.677a15.967 15.967 0 1 0-6.877 23.727l.022-.01a16.018 16.018 0 0 0 6.855-23.717zm-8.341 20.243-.016.007a12.145 12.145 0 0 1-16.767-9.215 12.239 12.239 0 0 1 5.685-12.439 12.16 12.16 0 0 1 18.293 8.427 12.233 12.233 0 0 1-7.195 13.22z" transform="translate(-876.43 -5391.404)" style="fill:#e4ecf9"/>
    <path data-name="패스 319" d="m961.211 5420.677-3.107 2.136a12.122 12.122 0 0 0-16.332-3.54l-1.952-3.233a15.878 15.878 0 0 1 21.391 4.637z" transform="translate(-876.43 -5391.404)" style="fill:#80a4ff"/>
    <path data-name="패스 320" d="M963.779 5427.079a16.025 16.025 0 0 1-9.423 17.315l-.022.01-1.48-3.477.016-.007a12.227 12.227 0 0 0 5.234-18.107l3.107-2.136a15.944 15.944 0 0 1 2.568 6.402z" transform="translate(-876.43 -5391.404)" style="fill:#58ddad"/>
    <path data-name="패스 321" d="m954.356 5444.394-.022.01a15.894 15.894 0 0 1-9.914.858l.865-3.68a12.125 12.125 0 0 0 7.569-.655l.016-.007z" transform="translate(-876.43 -5391.404)" style="fill:#ffde80"/>
    <path data-name="패스 322" d="M954.941 5434.631a7.83 7.83 0 0 1-.721.878 8.414 8.414 0 0 1-11.021 1.109.248.248 0 0 1-.028-.018 8.47 8.47 0 0 1 5.035-15.362 8.347 8.347 0 0 1 4.774 1.577 8.491 8.491 0 0 1 1.961 11.816z" transform="translate(-876.43 -5391.404)" style="fill:#e4ecf9"/>
    <path data-name="패스 323" d="m948.206 5421.238-.131 8.467-8.3-1.527a8.434 8.434 0 0 1 8.427-6.94z" transform="translate(-876.43 -5391.404)" style="fill:#58ddad"/>
    <path data-name="패스 324" d="M954.941 5434.631a7.83 7.83 0 0 1-.721.878c-1.854-1.755-6.145-5.8-6.145-5.8l.131-8.467a8.347 8.347 0 0 1 4.774 1.577 8.491 8.491 0 0 1 1.961 11.812z" transform="translate(-876.43 -5391.404)" style="fill:#80a4ff"/>
    <path data-name="패스 516" d="m7923 20269.7 7.423-1.242 2.775 16.7-7.423 1.242zm21.923 1.146 7.423-1.242 2 12.014-7.423 1.242zm20.8-5.6 7.423-1.242 2.337 14.078-7.423 1.242z" transform="translate(-7872.818 -20203.262)" style="stroke:transparent;fill:#ffde80"/>
    <path data-name="패스 326" d="m947.381 5471.526-7.425 1.243-1.651-9.942 7.425-1.243z" transform="translate(-876.43 -5391.404)" style="fill:#e4ecf9"/>
    <path data-name="패스 328" d="m968.525 5467.989-7.425 1.242-1.064-6.411 7.425-1.242z" transform="translate(-876.43 -5391.404)" style="fill:#e4ecf9"/>
    <path data-name="패스 515" d="m8838.747 25702.369-13.8-15.25.947-.865-2.553-2.816a15.376 15.376 0 1 1 3.134-2.857l2.552 2.814.945-.861 13.8 15.248a1.831 1.831 0 0 1-.122 2.574l-2.342 2.135a1.806 1.806 0 0 1-2.561-.121zm-32.447-40.918a12.551 12.551 0 1 0 17.688.852 12.479 12.479 0 0 0-17.687-.852z" transform="translate(-8711.822 -25610.348)" style="stroke:transparent;opacity:.2;fill:#3a7ec1"/>
    <path data-name="패스 513" d="M13.477 0A13.53 13.53 0 1 1 0 13.53 13.5 13.5 0 0 1 13.477 0z" transform="translate(89.979 43.938)" style="fill:#4684af;opacity:.2"/>
    <path data-name="패스 514" d="m8838.747 25702.369-13.8-15.256.944-.861-2.553-2.816a15.378 15.378 0 1 1 3.135-2.859l2.553 2.818.946-.861 13.8 15.248a1.831 1.831 0 0 1-.122 2.574l-2.342 2.135a1.806 1.806 0 0 1-2.561-.121zm-32.454-40.918a12.553 12.553 0 1 0 17.694.852 12.487 12.487 0 0 0-17.694-.852z" transform="translate(-8711.266 -25613.289)" style="fill:#3e4259;stroke:transparent"/>
    <path data-name="패스 511" d="M9.592 0A9.63 9.63 0 1 1 0 9.63 9.611 9.611 0 0 1 9.592 0z" transform="translate(0 69.243)" style="fill:#80eaff"/>
    <path data-name="패스 512" d="M5.255 0A5.275 5.275 0 1 1 0 5.275 5.265 5.265 0 0 1 5.255 0z" transform="translate(124.49 13.043)" style="fill:#ffe180"/>
</svg>
