<svg xmlns="http://www.w3.org/2000/svg" width="122" height="43" viewBox="0 0 122 43">
    <path data-name="패스 121" d="M-103.676 502.815h-73.84a21.448 21.448 0 0 0-21.4 21.5c0 9.282.557 14.907-1.6 18.06-2.167 3.174-3.761 3.44-3.761 3.44h100.6a21.451 21.451 0 0 0 21.4-21.5 21.45 21.45 0 0 0-21.399-21.5z" transform="translate(204.275 -502.815)" style="fill:#e6458e"/>
    <path data-name="패스 523" d="M8.965.8v-9.853h-.858v3.905H6.776v-3.685h-.847V.319h.847v-4.73h1.331V.8zM4.686-7.909H.935v6.072h3.751zM3.85-2.552H1.782v-4.642H3.85zM10.956-5.8l.264.682c1.672-.121 3.113-.638 3.729-1.551.616.913 2.057 1.43 3.707 1.551l.275-.682c-1.837-.118-3.331-.734-3.476-1.7h3.036v-.682H15.4v-.935h-.9v.935h-3.1v.682h3.047c-.147.966-1.676 1.582-3.491 1.7zM15.4-3.069v-.913h3.993v-.693h-8.9v.693h3.993v.913H11.55v.669h5.819v.836h-5.786V.7h6.974V.022h-6.094v-.935h5.8v-2.156zm9.438-2.4c2.167 0 3.465-.594 3.465-1.7S27-8.888 24.838-8.888s-3.465.605-3.465 1.716 1.298 1.705 3.465 1.705zm0-2.739c1.639 0 2.541.374 2.541 1.034s-.9 1.034-2.541 1.034S22.3-6.512 22.3-7.172s.9-1.034 2.538-1.034zM29.3-4.07v-.73h-8.928v.726zM28.457 0h-6.094v-1h5.8v-2.223H21.45v.682h5.819v.88h-5.786V.7h6.974zm13-3.828v-.726h-4.013v-1.254h3v-.726h-5.805v-2.3h-.9v3.025h2.805v1.254h-4v.726zm-.9 3.784h-1.6v-2.079h1.507v-.726h-6.947v.726h1.507v2.079h-1.6v.726h7.128zm-2.486 0h-2.156v-2.079h2.156zm12.485.88v-9.889h-.9v2.211h-2.53a2.224 2.224 0 0 0-2.057-1.452c-1.441 0-2.464 1.342-2.464 3.443s1.023 3.443 2.464 3.443a2.252 2.252 0 0 0 2.121-1.584h2.464V.836zm-5.489-3.047c-.946 0-1.606-1.034-1.606-2.64s.66-2.629 1.606-2.629c.924 0 1.606 1.034 1.606 2.629s-.682 2.64-1.606 2.64zm4.587-3.894v2.376H47.41a4.6 4.6 0 0 0 .11-1.122 5.606 5.606 0 0 0-.143-1.254zm3.806 2.519h6.776v-.737h-5.885V-7.4h5.786v-.748H53.46zm7.81 3.069v-.748h-8.954v.748zM70.345.825v-9.889h-.9v2.255H67.5v.737h1.947V-4.1H67.43v.737h2.013V.825zm-6.864-3.047v-2.409h3.4v-3.531h-4.313v.726h3.421v2.068h-3.4v3.894h.748a27.615 27.615 0 0 0 4.356-.3l-.077-.748a25.089 25.089 0 0 1-4.135.3zm17.6 1.771V-1.2H78.87v-2.672a2.2 2.2 0 0 0 1.3-2.024c0-1.529-1.485-2.53-3.586-2.53S73-7.425 73-5.9a2.236 2.236 0 0 0 1.32 2.035V-1.2h-2.2v.748zm-4.5-7.271c1.584 0 2.728.726 2.728 1.826S78.166-4.07 76.582-4.07s-2.717-.73-2.717-1.83S75-7.722 76.582-7.722zM77.968-1.2h-2.75v-2.32a6.024 6.024 0 0 0 1.364.154 6.771 6.771 0 0 0 1.386-.154zm7.81-5.9.033-1.144h-1.023l.033 1.144.132 5.126h.693zM84.8.143h1V-.891h-1z" transform="translate(16 32.5)" style="fill:#fff"/>
    <path data-name="패스 524" d="m8.756-3.63.374-.748c-1.749-.3-3.641-1.672-3.641-3.278v-.759h-.946v.759C4.543-6.05 2.651-4.675.9-4.378l.374.748a5.269 5.269 0 0 0 3.74-2.651A5.336 5.336 0 0 0 8.756-3.63zm.781 3.179v-.737H7.106v-2.233H6.2v2.233H3.9v-2.233h-.886v2.233H.572v.737zM17.677-3h.9v-6.042h-.9zm-.924-1.078-.055-.66c-.473.077-.957.11-1.452.154v-2.885h.968V-8.2h-5.291v.726h.968v3c-.22.011-.429.011-.638.011h-.594l.088.748a36.48 36.48 0 0 0 6.006-.366zm-3.982-.4v-2.991h1.606v2.926c-.539.033-1.089.055-1.606.066zm2.552 1.683c-2.046 0-3.311.66-3.311 1.8S13.277.8 15.323.8s3.311-.657 3.311-1.79-1.265-1.804-3.311-1.804zm0 2.893C13.816.1 12.914-.286 12.914-.99s.9-1.1 2.409-1.1 2.409.4 2.409 1.1S16.83.1 15.323.1zm15.345-4.982.341-.7c-1.716-.264-3.454-1.43-3.454-2.728V-8.8h-.924v.484c0 1.32-1.727 2.486-3.476 2.75l.352.7a4.965 4.965 0 0 0 3.586-2.244 5.112 5.112 0 0 0 3.575 2.226zm.891 1.584v-.726H22.6v.726h4.1v1.991h.913V-3.3zM30.58-.143h-5.929v-2.1h-.9V.594h6.829zm10.043.968v-9.867h-.9V.825zm-4.862-5.357c1.463 0 2.508-.825 2.508-2.024s-1.045-2.035-2.508-2.035-2.519.836-2.519 2.035 1.058 2.024 2.519 2.024zm0-3.311c.968 0 1.639.495 1.639 1.287s-.671 1.287-1.639 1.287-1.65-.528-1.65-1.287.682-1.287 1.65-1.287zm3.322 4.466-.077-.671a46.882 46.882 0 0 1-6.5.352l.121.759c.836 0 1.749-.011 2.728-.055v3.5h.9v-3.555a24.172 24.172 0 0 0 2.828-.33zm4.466-4.752h5.786v.8h-5.764v2.112H50.4v-.649h-5.94v-.844h5.764v-2.057h-6.675zm7.821 4.345v-.682h-8.943v.682zm-.8 3.817h-6.16V-.88h5.852v-2.1h-6.768v.649h5.874v.825h-5.852V.682h7.051zM55.748-4.8h6.578v-3.934h-.891v1.254h-4.8v-1.254h-.891zm.891-1.991h4.8v1.276h-4.8zm6.875 3.674v-.726h-8.965v.726h4.1V-1.2h.9v-1.913zm-1 2.97h-5.93V-2.09h-.891V.594h6.82zM72.6-3.223v-5.819h-.913v2.057h-2.145v.737h2.145v3.025zm-2.849-.418.484-.715a3.461 3.461 0 0 1-2.409-3.124v-1.078h-.9v1.045a3.573 3.573 0 0 1-2.442 3.366l.473.726a4.27 4.27 0 0 0 2.442-2.5 4.07 4.07 0 0 0 2.352 2.28zm2.849.968h-6.611v.726h5.7V.825h.911zM82.731.8v-9.864h-.869V-4.9H80.6v-3.933h-.85V.33h.85v-4.488h1.265V.8zm-3.476-8.17h-2v-1.4h-.891v1.4h-2v.737h4.9zm-2.442 1.4A2.1 2.1 0 0 0 74.7-3.729a2.1 2.1 0 0 0 2.112 2.255 2.1 2.1 0 0 0 2.112-2.255 2.1 2.1 0 0 0-2.111-2.244zm0 3.751a1.367 1.367 0 0 1-1.313-1.51 1.329 1.329 0 0 1 1.309-1.485 1.36 1.36 0 0 1 1.309 1.485 1.367 1.367 0 0 1-1.305 1.507zM92.4.825v-9.878h-.9v3.344h-2.29v.737h2.29v5.8zm-4.675-7.26v-1.771h-.9v1.771a5.212 5.212 0 0 1-2.552 4.444l.55.715a5.483 5.483 0 0 0 2.453-3.3 5.4 5.4 0 0 0 2.475 3.124l.528-.715a4.918 4.918 0 0 1-2.554-4.268z" transform="translate(16 18.5)" style="fill:#fff"/>
</svg>
