<svg xmlns="http://www.w3.org/2000/svg" width="24" height="24" viewBox="0 0 24 24">
    <path style="fill:none" d="M0 0h24v24H0z"/>
    <path data-name="패스 579" d="M19553.539 18394a.054.054 0 0 0-.018 0h-.06l-.059-.012a.007.007 0 0 0-.006 0 1.728 1.728 0 0 1-.094-.031l-.016-.008-.021-.01a.875.875 0 0 1-.109-.062.769.769 0 0 1-.1-.08l-.006-.006-8.836-8.838a.75.75 0 0 1 1.061-1.061l7.555 7.561v-14.693a.752.752 0 0 1 1.5 0v14.693l7.555-7.561a.764.764 0 0 1 1.066 0 .746.746 0 0 1 0 1.061l-8.838 8.844a.788.788 0 0 1-.451.211h-.01a.12.12 0 0 1-.027 0 .015.015 0 0 1-.01 0h-.084z" transform="translate(-19541.586 -18373)" style="fill:#3e4259"/>
</svg>
