<svg xmlns="http://www.w3.org/2000/svg" width="32.498" height="32" viewBox="0 0 32.498 32">
    <path style="fill:none" d="M0 0h32v32H0z"/>
    <path data-name="패스 570" d="M14243.663 20722.66c-.146-.01-.286-.035-.427-.057-.114-.016-.229-.031-.338-.053-.2-.035-.39-.088-.582-.141-.053-.016-.109-.025-.161-.041a7.157 7.157 0 0 1-.671-.229.167.167 0 0 1-.047-.021 7.953 7.953 0 0 1-2.668-1.742 8.06 8.06 0 0 1-.6-.676c-.011-.01-.021-.025-.031-.037a8.917 8.917 0 0 1-.489-.707h-.016a.64.64 0 0 0-.047-.088c-.057-.1-.114-.2-.171-.307a6.6 6.6 0 0 1-.281-.557 7.617 7.617 0 0 1-.359-.957c-.031-.1-.068-.2-.094-.3a8.077 8.077 0 0 1-.26-1.973c0-.1 0-.213.01-.322l.021-.295c0-.068.01-.137.021-.2 0-.047 0-.094.01-.137.016-.113.031-.213.047-.311.006-.043.016-.084.026-.131a6.172 6.172 0 0 1 .213-.857c.094-.287.2-.578.328-.869.057-.125.1-.25.161-.379a6.961 6.961 0 0 1 .468-.785 8.04 8.04 0 0 1 .5-.672c.1-.129.2-.26.307-.385.182-.191.328-.332.479-.473s.313-.271.479-.4a8.4 8.4 0 0 1 1.082-.707 7.39 7.39 0 0 1 1.112-.5l.146-.057a8.179 8.179 0 0 1 1.172-.303l.161-.025a8.751 8.751 0 0 1 1.321-.109 7.947 7.947 0 0 1 5.638 2.324 1.055 1.055 0 0 1 0 1.514 1.09 1.09 0 0 1-1.534-.006 5.877 5.877 0 0 0-4.113-1.689c-.161 0-.317.006-.474.016s-.307.037-.457.057a1.174 1.174 0 0 1-.131.021c-.161.031-.3.057-.437.094s-.275.078-.416.125l-.125.047a6.165 6.165 0 0 0-.816.363 6.354 6.354 0 0 0-.738.479c-.167.131-.281.229-.391.328s-.218.2-.322.313a6.437 6.437 0 0 0-.421.525c-.073.1-.141.191-.208.285a6.278 6.278 0 0 0-.338.572 5.584 5.584 0 0 0-.521 1.57v.031l-.089.951a5.706 5.706 0 0 0 1.722 4.088 5.9 5.9 0 0 0 8.279 0 1.1 1.1 0 0 1 .77-.311 1.084 1.084 0 0 1 .765.311 1.055 1.055 0 0 1 0 1.514 8.016 8.016 0 0 1-5.674 2.324 8.902 8.902 0 0 1-.791-.043zm-12.95-1.893a3.353 3.353 0 0 1-3.369-3.328v-13.414a3.348 3.348 0 0 1 3.369-3.322h15.551a3.346 3.346 0 0 1 3.37 3.322v2.617a9.279 9.279 0 0 0-1.836-.895v-1.723a1.522 1.522 0 0 0-1.534-1.512h-15.551a1.526 1.526 0 0 0-1.534 1.512v13.414a1.491 1.491 0 0 0 .453 1.07 1.518 1.518 0 0 0 1.081.447h4.973a10.165 10.165 0 0 0 1.149 1.811zm12.856-2.393h-1.763v-7.193h2.86c1.877 0 3.048 1.035 3.048 2.7s-1.171 2.709-3.048 2.709h-.858v1.789zm.239-3.594h.791c.51 0 1.112-.156 1.112-.9 0-.594-.374-.895-1.112-.895h-.791zm8.279 3a.5.5 0 0 1-.5-.5v-1.754h-1.753a.5.5 0 0 1-.5-.5v-.5a.5.5 0 0 1 .5-.5h1.753v-1.752a.5.5 0 0 1 .5-.5h.5a.5.5 0 0 1 .5.5v1.752h1.753a.5.5 0 0 1 .5.5v.5a.5.5 0 0 1-.5.5h-1.753v1.754a.5.5 0 0 1-.5.5zm-20.105-1.986a.463.463 0 0 1-.468-.457v-.926a.463.463 0 0 1 .468-.457h2.771a.332.332 0 0 1 0 .066l-.021.318c-.011.16-.016.3-.016.436a9.554 9.554 0 0 0 .057 1.02zm0-4.145a.461.461 0 0 1-.468-.457v-.922a.461.461 0 0 1 .468-.457h4.166c-.141.229-.292.453-.416.7a9.28 9.28 0 0 0-.474 1.139zm0-4.139a.465.465 0 0 1-.468-.459v-.92a.464.464 0 0 1 .468-.463h9.341l-.026.01c-.021.006-.047.016-.073.021l-.052.021-.062.025a9.081 9.081 0 0 0-1.352.607 10.154 10.154 0 0 0-1.3.844c-.135.1-.249.207-.374.313z" transform="translate(-14223.346 -20695.703)" style="fill:#04021f;stroke:transparent"/>
</svg>
