<svg xmlns="http://www.w3.org/2000/svg" width="32" height="32" viewBox="0 0 32 32">
    <path style="fill:none" d="M0 0h32v32H0z"/>
    <path data-name="패스 568" d="m14802.557 20668.525-3.05-3.045a10.52 10.52 0 1 1 1.488-1.488l3.05 3.049a1 1 0 0 1 0 1.412l-.072.072a.987.987 0 0 1-.706.295 1 1 0 0 1-.71-.295zm-15.65-17.139a8.421 8.421 0 1 0 5.947-2.459 8.418 8.418 0 0 0-5.948 2.46zm2.091 11.588v-10.514h4.041c2.733 0 4.337 1.52 4.337 3.844 0 2.35-1.6 3.869-4.337 3.869h-1.691v2.8zm2.35-4.875h1.588c1.3 0 2.09-.623 2.09-1.795s-.788-1.77-2.09-1.77h-1.588z" transform="translate(-14777.338 -20641.82)" style="fill:#04021f"/>
</svg>
