<svg id="thum_kakaotalk_72" xmlns="http://www.w3.org/2000/svg" width="72" height="72.002" viewBox="0 0 72 72.002">
  <defs>
    <style>
      .cls-1 {
        fill: none;
      }

      .cls-2 {
        fill: #fee712;
      }
    </style>
  </defs>
  <rect id="영역" class="cls-1" width="72" height="72" transform="translate(0)"/>
  <path id="패스_544" data-name="패스 544" class="cls-2" d="M36,0A36,36,0,1,1,0,36,36,36,0,0,1,36,0Z" transform="translate(0 0.002)"/>
  <path id="패스_538" data-name="패스 538" d="M109.964,1384.12a30.365,30.365,0,0,1-4.551-.275.782.782,0,0,0-.605.148c-3,2.1-5.99,4.21-9.084,6.169-.375.238-.768.45-1.155.67a1.232,1.232,0,0,1-.443.151c-.494.067-.785-.225-.68-.716.184-.862.441-1.706.683-2.553q.915-3.21,1.837-6.417c.054-.188.035-.277-.159-.375a23.565,23.565,0,0,1-7.592-5.928,17.34,17.34,0,0,1-3.977-8.536,16.159,16.159,0,0,1,1.857-10.435,21.175,21.175,0,0,1,7.281-7.652,28.4,28.4,0,0,1,10.573-4.1,31.657,31.657,0,0,1,8.517-.373,28.565,28.565,0,0,1,14.7,5.363,19.588,19.588,0,0,1,6.652,8.118,16.1,16.1,0,0,1-1.225,15.46,21.635,21.635,0,0,1-7.845,7.382,28.821,28.821,0,0,1-9.8,3.46A31.647,31.647,0,0,1,109.964,1384.12Z" transform="translate(-73.625 -1329.738)"/>
  <path id="패스_539" data-name="패스 539" class="cls-2" d="M121.848,1362.559a1.812,1.812,0,0,1,.169-.234q1.89-1.9,3.784-3.787a1.242,1.242,0,0,1,1.622-.2,1.434,1.434,0,0,1,.679,1.593,1.329,1.329,0,0,1-.368.564c-1.034,1.032-2.063,2.068-3.1,3.094-.145.143-.137.225-.021.378q1.731,2.275,3.445,4.562a1.474,1.474,0,1,1-2.326,1.809c-1.029-1.349-2.046-2.706-3.068-4.059a.93.93,0,0,0-.079-.105c-.12-.115-.153-.342-.341-.354-.144-.009-.481.515-.481.686,0,1.015.008,2.03-.005,3.044a1.447,1.447,0,0,1-1.218,1.406,1.469,1.469,0,0,1-1.591-.844,1.507,1.507,0,0,1-.135-.635q0-5.027,0-10.051a1.472,1.472,0,1,1,2.944-.011c.009.962,0,1.924,0,2.887v.2Z" transform="translate(-73.625 -1329.738)"/>
  <path id="패스_540" data-name="패스 540" class="cls-2" d="M104.217,1368.408c-.683,0-1.365.005-2.047,0a.248.248,0,0,0-.283.193c-.173.484-.365.962-.548,1.443a1.32,1.32,0,0,1-1.6.92c-1.033-.152-1.389-.678-1.17-1.736a12.617,12.617,0,0,1,.662-1.9q1.492-3.954,3-7.9a2.166,2.166,0,0,1,1.655-1.455,2.092,2.092,0,0,1,2.276,1.378c.557,1.44,1.1,2.885,1.648,4.328q.926,2.433,1.85,4.868a3.142,3.142,0,0,1,.235,1.409.942.942,0,0,1-.648.869,2.281,2.281,0,0,1-.923.154,1.206,1.206,0,0,1-1.223-.877c-.156-.5-.376-.977-.552-1.469a.275.275,0,0,0-.312-.224C105.564,1368.416,104.89,1368.408,104.217,1368.408Z" transform="translate(-73.625 -1329.738)"/>
  <path id="패스_541" data-name="패스 541" class="cls-2" d="M94,1365.293c0-1.4,0-2.8,0-4.2,0-.22-.038-.3-.282-.294-.656.02-1.312.01-1.968.006a1.444,1.444,0,1,1-.013-2.887q3.738-.012,7.476,0a1.445,1.445,0,0,1,.4,2.845,1.648,1.648,0,0,1-.442.042c-.656,0-1.312.01-1.967-.005-.215-.005-.258.067-.257.266q.009,4.185,0,8.368a1.44,1.44,0,0,1-1.014,1.484A1.466,1.466,0,0,1,94,1369.516C93.992,1368.109,94,1366.7,94,1365.293Z" transform="translate(-73.625 -1329.738)"/>
  <path id="패스_542" data-name="패스 542" class="cls-2" d="M110.674,1364.39c0-1.661,0-3.323,0-4.984a1.477,1.477,0,0,1,1.356-1.476,1.509,1.509,0,0,1,1.605,1.108,2.058,2.058,0,0,1,.044.547c0,2.737,0,5.474,0,8.211,0,.234.06.291.29.288q1.443-.021,2.886,0a1.369,1.369,0,0,1,1.382,1.271,1.346,1.346,0,0,1-1.29,1.411q-2.492.03-4.984,0a1.338,1.338,0,0,1-1.285-1.362C110.671,1367.731,110.674,1366.061,110.674,1364.39Z" transform="translate(-73.625 -1329.738)"/>
  <path id="패스_543" data-name="패스 543" d="M104.213,1361.607c.5,1.431.984,2.792,1.474,4.184h-1.861c-.288,0-.577-.01-.865,0-.188.009-.216-.039-.153-.214.381-1.059.753-2.121,1.127-3.182C104.019,1362.161,104.1,1361.922,104.213,1361.607Z" transform="translate(-73.625 -1329.738)"/>
</svg>
