<svg xmlns="http://www.w3.org/2000/svg" width="24" height="24" viewBox="0 0 24 24">
    <path style="fill:none" d="M0 0h24v24H0z"/>
    <path data-name="패스 575" d="M4384.868 22909.451h-.011c-.207 0-.414-.012-.615-.027-.109-.012-.219-.035-.333-.047-.086-.018-.172-.023-.259-.041-.155-.027-.3-.068-.454-.107-.041-.012-.081-.018-.126-.029a6.683 6.683 0 0 1-.518-.184.106.106 0 0 1-.041-.012c-.052-.018-.092-.053-.144-.076a6.731 6.731 0 0 1-.725-.373 5.006 5.006 0 0 1-.465-.311 5.578 5.578 0 0 1-.455-.361c-.092-.082-.2-.139-.282-.225a7.967 7.967 0 0 1-.471-.523l-.023-.029c-.035-.045-.063-.1-.1-.148-.1-.133-.2-.266-.282-.4h-.012c-.011-.018-.023-.041-.035-.064-.052-.074-.092-.16-.138-.24a12.188 12.188 0 0 1-.219-.426 6.825 6.825 0 0 1-.109-.266 4.591 4.591 0 0 1-.167-.477 1.638 1.638 0 0 1-.069-.23.17.17 0 0 1-.012-.045 5.779 5.779 0 0 1-.138-.689 5.967 5.967 0 0 1-.058-.789c0-.08 0-.166.006-.252l.017-.225c.006-.053.012-.1.017-.156s.006-.074.012-.1c.011-.086.023-.166.035-.246l.017-.1a4.831 4.831 0 0 1 .167-.662 8.06 8.06 0 0 1 .259-.672c.041-.1.075-.2.121-.293a5.837 5.837 0 0 1 .362-.609 6.486 6.486 0 0 1 .4-.518c.058-.07.115-.139.167-.213.023-.023.046-.059.069-.086a7.088 7.088 0 0 1 .742-.674 6.88 6.88 0 0 1 .839-.545c.046-.023.092-.035.132-.059s.069-.029.1-.045a5.813 5.813 0 0 1 .632-.283l.115-.045c.041-.012.069-.018.1-.029h.006l.017-.006.225-.068c.034-.012.075-.023.115-.035.058-.012.121-.023.178-.039.012 0 .029-.006.041-.006a.171.171 0 0 1 .046-.012c.023-.006.04-.006.063-.012a.8.8 0 0 1 .115-.023l.126-.023c.1-.012.2-.027.282-.039.017 0 .029-.006.046-.006h.046l.126-.018c.144-.012.288-.012.431-.018h.161c.144.006.288.006.431.018l.126.018h.046c.018 0 .029.006.046.006.086.012.178.027.282.039l.126.023a1 1 0 0 1 .115.023c.017.006.041.006.063.012a.175.175 0 0 1 .046.012c.011 0 .029.006.04.006.058.016.121.027.178.039.041.012.081.023.115.035.069.023.149.045.224.068l.017.006h.006c.035.012.063.018.1.029l.109.045a5.5 5.5 0 0 1 .638.283c.034.016.069.027.1.045s.086.035.126.059a6.565 6.565 0 0 1 .845.545c.126.1.247.2.368.311s.23.219.374.363c.023.027.046.063.069.086.052.074.109.143.167.213.08.092.149.2.224.293a1.661 1.661 0 0 1 .287-.172 1.87 1.87 0 0 1 .713-.145 1.823 1.823 0 0 1 1.311.553.349.349 0 0 1 .052.057l1.754 1.961a1.9 1.9 0 0 1 0 2.576l-1.754 1.971c-.017.018-.034.041-.052.059a1.829 1.829 0 0 1-1.311.551 1.853 1.853 0 0 1-.708-.143 2.909 2.909 0 0 1-.293-.168.588.588 0 0 1-.052.07c-.035.051-.063.1-.1.148l-.023.029c-.149.178-.3.357-.471.523-.086.086-.2.143-.288.225a4.593 4.593 0 0 1-.448.361 4.949 4.949 0 0 1-.466.311 6.685 6.685 0 0 1-.725.373c-.052.023-.1.059-.144.076a.144.144 0 0 1-.04.012 7.128 7.128 0 0 1-.518.184c-.046.012-.086.018-.126.029-.149.039-.3.08-.455.107-.086.018-.172.023-.258.041-.115.012-.225.035-.333.047-.2.016-.408.027-.615.027zm-2.07-8.715v5.369h1.558v-1.379h.667a2.364 2.364 0 0 0 1.978-.834 2.045 2.045 0 0 0 .391-1.26 2.253 2.253 0 0 0-.075-.574 2.131 2.131 0 0 0-2.294-1.508h-2.223zm5.606 2.592a.745.745 0 0 0 .742.748h1.426v1.248a.371.371 0 0 0 .109.246.424.424 0 0 0 .115.1.419.419 0 0 0 .144.029.367.367 0 0 0 .258-.109l1.771-1.994a.378.378 0 0 0 0-.529l-1.771-1.984a.367.367 0 0 0-.258-.109.419.419 0 0 0-.144.029.328.328 0 0 0-.126.109.35.35 0 0 0-.1.236v1.236h-1.426a.747.747 0 0 0-.744.744zm-14.225 4.629a2.6 2.6 0 0 1-2.622-2.57v-10.365a2.6 2.6 0 0 1 2.622-2.57h12.086a2.6 2.6 0 0 1 2.622 2.57v2.023l-.017.012a7.5 7.5 0 0 0-3.249-1.111.455.455 0 0 0-.437-.344h-9.924a.461.461 0 0 0-.46.459v.92a.462.462 0 0 0 .46.461h5.025a.325.325 0 0 1-.057.039c-.161.127-.311.248-.454.381s-.282.264-.449.441c-.081.088-.155.186-.23.277l-.063.08a6.638 6.638 0 0 0-.466.621h-3.306a.462.462 0 0 0-.46.465v.92a.462.462 0 0 0 .46.461h2.42a.336.336 0 0 1-.023.057 6.459 6.459 0 0 0-.2.8l-.034.186a4.657 4.657 0 0 0-.035.246l-.012.109-.005.057-.018.156-.017.225h-2.076a.461.461 0 0 0-.46.459v.92a.462.462 0 0 0 .46.461h2.237c.028.127.04.24.075.373a1.426 1.426 0 0 0 .069.225l.017.063c.058.2.126.391.2.582.046.1.092.213.138.316.081.178.172.355.27.527l.029.059c.041.068.075.137.115.2.023.039.046.074.063.109s.058.08.086.115c.115.178.242.361.391.551l.005.006-.017.023zm10.194-4.623v-1.391h.615c.581 0 .88.23.88.689 0 .58-.477.7-.88.7z" transform="translate(-4371.061 -22888.953)" style="fill:#3f37c9"/>
</svg>
