<svg id="ic_product_b_d7_24" xmlns="http://www.w3.org/2000/svg" width="24" height="24" viewBox="0 0 24 24">
  <defs>
    <style>
      .cls-1 {
        fill: #c1a691;
      }

      .cls-2 {
        fill: #fff;
      }
    </style>
  </defs>
  <path id="배경" class="cls-1" d="M8,0h8a8,8,0,0,1,8,8v8a8,8,0,0,1-8,8H8a8,8,0,0,1-8-8V8A8,8,0,0,1,8,0Z"/>
  <path id="패스_506" data-name="패스 506" class="cls-2" d="M-4.466,1.26H.91C3.472,1.26,4.984-.084,4.984-2.2a2.714,2.714,0,0,0-1.862-2.52,2.266,2.266,0,0,0,1.33-2.03c0-2.086-1.428-3.4-3.962-3.4H-4.466Zm2.548-6.79V-7.98h2.3c.966,0,1.526.434,1.526,1.232S1.344-5.53.378-5.53Zm0,4.62V-3.486H.8c1.008,0,1.638.448,1.638,1.288S1.806-.91.8-.91Z" transform="translate(12 16)"/>
</svg>
