<svg xmlns="http://www.w3.org/2000/svg" width="24" height="24" viewBox="0 0 24 24">
    <path style="fill:none" d="M0 0h24v24H0z"/>
    <path data-name="패스 574" d="M4438.379 22885.941h-.018c-.2 0-.408-.012-.609-.029a6.347 6.347 0 0 1-.333-.047c-.086-.012-.178-.021-.258-.039-.155-.029-.3-.07-.454-.109-.041-.012-.086-.018-.126-.029a5.53 5.53 0 0 1-.523-.184c-.011-.006-.023-.006-.034-.012a1.1 1.1 0 0 1-.144-.074 6.311 6.311 0 0 1-.724-.373c-.161-.1-.316-.2-.471-.311s-.3-.236-.448-.361c-.092-.08-.2-.145-.288-.23a7.432 7.432 0 0 1-.471-.518l-.023-.033c-.035-.047-.063-.1-.1-.145-.1-.131-.2-.264-.282-.4h-.011c-.012-.021-.023-.045-.035-.062-.052-.08-.092-.16-.138-.24-.075-.145-.149-.283-.218-.432a3.472 3.472 0 0 1-.109-.264 4.757 4.757 0 0 1-.167-.477c-.023-.076-.051-.15-.075-.23 0-.018-.005-.029-.005-.047a5.371 5.371 0 0 1-.138-.687 6.046 6.046 0 0 1-.057-.787c0-.086 0-.168.006-.248l.017-.229.017-.162a.647.647 0 0 1 .012-.1c.005-.086.023-.16.034-.24a.52.52 0 0 1 .017-.1 5.826 5.826 0 0 1 .167-.666 7.027 7.027 0 0 1 .258-.666c.04-.1.075-.2.121-.293a5.753 5.753 0 0 1 .362-.609 6.134 6.134 0 0 1 .4-.523l.172-.207c.023-.027.04-.057.063-.086.144-.148.258-.258.374-.367a4.853 4.853 0 0 1 .373-.311 6.7 6.7 0 0 1 .839-.545c.04-.023.086-.035.132-.057.029-.018.063-.029.1-.047a6.861 6.861 0 0 1 .638-.287l.115-.041.1-.027.011-.006h.012q.121-.035.224-.07c.04-.01.08-.021.115-.033.063-.012.121-.023.184-.041.012 0 .023-.006.041-.006a.133.133 0 0 1 .046-.012.371.371 0 0 0 .063-.016c.041-.006.075-.018.115-.023l.126-.018c.1-.018.2-.029.282-.041.017 0 .029-.006.046-.006h.046a1.015 1.015 0 0 0 .126-.012c.144-.012.287-.018.425-.018.023 0 .046-.006.075-.006h.023c.023 0 .046.006.069.006q.215 0 .431.018a.93.93 0 0 0 .126.012h.046c.017 0 .029.006.046.006.086.012.178.023.282.041l.126.018c.04.006.075.018.115.023a.27.27 0 0 0 .063.016.171.171 0 0 1 .046.012c.012 0 .029.006.041.006.057.018.121.029.178.041l.115.033.224.07h.018l.011.006a.7.7 0 0 0 .1.027l.115.041a6.7 6.7 0 0 1 .632.287c.035.018.069.029.1.047s.086.033.132.057a6.734 6.734 0 0 1 .838.545 4.769 4.769 0 0 1 .374.311c.115.109.229.219.367.367.023.029.046.059.069.086l.172.207a.614.614 0 0 1 .046.064 1.715 1.715 0 0 1 .522-.086h.913a10.053 10.053 0 0 1 3.36 3.4v.92a10 10 0 0 1-3.36 3.4h-.913a1.937 1.937 0 0 1-.511-.074l-.011.016a6.166 6.166 0 0 1-.465.518c-.092.086-.2.15-.287.23a6.074 6.074 0 0 1-.919.672 7.515 7.515 0 0 1-.724.373 1.6 1.6 0 0 1-.144.074.349.349 0 0 1-.04.012 4.9 4.9 0 0 1-.517.184c-.04.012-.086.018-.126.029-.149.039-.3.08-.454.109-.086.018-.172.027-.258.039a7.388 7.388 0 0 1-.333.047 7.03 7.03 0 0 1-.615.029zm-2.068-8.715v5.371h1.557v-1.385h.666a2.407 2.407 0 0 0 1.913-.758 2.014 2.014 0 0 0 .459-1.332 2.066 2.066 0 0 0-2.372-2.08h-2.223zm5.606 2.137v.92a.461.461 0 0 0 .459.459h.965v.977a.457.457 0 0 0 .454.465h.913a.461.461 0 0 0 .454-.465v-.977h.965a.461.461 0 0 0 .459-.459v-.92a.461.461 0 0 0-.459-.459h-.965v-.977a.461.461 0 0 0-.454-.465h-.913a.457.457 0 0 0-.454.465v.977h-.965a.461.461 0 0 0-.459.459zm-14.227 5.078a2.6 2.6 0 0 1-2.619-2.568v-10.361a2.6 2.6 0 0 1 2.619-2.572h12.084a2.6 2.6 0 0 1 2.619 2.572v2.018l-.012.016a7.539 7.539 0 0 0-3.25-1.113.451.451 0 0 0-.437-.34h-9.919a.463.463 0 0 0-.465.461v.918a.461.461 0 0 0 .465.459h5.02a.339.339 0 0 1-.052.041c-.167.121-.316.252-.459.379s-.276.264-.448.443c-.08.092-.161.184-.229.275l-.063.08a7.357 7.357 0 0 0-.471.625h-3.3a.463.463 0 0 0-.465.461v.918a.461.461 0 0 0 .465.459h2.418a.616.616 0 0 1-.023.059 6.635 6.635 0 0 0-.2.8 1.086 1.086 0 0 0-.034.189 2.743 2.743 0 0 0-.035.246l-.017.1-.006.057-.011.162-.018.223h-2.073a.463.463 0 0 0-.465.461v.918a.461.461 0 0 0 .465.459h2.234c.023.127.04.242.075.381.017.074.04.148.063.223l.023.059c.058.2.126.391.2.58a3.1 3.1 0 0 0 .138.32c.081.18.172.352.264.523l.035.063c.034.064.075.133.115.2.023.041.04.074.063.109a.845.845 0 0 0 .086.115 6.051 6.051 0 0 0 .391.545l.006.012-.023.018zm10.178-4.617v-1.391h.614q.862 0 .862.689c0 .58-.471.7-.862.7z" transform="translate(-4424.57 -22865.438)" style="fill:#3f37c9"/>
</svg>
