<svg xmlns="http://www.w3.org/2000/svg" width="32" height="32" viewBox="0 0 32 32">
    <path style="fill:none" d="M0 0h32v32H0z"/>
    <path data-name="패스 580" d="M5297.312 21519.2H5290a1 1 0 0 1 0-2h7.313a2.787 2.787 0 0 1 5.212 0H5308a1 1 0 0 1 0 2h-5.477a2.787 2.787 0 0 1-5.212 0zm1.6-1a1 1 0 1 0 1-1 1 1 0 0 0-.996 1zm-7.286-6.205H5290a1 1 0 1 1 0-2h1.631a2.791 2.791 0 0 1 5.217 0H5308a1 1 0 1 1 0 2h-11.153a2.788 2.788 0 0 1-5.217 0zm1.609-1a1 1 0 1 0 1-1 1 1 0 0 0-.996 1.005zm7.918-6.2H5290a1 1 0 1 1 0-2h11.159a2.787 2.787 0 0 1 5.212 0H5308a1 1 0 1 1 0 2h-1.631a2.785 2.785 0 0 1-5.212 0zm1.6-1a1 1 0 1 0 1-1 1 1 0 0 0-.992 1.005z" transform="translate(-5283 -21495)" style="fill:#3f37c9"/>
</svg>
