<svg id="img_join_bubble" xmlns="http://www.w3.org/2000/svg" width="281.001" height="30" viewBox="0 0 281.001 30">
  <defs>
    <style>
      .cls-1 {
        fill: #e6458e;
      }

      .cls-2 {
        fill: #fff;
      }
    </style>
  </defs>
  <path id="배경" class="cls-1" d="M9982-6084h14l-7,7Zm-142.5,0a11.5,11.5,0,0,1-11.5-11.5,11.5,11.5,0,0,1,11.5-11.5h258a11.5,11.5,0,0,1,11.5,11.5,11.5,11.5,0,0,1-11.5,11.5Z" transform="translate(-9827.999 6107)"/>
  <path id="패스_525" data-name="패스 525" class="cls-2" d="M-260.124-7.764h6.54v-.792h-2.772V-9.864h-.984v1.308h-2.784ZM-251.64.888V-9.864h-.984V.888Zm-4.716-2.952V-3.192c1.3-.156,2.088-.9,2.088-1.968,0-1.212-1.044-1.992-2.58-1.992s-2.592.78-2.592,1.992c0,1.1.8,1.824,2.1,1.98v1.152c-1.068.036-2.1.048-3.012.048l.144.828a45.4,45.4,0,0,0,6.972-.432l-.072-.732C-254.316-2.184-255.336-2.112-256.356-2.064Zm-2.148-3.1c0-.768.648-1.236,1.656-1.236.972,0,1.644.468,1.644,1.236s-.672,1.224-1.644,1.224C-257.856-3.936-258.5-4.392-258.5-5.16Zm16.956-4.716v6.36h-2.184v.732h2.184v1.1h.984v-8.2Zm-4.38,4.188c1.572,0,2.652-.732,2.652-1.884,0-1.128-1.08-1.872-2.652-1.872s-2.652.744-2.652,1.872C-248.58-6.42-247.5-5.688-245.928-5.688Zm0-3.024c1.02,0,1.716.456,1.716,1.14,0,.72-.7,1.152-1.716,1.152s-1.716-.432-1.716-1.152C-247.644-8.256-246.948-8.712-245.928-8.712Zm-.384,4.572v2.076h.984V-4.188c.972-.06,1.956-.168,2.916-.312l-.084-.708a58.47,58.47,0,0,1-6.936.312l.132.816C-248.388-4.08-247.38-4.092-246.312-4.14Zm6.024,4.788v-.8h-6.624V-2.484h-.984V.648Zm10.236-5.34h1.728v-.816h-1.728V-9.876h-.984V.888h.984Zm-2.784-4.032h-4.92v.816h3.948c-.228,2.592-1.656,4.584-4.452,5.988l.54.768A8.08,8.08,0,0,0-232.836-8.724Zm14.376,4.632V-9.864h-.984v5.772Zm-5.784-5.268a2.536,2.536,0,0,0-2.8,2.472,2.538,2.538,0,0,0,2.8,2.484,2.553,2.553,0,0,0,2.82-2.484A2.551,2.551,0,0,0-224.244-9.36Zm0,.816a1.693,1.693,0,0,1,1.86,1.656,1.676,1.676,0,0,1-1.86,1.668,1.681,1.681,0,0,1-1.836-1.668A1.686,1.686,0,0,1-224.244-8.544Zm-.18,6.3v-1.32h-.972V.744h6.936V-3.564h-.972v1.32Zm4.992,2.2h-4.992V-1.476h4.992Zm11.988.96V-9.876h-.984V.912Zm-4.992-7.92V-8.94h-.972v1.932a5.664,5.664,0,0,1-2.892,4.86l.6.8a5.981,5.981,0,0,0,2.784-3.612,5.76,5.76,0,0,0,2.772,3.408l.588-.792A5.362,5.362,0,0,1-212.436-7.008Zm11.148,1.92h7.272V-9.276h-7.272Zm.96-3.4h5.34v2.616h-5.34Zm3.144,5.664h4.416v-.8h-9.768v.8h4.368v3.7h.984Zm15.468,2.376v-.8h-2.64v-2.04h1.68v-.8H-189.3V-5.82h6.372V-9.084H-190.3v.8h6.408v1.668h-6.384v3.324h1.512v2.04H-191.5v.8Zm-3.612-.8h-2.46v-2.04h2.46ZM-168-.456v-.8h-4.4V-3.732h3.468v-.792h-1.644V-8.052h1.668v-.792h-7.98v.792h1.668v3.528h-1.644v.792h3.468V-1.26h-4.356v.8Zm-3.564-4.068h-2.676V-8.052h2.676Zm12.7,2.52h.984v-7.86h-.984Zm-1.98-4.476a2.655,2.655,0,0,0-2.82-2.64,2.635,2.635,0,0,0-2.8,2.64,2.647,2.647,0,0,0,2.8,2.664A2.667,2.667,0,0,0-160.848-6.48Zm-4.656,0a1.753,1.753,0,0,1,1.836-1.788,1.766,1.766,0,0,1,1.86,1.788,1.771,1.771,0,0,1-1.86,1.812A1.758,1.758,0,0,1-165.5-6.48ZM-157.56.648v-.8h-6.264V-2.808h-.984V.648Zm3.132-3.924h7.392v-.792h-6.4v-1.7h6.048v-.78h-6.048v-1.6h6.288V-8.94h-7.284ZM-145.92-.5v-.8h-9.768v.8Zm4.188-5.928,1.092.18A1.687,1.687,0,0,1-138.9-7.98a1.407,1.407,0,0,1,1.572,1.5c0,.912-.552,1.548-2.1,1.584V-4.1c1.884,0,2.28.7,2.28,1.644A1.725,1.725,0,0,1-139.02-.792a1.9,1.9,0,0,1-1.824-1.236,2.789,2.789,0,0,1-.18-.54l-.984.408a2.835,2.835,0,0,0,3,2.316,2.728,2.728,0,0,0,2.976-2.64,2.058,2.058,0,0,0-1.752-2.124,1.977,1.977,0,0,0,1.548-2.052,2.355,2.355,0,0,0-2.6-2.28A2.777,2.777,0,0,0-141.732-6.432Zm8.064,4.908h-1.092L-135.192.9h.792Zm7.332-2.856c0-3.132-1.416-4.56-3.228-4.56s-3.228,1.428-3.228,4.56,1.4,4.548,3.228,4.548S-126.336-1.26-126.336-4.38Zm-1.1,0c0,2.736-1.008,3.66-2.124,3.66s-2.112-.924-2.112-3.66,1-3.66,2.112-3.66S-127.44-7.128-127.44-4.38Zm8.256,0c0-3.132-1.416-4.56-3.228-4.56s-3.228,1.428-3.228,4.56,1.4,4.548,3.228,4.548S-119.184-1.26-119.184-4.38Zm-1.1,0c0,2.736-1.008,3.66-2.124,3.66s-2.112-.924-2.112-3.66,1-3.66,2.112-3.66S-120.288-7.128-120.288-4.38Zm8.256,0c0-3.132-1.416-4.56-3.228-4.56s-3.228,1.428-3.228,4.56,1.4,4.548,3.228,4.548S-112.032-1.26-112.032-4.38Zm-1.1,0c0,2.736-1.008,3.66-2.124,3.66s-2.112-.924-2.112-3.66,1-3.66,2.112-3.66S-113.136-7.128-113.136-4.38Zm7.824-4.416h-2.508V0h1.116V-3.492h1.452c1.92,0,3.24-.852,3.24-2.724C-102.012-8.136-103.344-8.8-105.312-8.8Zm-.084,4.4H-106.7V-7.9h1.26c1.548,0,2.328.42,2.328,1.68S-103.848-4.392-105.4-4.392ZM-89.3.888V-9.864h-.984V.888Zm-4.968-7.476V-7.956h2.532v-.816h-6.012v.816h2.5v1.368a5.521,5.521,0,0,1-2.856,4.62l.576.792a6.045,6.045,0,0,0,2.772-3.552,5.686,5.686,0,0,0,2.82,3.288l.552-.792A5.012,5.012,0,0,1-94.272-6.588ZM-77.3-4.68v-.8h-1.548a13.49,13.49,0,0,0,.288-3.12v-.78h-7.272v.8h6.3a12.787,12.787,0,0,1-.3,3.1h-7.248v.8Zm-1.272.972h-.972v1.416H-84.84V-3.708h-.972V.744h7.236ZM-84.84-1.524h5.292V-.048H-84.84ZM-74.388-7.74l.036-1.248h-1.116l.036,1.248.144,5.592h.756Zm-1.068,7.9h1.092V-.972h-1.092Zm5.172,1.56.684-.324A10.892,10.892,0,0,1-71.136-4.38,10.892,10.892,0,0,1-69.6-10.152l-.684-.312A11.207,11.207,0,0,0-72.048-4.38,11.218,11.218,0,0,0-70.284,1.716Zm10.1-6.408H-58.4v-.816H-60.18V-9.864h-.984V.888h.984Zm-4.668-2.316V-8.94h-.972v1.932A5.719,5.719,0,0,1-68.592-2.2L-68-1.4a5.961,5.961,0,0,0,2.676-3.564,5.8,5.8,0,0,0,2.6,3.348l.612-.78A5.493,5.493,0,0,1-64.848-7.008Zm17.16,3.252v-.792h-2.4V-6.072A1.776,1.776,0,0,0-48.78-7.68c0-1.248-1.44-2-3.78-2s-3.78.756-3.78,2a1.741,1.741,0,0,0,1.32,1.62v1.512h-2.412v.792ZM-55.332-7.68c0-.78,1.032-1.236,2.772-1.236s2.772.456,2.772,1.236S-50.82-6.444-52.56-6.444-55.332-6.912-55.332-7.68Zm4.272,3.132h-2.988v-1.26a8.124,8.124,0,0,0,1.488.12,7.823,7.823,0,0,0,1.5-.12Zm-1.5,1.6c-2.3,0-3.684.684-3.684,1.92S-54.864.876-52.56.876-48.876.2-48.876-1.032-50.244-2.952-52.56-2.952Zm0,3.072c-1.692,0-2.688-.42-2.688-1.152s1-1.152,2.688-1.152,2.688.42,2.688,1.152S-50.868.12-52.56.12Zm15.012.768V-9.876h-.984V.888Zm-3.156-9.6h-5.04v.792H-41.7c-.2,2.556-1.644,4.62-4.536,6l.528.8C-42.12-2.88-40.7-5.6-40.7-8.712Zm5.4.948h6.348v-.792h-2.688V-9.864h-.984v1.308H-35.3ZM-25.392-5.5v-.828h-1.6v-3.54h-.984V-1.8h.984V-5.5Zm-4.164.324c0-1.2-1.044-1.992-2.58-1.992S-34.7-6.372-34.7-5.172s1.044,2,2.568,2S-29.556-3.96-29.556-5.172Zm-4.212,0c0-.768.624-1.224,1.632-1.224.972,0,1.644.456,1.644,1.224s-.672,1.236-1.644,1.236C-33.144-3.936-33.768-4.4-33.768-5.172Zm7.26,5.016H-32.7v-2.28h-.984V.648h7.176Zm10.872-7.932V-8.8H-21.42v.936h4.6l-.408.672L-20.82,0h1.212Zm9.024,3.732h.984v-5.52h-.984Zm-2.04-2.736a2.514,2.514,0,0,0-2.784-2.4,2.5,2.5,0,0,0-2.772,2.4,2.5,2.5,0,0,0,2.772,2.376A2.511,2.511,0,0,0-8.652-7.092Zm-4.608,0a1.672,1.672,0,0,1,1.824-1.6,1.665,1.665,0,0,1,1.824,1.6,1.664,1.664,0,0,1-1.824,1.584A1.671,1.671,0,0,1-13.26-7.092ZM-5.268.744v-.78H-11.6V-1.224h5.976v-2.6H-12.6v.78h6v1.092h-5.976v2.7Zm1.728.576.672.324a11.125,11.125,0,0,0,1.776-6.1,11.115,11.115,0,0,0-1.776-6.084l-.672.312A10.892,10.892,0,0,1-2-4.452,10.892,10.892,0,0,1-3.54,1.32Z" transform="translate(271.001 16)"/>
</svg>
