<svg id="thum_facebook_72" xmlns="http://www.w3.org/2000/svg" width="72" height="72.001" viewBox="0 0 72 72.001">
  <defs>
    <style>
      .cls-1 {
        fill: none;
      }

      .cls-2 {
        fill: #4676ed;
      }

      .cls-3 {
        fill: #fff;
      }
    </style>
  </defs>
  <rect id="영역" class="cls-1" width="72" height="72"/>
  <path id="패스_553" data-name="패스 553" class="cls-2" d="M408.849,1365.739a36,36,0,1,0-41.625,35.563v-25.156h-9.14v-10.407h9.14v-7.931c0-9.022,5.375-14.006,13.6-14.006a55.376,55.376,0,0,1,8.059.7v8.859h-4.54c-4.472,0-5.867,2.775-5.867,5.622v6.753h9.985l-1.6,10.407h-8.389V1401.3A36.009,36.009,0,0,0,408.849,1365.739Z" transform="translate(-336.849 -1329.738)"/>
  <path id="패스_554" data-name="패스 554" class="cls-3" d="M386.863,1376.146l1.6-10.407h-9.985v-6.753c0-2.847,1.395-5.622,5.867-5.622h4.54v-8.859a55.376,55.376,0,0,0-8.059-.7c-8.223,0-13.6,4.984-13.6,14.006v7.931h-9.14v10.407h9.14V1401.3a36.42,36.42,0,0,0,11.25,0v-25.156Z" transform="translate(-336.849 -1329.738)"/>
</svg>
