<svg id="ic_Inquiry_purple_40" xmlns="http://www.w3.org/2000/svg" width="40" height="40" viewBox="0 0 40 40">
  <defs>
    <style>
      .cls-1 {
        fill: none;
      }

      .cls-2 {
        fill: #3f37c9;
      }
    </style>
  </defs>
  <rect id="영역" class="cls-1" width="40" height="40"/>
  <path id="패스_426" data-name="패스 426" class="cls-2" d="M-437.478,717.074h0l-2.093-7.812c.047-.1.08-.2.125-.292q.24-.507.441-1.034c.049-.127.1-.253.14-.381.139-.4.259-.8.365-1.214.024-.1.052-.192.074-.289.1-.449.187-.906.25-1.369.009-.068.022-.134.031-.2a14.687,14.687,0,0,0,.107-1.565c0-.011,0-.022,0-.034v-.006c0-.061.009-.12.009-.18a14.669,14.669,0,0,0-.751-4.619c-.032-.1-.071-.189-.1-.284-.136-.385-.283-.763-.45-1.132-.029-.064-.048-.131-.077-.2a.593.593,0,0,0-.048-.064,14.6,14.6,0,0,0-1.288-2.206.5.5,0,0,0-.024-.053c-.12-.168-.253-.325-.38-.487-.1-.134-.2-.271-.313-.4-.224-.267-.46-.522-.7-.772a14.784,14.784,0,0,0-2.275-1.931l-.011-.011-.023-.014c-.158-.108-.327-.2-.49-.3-.217-.135-.433-.275-.657-.4-.2-.111-.411-.209-.618-.311s-.389-.2-.588-.283c-.22-.1-.445-.181-.67-.267-.2-.076-.4-.152-.6-.219-.224-.075-.451-.141-.68-.205s-.434-.117-.654-.168-.437-.1-.659-.137c-.251-.046-.5-.082-.757-.115-.2-.026-.392-.053-.591-.07-.312-.028-.625-.04-.939-.048-.123,0-.243-.018-.366-.018-.032,0-.062,0-.093,0q-.651,0-1.3.066c-.13.013-.258.033-.386.048-.356.044-.711.093-1.061.162-.226.044-.446.1-.668.159s-.437.1-.651.168c-.237.069-.467.151-.7.232-.2.068-.391.137-.584.214-.227.09-.448.188-.669.289q-.289.132-.573.276c-.208.107-.413.217-.615.333s-.389.231-.581.352-.367.235-.545.36c-.2.141-.4.29-.59.441-.16.124-.32.246-.474.376-.2.17-.394.351-.586.532-.137.129-.277.253-.408.387-.03.03-.063.057-.093.087-.167.174-.319.359-.477.539-.113.13-.232.253-.341.386-.207.254-.4.518-.586.784-.156.219-.305.443-.449.671-.157.248-.315.495-.456.751-.117.211-.217.431-.323.648-.09.186-.186.368-.268.557-.1.227-.184.459-.272.691-.073.192-.147.383-.212.578-.075.229-.141.461-.205.7-.059.212-.116.425-.165.64s-.1.445-.136.67c-.044.245-.081.492-.113.74-.026.2-.051.406-.068.611-.008.089-.024.176-.03.265-.014.208-.01.415-.015.622,0,.127-.019.251-.019.379,0,.045.006.089.006.134,0,.353.025.7.054,1.053.009.121.01.245.023.365.047.446.115.89.2,1.329.042.213.1.42.153.63.056.23.109.46.177.687s.15.455.229.68c.071.2.141.4.221.6.089.222.187.438.286.653.091.2.184.4.284.591s.214.4.328.6.237.4.363.6c.115.179.232.357.354.531.057.081.105.166.164.245.091.125.194.239.289.361.121.154.241.308.367.458.178.208.363.407.551.6.121.128.24.259.367.382.209.206.428.4.649.59.121.106.237.216.361.317.25.2.511.391.773.578.108.077.211.161.321.235q.551.369,1.134.688c.167.092.343.169.514.254.231.115.46.233.7.335.2.089.416.163.625.243s.431.166.651.238.431.128.648.188c.125.034.248.074.374.108h0l.078.023c.081.019.163.029.243.048.206.046.413.084.622.122.265.047.53.088.795.121.185.023.37.043.557.059.31.027.619.04.93.047.108,0,.214.017.323.017.05,0,.1-.007.149-.008.351,0,.7-.024,1.052-.053.122-.01.247-.013.369-.026.454-.048.9-.115,1.353-.206.161-.032.316-.08.475-.118.283-.067.566-.133.845-.217.212-.064.418-.142.626-.215s.442-.153.66-.241.413-.18.617-.275c.139-.063.281-.117.418-.185l7.813,2.093a.739.739,0,0,0,.187.025.721.721,0,0,0,.572-.283A.72.72,0,0,0-437.478,717.074Zm-24.585-16.005a2.691,2.691,0,0,1,1.9-.788,2.688,2.688,0,0,1,1.9.787,2.688,2.688,0,0,1,.787,1.9,2.692,2.692,0,0,1-.787,1.9,2.691,2.691,0,0,1-1.9.786,2.691,2.691,0,0,1-1.9-.786,2.692,2.692,0,0,1-.787-1.9h0A2.691,2.691,0,0,1-462.063,701.069Zm11.181,3.8a2.689,2.689,0,0,1-1.9.786,2.689,2.689,0,0,1-1.9-.786,2.688,2.688,0,0,1-.787-1.9h0a2.687,2.687,0,0,1,.788-1.9,2.689,2.689,0,0,1,1.9-.788,2.686,2.686,0,0,1,1.9.787,2.684,2.684,0,0,1,.787,1.9A2.688,2.688,0,0,1-450.882,704.867Zm7.384,0a2.686,2.686,0,0,1-1.9.787,2.686,2.686,0,0,1-1.9-.787,2.684,2.684,0,0,1-.787-1.9,2.683,2.683,0,0,1,.786-1.9,2.687,2.687,0,0,1,1.9-.788h0a2.691,2.691,0,0,1,1.9.788,2.691,2.691,0,0,1,.788,1.9A2.686,2.686,0,0,1-443.5,704.866Z" transform="translate(472.453 -682.984)"/>
</svg>
