<svg xmlns="http://www.w3.org/2000/svg" width="32" height="32" viewBox="0 0 32 32">
    <path style="fill:none" d="M0 0h32v32H0z"/>
    <path data-name="패스 343" d="M-285.7 1030.962a.4.4 0 0 0-.4-.367h-3l.607-2.98a.624.624 0 0 0-.122-.531.574.574 0 0 0-.485-.244h-2.671a.61.61 0 0 0-.606.489l-.648 3.225h-4.491l.607-2.98a.622.622 0 0 0-.122-.53.575.575 0 0 0-.485-.245h-2.67a.61.61 0 0 0-.607.49l-.647 3.224h-3.237a.61.61 0 0 0-.607.49l-.567 2.734a.623.623 0 0 0 .122.531.575.575 0 0 0 .485.245h2.994l-.93 4.612h-3.237a.61.61 0 0 0-.607.49l-.526 2.612a.627.627 0 0 0 .121.531.578.578 0 0 0 .486.245h2.994l-.607 2.979a.626.626 0 0 0 .121.531.578.578 0 0 0 .486.245h2.67a.61.61 0 0 0 .607-.49l.648-3.224h4.491l-.607 2.979a.622.622 0 0 0 .121.531.576.576 0 0 0 .486.245h2.629a.611.611 0 0 0 .607-.49l.648-3.224h3.236a.611.611 0 0 0 .607-.49l.526-2.612a.622.622 0 0 0-.121-.531.575.575 0 0 0-.486-.245h-2.994l.931-4.612h3.237a.612.612 0 0 0 .607-.49l.526-2.612a.624.624 0 0 0-.12-.531zm-9.062 8.163h-4.492l.931-4.612h4.491z" transform="translate(312.56 -1020.799)" style="fill:#3f37c9"/>
</svg>
