<svg id="ic_payment_keyword_color_40" xmlns="http://www.w3.org/2000/svg" xmlns:xlink="http://www.w3.org/1999/xlink" width="40" height="40" viewBox="0 0 40 40">
  <defs>
    <style>
      .cls-1 {
        fill: none;
      }

      .cls-2 {
        fill: url(#linear-gradient);
      }
    </style>
    <linearGradient id="linear-gradient" x1="0.025" y1="0.982" x2="0.974" y2="0.034" gradientUnits="objectBoundingBox">
      <stop offset="0" stop-color="#4db3ff"/>
      <stop offset="0.5" stop-color="#cc52c2"/>
      <stop offset="1" stop-color="#f2557a"/>
    </linearGradient>
  </defs>
  <rect id="영역" class="cls-1" width="40" height="40"/>
  <path id="패스_379" data-name="패스 379" class="cls-2" d="M-416.852,822.178v21.467a1.887,1.887,0,0,1-1.115,1.731,1.877,1.877,0,0,1-.8.18,1.9,1.9,0,0,1-1.237-.462l-9.85-5.844-9.85,5.844a1.915,1.915,0,0,1-1.237.462,1.884,1.884,0,0,1-.8-.18,1.883,1.883,0,0,1-1.109-1.731V822.178a2.621,2.621,0,0,1,2.622-2.622h20.751A2.625,2.625,0,0,1-416.852,822.178Z" transform="translate(449.852 -812.556)"/>
</svg>
