<svg xmlns="http://www.w3.org/2000/svg" width="24" height="24" viewBox="0 0 24 24">
    <path style="fill:none" d="M0 0h24v24H0z"/>
    <path data-name="패스 237" d="M-264.283 1450.42a8.009 8.009 0 0 1 8 8 8.009 8.009 0 0 1-8 8 8.009 8.009 0 0 1-8-8 8.009 8.009 0 0 1 8-8m0-2a10 10 0 0 0-10 10 10 10 0 0 0 10 10 10 10 0 0 0 10-10 10 10 0 0 0-10-10z" transform="translate(276.283 -1446.42)" style="fill:#3f37c9"/>
    <path data-name="패스 238" d="m-267.352 1459.489-.389 2.4a1.009 1.009 0 0 0 .41.98 1.013 1.013 0 0 0 1.059.06l1.989-1.1 1.989 1.1a1.033 1.033 0 0 0 .48.12 1.013 1.013 0 0 0 .579-.18 1.009 1.009 0 0 0 .41-.98l-.389-2.4 1.649-1.69a.989.989 0 0 0 .23-1.01.986.986 0 0 0-.8-.67l-2.239-.34-1-2.149a1 1 0 0 0-.91-.581 1 1 0 0 0-.91.58l-1 2.15-2.239.34a.986.986 0 0 0-.8.67.991.991 0 0 0 .23 1.01z" transform="translate(276.283 -1446.42)" style="fill:#3f37c9"/>
</svg>
