<svg xmlns="http://www.w3.org/2000/svg" width="32" height="32" viewBox="0 0 32 32">
    <path d="M8 0h16a8 8 0 0 1 8 8v16a8 8 0 0 1-8 8H8a8 8 0 0 1-8-8V8a8 8 0 0 1 8-8z" style="fill:#faf2dc"/>
    <path data-name="패스 252" d="m-332.607 1542.261-.78 4.8a2.018 2.018 0 0 0 .82 1.96 2.027 2.027 0 0 0 2.119.12l3.978-2.2 3.978 2.2a2.067 2.067 0 0 0 .959.24 2.037 2.037 0 0 0 1.16-.36 2.016 2.016 0 0 0 .819-1.959l-.779-4.8 3.3-3.379a1.978 1.978 0 0 0 .46-2.02 1.971 1.971 0 0 0-1.6-1.34l-4.478-.68-2-4.3a2 2 0 0 0-1.819-1.16 2 2 0 0 0-1.819 1.159l-2 4.3-4.478.68a1.971 1.971 0 0 0-1.6 1.34 1.978 1.978 0 0 0 .459 2.019z" transform="translate(342.47 -1523.383)" style="fill:#f7ad00"/>
</svg>
