<svg id="ic_setting_purple_40" xmlns="http://www.w3.org/2000/svg" width="40" height="40" viewBox="0 0 40 40">
  <defs>
    <style>
      .cls-1 {
        fill: none;
      }

      .cls-2 {
        fill: #3f37c9;
      }
    </style>
  </defs>
  <rect id="영역" class="cls-1" width="40" height="40"/>
  <path id="패스_420" data-name="패스 420" class="cls-2" d="M-279.19,743.643l0,0C-279.224,743.669-279.233,743.675-279.19,743.643Z" transform="translate(302.646 -719.162)"/>
  <path id="패스_421" data-name="패스 421" class="cls-2" d="M-278.16,735.713l0,0C-278.133,735.747-278.127,735.756-278.16,735.713Z" transform="translate(302.646 -719.162)"/>
  <path id="패스_422" data-name="패스 422" class="cls-2" d="M-286.122,734.69h0C-286.088,734.664-286.08,734.658-286.122,734.69Z" transform="translate(302.646 -719.162)"/>
  <path id="패스_423" data-name="패스 423" class="cls-2" d="M-270.544,740.386l-.194-.166v-2.274q1.188-.858,2.377-1.716c.131-.092.258-.187.388-.279a.645.645,0,0,0,.293-.716q-.707-1.672-1.408-3.346l-.2-.475a.668.668,0,0,0-.782-.443l-3.226.446-.068.01-1.489-1.432v-3.8a.66.66,0,0,0-.467-.611q-1.473-.589-2.947-1.175l-.419-.168a.625.625,0,0,0-.62.161l-2.19,2.554-.149.174h-1.863q-.984-1.2-1.971-2.408c-.1-.123-.2-.244-.3-.367a.617.617,0,0,0-.62-.162q-1.612.638-3.23,1.277l-.46.18a.663.663,0,0,0-.468.612V730l-1.549,1.449q-1.488-.111-2.977-.218c-.152-.012-.3-.022-.457-.035a.654.654,0,0,0-.614.466q-.643,1.569-1.284,3.137c-.06.148-.121.294-.181.443a.613.613,0,0,0,.162.618l2.571,2.069.172.139v2.228q-1.165,1.034-2.333,2.065l-.356.313a.6.6,0,0,0-.162.618q.6,1.44,1.2,2.883c.057.133.111.269.168.4a.664.664,0,0,0,.614.466h3.849l1.169,1.434q-.152,1.464-.3,2.928c-.016.149-.032.295-.045.444a.649.649,0,0,0,.467.611l3.551,1.464.508.209a.644.644,0,0,0,.719-.292q.929-1.263,1.856-2.531l.035-.047h2.435q.888,1.133,1.776,2.268l.27.345a.61.61,0,0,0,.62.162c1.116-.456,2.228-.916,3.344-1.372l.477-.2c.235-.1.5-.317.467-.612-.134-1.07-.264-2.138-.4-3.209l-.029-.23,1.374-1.379h3.743a.66.66,0,0,0,.614-.466q.6-1.44,1.195-2.883c.057-.133.111-.269.168-.4a.612.612,0,0,0-.162-.618Zm-12.86,4.375-.025,0c-.031-.006-.063-.009-.087-.013a6.407,6.407,0,0,1-.937-.228c-.134-.044-.267-.1-.4-.146l-.015,0-.1-.045c-.076-.035-.153-.073-.226-.111a6.412,6.412,0,0,1-.785-.476c-.041-.028-.14-.076-.168-.123.022.016.041.032.063.047-.022-.015-.044-.034-.067-.05s-.063-.051-.1-.079c-.117-.1-.229-.2-.34-.3s-.216-.215-.318-.329c-.047-.051-.092-.105-.136-.155-.026-.032-.054-.064-.08-.095l-.038-.048c-.029-.038-.016-.022.035.048-.057-.035-.108-.146-.146-.2s-.08-.114-.118-.171c-.083-.127-.162-.26-.238-.393s-.143-.272-.21-.412c-.014-.028-.026-.056-.038-.084l0,.005,0-.009-.012-.026c-.028-.061-.019-.04-.006-.011a1.673,1.673,0,0,1-.077-.21,6.184,6.184,0,0,1-.257-.922c-.013-.07-.025-.143-.038-.213-.005-.024-.009-.057-.013-.089v0c-.019-.175-.035-.349-.041-.526a6.537,6.537,0,0,1,.041-.97c0-.005,0,0,0-.006,0-.027.009-.055.012-.082.013-.086.028-.172.048-.254.031-.155.069-.307.111-.456s.092-.3.143-.444c.025-.066.051-.129.076-.2l0-.015c.015-.034.032-.068.046-.1a5.927,5.927,0,0,1,.445-.8c.044-.069.092-.139.14-.206a.621.621,0,0,1,.124-.168c-.016.023-.032.042-.048.064l.051-.067a.542.542,0,0,1,.054-.063c.06-.076.124-.149.191-.219a6.128,6.128,0,0,1,.661-.627l.063-.054c.009-.009.021-.015.03-.024l-.027.021c.029-.048.121-.089.169-.124.137-.1.276-.186.419-.272.128-.076.255-.146.385-.212.07-.035.137-.07.207-.1.031-.015.063-.028.1-.044l.014-.006.008,0a6.681,6.681,0,0,1,.89-.286c.153-.038.309-.066.464-.091l.083-.013h.006c.086-.01.175-.019.264-.025a6.046,6.046,0,0,1,1,0c.08.006.159.016.242.022h.013l.079.012c.172.028.34.06.508.1.137.035.277.073.41.117.074.022.147.048.223.076a1.672,1.672,0,0,1,.221.082h0l.02.008.015.008,0,0,.082.036c.063.029.127.061.191.092.149.076.295.155.438.244.124.076.248.155.366.241a.9.9,0,0,1,.167.121l0,.006c.038.031.077.06.112.092a6.25,6.25,0,0,1,.658.633c.05.057.1.114.149.171.022.026.044.054.067.079.008.009.015.02.023.029l-.02-.025c.044.025.092.126.124.168.047.066.1.136.14.2a6.517,6.517,0,0,1,.454.821c.014.028.026.056.039.083l.006.015c.025.067.051.13.076.2.057.158.111.32.156.484.038.136.07.276.1.415.016.086.032.168.048.254,0,.028.009.057.013.085.009.07.009.057-.007-.038l.01.086a6.707,6.707,0,0,1,.035.972c-.007.156-.019.308-.035.46v0a.958.958,0,0,1-.016.109c-.013.085-.029.171-.048.253a6.136,6.136,0,0,1-.257.9c-.024.069-.054.135-.078.2-.016.036-.034.073-.049.11-.064.139-.134.275-.21.411s-.153.263-.239.393c-.038.057-.076.114-.117.171-.026.035-.048.067-.073.1-.01.016-.115.155-.051.069s-.019.026-.029.035c-.025.032-.051.064-.079.1-.045.054-.089.1-.137.155-.111.124-.226.244-.346.358-.1.1-.2.187-.309.276-.031.025-.063.054-.1.079-.009.009-.02.015-.029.023l.026-.02c-.032.057-.15.111-.2.146a6.329,6.329,0,0,1-.789.469c-.063.032-.127.06-.19.092-.035.017-.07.032-.105.046l-.013.005c-.146.057-.289.11-.439.158a6.5,6.5,0,0,1-.918.219.809.809,0,0,1-.108.015h-.007c-.079.01-.159.016-.241.023-.153.006-.318.012-.48.012h0c-.162,0-.327-.006-.49-.019l-.219-.019Z" transform="translate(302.646 -719.162)"/>
</svg>
