<svg id="ic_visible_gray_32" xmlns="http://www.w3.org/2000/svg" width="32" height="32" viewBox="0 0 32 32">
  <defs>
    <style>
      .cls-1 {
        fill: none;
      }

      .cls-2 {
        fill: #b8b6c4;
      }
    </style>
  </defs>
  <rect id="영역" class="cls-1" width="32" height="32"/>
  <path id="패스_390" data-name="패스 390" class="cls-2" d="M-36.331,1051.883a4.861,4.861,0,0,0-4.809,4.9,4.862,4.862,0,0,0,4.809,4.9,4.862,4.862,0,0,0,4.809-4.9A4.861,4.861,0,0,0-36.331,1051.883Zm0,7.949a3.025,3.025,0,0,1-2.993-3.05,3.024,3.024,0,0,1,2.993-3.049,3.025,3.025,0,0,1,2.993,3.049A3.025,3.025,0,0,1-36.331,1059.832Z" transform="translate(52.331 -1041.281)"/>
  <path id="패스_391" data-name="패스 391" class="cls-2" d="M-25.363,1056.539c-.023-.082-2.315-8.257-10.968-8.257s-10.946,8.175-10.968,8.257a.939.939,0,0,0,0,.488c.022.082,2.315,8.255,10.968,8.255s10.945-8.173,10.968-8.255A.961.961,0,0,0-25.363,1056.539Zm-10.968,6.893a9.5,9.5,0,0,1-9.142-6.649,9.5,9.5,0,0,1,9.142-6.651,9.5,9.5,0,0,1,9.141,6.651A9.5,9.5,0,0,1-36.331,1063.432Z" transform="translate(52.331 -1041.281)"/>
</svg>
