<svg xmlns="http://www.w3.org/2000/svg" width="22" height="22" viewBox="0 0 22 22">
    <defs>
        <linearGradient id="a" x1="50%" x2="50%" y1="-54.34%" y2="230.93%">
            <stop offset="0%" stop-color="#CECECE"/>
            <stop offset="100%" stop-color="#C0C0C0"/>
        </linearGradient>
        <linearGradient id="b" x1="50%" x2="50%" y1="-32.853%" y2="695.089%">
            <stop offset="0%" stop-color="#CECECE"/>
            <stop offset="100%" stop-color="#C0C0C0"/>
        </linearGradient>
        <linearGradient id="c" x1="50%" x2="50%" y1="-105.924%" y2="92.428%">
            <stop offset="0%" stop-color="#CECECE"/>
            <stop offset="100%" stop-color="#C0C0C0"/>
        </linearGradient>
    </defs>
    <g fill="none" fill-rule="evenodd">
        <path stroke="url(#a)" stroke-width="2" d="M9.943 8.193c0 1.448-1.113 2.621-2.486 2.621-1.372 0-2.486-1.173-2.486-2.62l.48-5.032M14.913 8.193c0 1.448-1.112 2.621-2.486 2.621-1.372 0-2.484-1.173-2.484-2.62l.158-5.032" transform="translate(1 1)"/>
        <path stroke="url(#b)" stroke-width="2" d="M.973 3h17.879V0H.973z" transform="translate(1 1)"/>
        <path stroke="url(#a)" stroke-width="2" d="M14.426 3.193l.473 5c0 1.447 1.102 2.622 2.462 2.622 1.361 0 2.464-1.175 2.464-2.621L18.83 3.07" transform="translate(1 1)"/>
        <path stroke="url(#c)" stroke-width="2" d="M18 10.714V21M2 11v10" transform="translate(1 1)"/>
        <path stroke="url(#c)" d="M9 10v11" transform="translate(1 1)"/>
        <path stroke="url(#a)" stroke-width="2" d="M1.005 3.07L0 8.193c0 1.448 1.113 2.62 2.486 2.62 1.373 0 2.485-1.172 2.485-2.62" transform="translate(1 1)"/>
        <path stroke="url(#c)" d="M6.25 13.915v1.933" transform="translate(1 1)"/>
    </g>
</svg>
