<svg xmlns="http://www.w3.org/2000/svg" width="552" height="248" viewBox="0 0 552 248">
    <g fill="none" fill-rule="evenodd">
        <rect width="551" height="247" x=".5" y=".5" fill="#FCFCFC" stroke="#CFCFCF" rx="5"/>
        <path fill="#FFF" d="M310.202 83.192c0 22.423-18.177 34.23-40.6 34.23-22.425 0-40.602-11.807-40.602-34.23 0-22.423 18.177-40.6 40.602-40.6 22.423 0 40.6 18.177 40.6 40.6"/>
        <path stroke="#BEBEBE" stroke-linecap="round" stroke-linejoin="round" stroke-width="2" d="M310.202 83.192c0 22.423-18.177 34.23-40.6 34.23-22.425 0-40.602-11.807-40.602-34.23 0-22.423 18.177-40.6 40.602-40.6 22.423 0 40.6 18.177 40.6 40.6z"/>
        <path fill="#BEBEBE" d="M262.69 73.042a1.944 1.944 0 1 1-3.889-.001 1.944 1.944 0 0 1 3.89.001M278.24 73.042a1.944 1.944 0 1 1-3.89-.001 1.944 1.944 0 0 1 3.89.001"/>
        <path stroke="#BEBEBE" stroke-width="2" d="M283.987 100.287c-2.817-1.95-10.516-3.112-14.824-3.112-4.31 0-13.282 1.697-16.086 3.668-2.869 2.015-5.34 2.079-8.098-.59-2.714-2.627-2.062-6.166.807-8.18 5.85-4.107 14.39-5.425 23.395-5.425 9.006 0 17.506 1.318 23.358 5.427 2.867 2.012 3.167 5.312.707 8.179-1.717 2.001-4.922 3.034-9.26.033z"/>
        <path stroke="#BEBEBE" stroke-linecap="round" stroke-width="5" d="M260.101 60.732s-3.557 6.17-12.96 6.155M275.648 60.732s3.557 6.17 12.96 6.155"/>
        <path fill="#FFF" d="M303.268 47.341l2.894-2.744s2.221-2.537 3.97-.814c1.75 1.72-.651 4.082-.651 4.082l-2.702 2.935"/>
        <path stroke="#BEBEBE" stroke-linecap="round" stroke-width="2" d="M303.268 47.341l2.894-2.744s2.221-2.537 3.97-.814c1.75 1.72-.651 4.082-.651 4.082l-2.702 2.935"/>
        <path fill="#FFF" d="M310.042 54.823l2.895-2.746s2.222-2.539 3.97-.815c1.75 1.723-.652 4.083-.652 4.083l-2.701 2.935"/>
        <path stroke="#BEBEBE" stroke-linecap="round" stroke-width="2" d="M310.042 54.823l2.895-2.746s2.222-2.539 3.97-.815c1.75 1.723-.652 4.083-.652 4.083l-2.701 2.935"/>
        <g>
            <path fill="#FFF" d="M314.93 43.16l2.894-2.745s2.221-2.539 3.97-.815c1.749 1.722-.651 4.084-.651 4.084l-2.702 2.934"/>
            <path stroke="#BEBEBE" stroke-linecap="round" stroke-width="2" d="M314.93 43.16l2.894-2.745s2.221-2.539 3.97-.815c1.749 1.722-.651 4.084-.651 4.084l-2.702 2.934"/>
        </g>
        <path stroke="#BEBEBE" stroke-linecap="round" stroke-width="2" d="M299.93 73l-.106 3.987s.224 3.367-2.232 3.383c-2.453.02-2.427-3.348-2.427-3.348L295 73.038"/>
        <text fill="#685959" font-family="NotoSansCJKkr-Regular, Noto Sans CJK KR" font-size="40">
            <tspan x="55.1" y="186">페이지를 찾을 수 없습니다.</tspan>
        </text>
    </g>
</svg>
