<svg xmlns="http://www.w3.org/2000/svg" width="552" height="248" viewBox="0 0 552 248">
    <g fill="none" fill-rule="evenodd">
        <rect width="551" height="247" x=".5" y=".5" fill="#FCFCFC" stroke="#CFCFCF" rx="5"/>
        <path fill="#FFF" d="M304.19 91.712a3.947 3.947 0 0 0-3.949-3.95c-.303 0-.6.046-.89.111a2.797 2.797 0 0 0-2.59-1.762c-1.405 0-2.518 1.05-2.717 2.397-2.504.062-4.516 2.1-4.516 4.612a4.63 4.63 0 0 0 4.627 4.627c.1 0 .193-.023.292-.028a4.705 4.705 0 0 0 3.853 1.994 4.74 4.74 0 0 0 4.743-4.74c0-.153-.028-.294-.042-.445a3.933 3.933 0 0 0 1.19-2.816"/>
        <path stroke="#BEBEBE" stroke-linejoin="round" stroke-width="2" d="M304.19 91.712a3.947 3.947 0 0 0-3.949-3.95c-.303 0-.6.046-.89.111a2.797 2.797 0 0 0-2.59-1.762c-1.405 0-2.518 1.05-2.717 2.397-2.504.062-4.516 2.1-4.516 4.612a4.63 4.63 0 0 0 4.627 4.627c.1 0 .193-.023.292-.028a4.705 4.705 0 0 0 3.853 1.994 4.74 4.74 0 0 0 4.743-4.74c0-.153-.028-.294-.042-.445a3.933 3.933 0 0 0 1.19-2.816z"/>
        <path fill="#FFF" d="M283.25 103.795a.085.085 0 0 0-.022-.012 1.983 1.983 0 0 0-.805-2.513 1.991 1.991 0 0 0-2.723.717c-.002.003-.002.008-.002.014a3.181 3.181 0 0 0-4.265 1.187 3.192 3.192 0 0 0 1.15 4.364 3.168 3.168 0 0 0 2.644.246c.247.43.595.808 1.057 1.077a2.939 2.939 0 0 0 4.023-1.057 2.936 2.936 0 0 0-1.056-4.023M323.25 90.795a.085.085 0 0 0-.022-.012 1.983 1.983 0 0 0-.805-2.513 1.991 1.991 0 0 0-2.723.717c-.002.003-.002.008-.002.014a3.181 3.181 0 0 0-4.265 1.187 3.192 3.192 0 0 0 1.15 4.364 3.168 3.168 0 0 0 2.644.246c.247.43.595.808 1.057 1.077a2.939 2.939 0 0 0 4.023-1.057 2.936 2.936 0 0 0-1.056-4.023"/>
        <path stroke="#BEBEBE" stroke-linejoin="round" stroke-width="2" d="M283.25 103.795a.085.085 0 0 0-.022-.012 1.983 1.983 0 0 0-.805-2.513 1.991 1.991 0 0 0-2.723.717c-.002.003-.002.008-.002.014a3.181 3.181 0 0 0-4.265 1.187 3.192 3.192 0 0 0 1.15 4.364 3.168 3.168 0 0 0 2.644.246c.247.43.595.808 1.057 1.077a2.939 2.939 0 0 0 4.023-1.057 2.936 2.936 0 0 0-1.056-4.023zM323.25 90.795a.085.085 0 0 0-.022-.012 1.983 1.983 0 0 0-.805-2.513 1.991 1.991 0 0 0-2.723.717c-.002.003-.002.008-.002.014a3.181 3.181 0 0 0-4.265 1.187 3.192 3.192 0 0 0 1.15 4.364 3.168 3.168 0 0 0 2.644.246c.247.43.595.808 1.057 1.077a2.939 2.939 0 0 0 4.023-1.057 2.936 2.936 0 0 0-1.056-4.023z"/>
        <path fill="#FFF" d="M242.397 102.263a2.843 2.843 0 0 1-1.094-2.239 2.852 2.852 0 0 1 2.853-2.853H259.7a2.854 2.854 0 0 1 2.856 2.853 2.84 2.84 0 0 1-1.09 2.239"/>
        <path stroke="#BEBEBE" stroke-linecap="round" stroke-linejoin="round" stroke-width="2" d="M242.397 102.263a2.843 2.843 0 0 1-1.094-2.239 2.852 2.852 0 0 1 2.853-2.853H259.7a2.854 2.854 0 0 1 2.856 2.853 2.84 2.84 0 0 1-1.09 2.239"/>
        <path fill="#FFF" d="M246.846 102.254h-13.932a5.495 5.495 0 0 0-5.496 5.5 5.495 5.495 0 0 0 5.496 5.496h29.966a5.498 5.498 0 1 0 0-10.996h-5.862"/>
        <path stroke="#BEBEBE" stroke-linecap="round" stroke-linejoin="round" stroke-width="2" d="M246.846 102.254h-13.932a5.495 5.495 0 0 0-5.496 5.5 5.495 5.495 0 0 0 5.496 5.496h29.966a5.498 5.498 0 1 0 0-10.996h-5.862"/>
        <path fill="#FFF" d="M292.88 69.693l-9.591 9.597-15.8-15.799 9.592-9.594z"/>
        <path stroke="#BEBEBE" stroke-linejoin="round" stroke-width="2" d="M292.88 69.693l-9.591 9.597-15.8-15.799 9.592-9.594z"/>
        <path fill="#FFF" d="M293.112 48.144L282.22 59.036l-4.64-4.644 10.885-10.894z"/>
        <path stroke="#BEBEBE" stroke-linecap="round" stroke-linejoin="round" stroke-width="2" d="M293.112 48.144L282.22 59.036l-4.64-4.644 10.885-10.894z"/>
        <path fill="#FFF" d="M308.792 53.783l-15.912 15.91-3.352-3.35 15.912-15.912z"/>
        <path stroke="#BEBEBE" stroke-linecap="round" stroke-linejoin="round" stroke-width="2" d="M308.792 53.783l-15.912 15.91-3.352-3.35 15.912-15.912z"/>
        <path fill="#FFF" d="M303.31 52.563l-3.807 3.808-10.198-4.42 3.806-3.808z"/>
        <path stroke="#BEBEBE" stroke-linecap="round" stroke-linejoin="round" stroke-width="2" d="M303.31 52.563l-3.807 3.808-10.198-4.42 3.806-3.808z"/>
        <path fill="#FFF" d="M280.735 54.669a8.814 8.814 0 0 1 0 12.478 8.809 8.809 0 0 1-12.469 0c-3.448-3.446-3.448-9.027 0-12.478a8.814 8.814 0 0 1 12.47 0"/>
        <path stroke="#BEBEBE" stroke-linecap="round" stroke-linejoin="round" stroke-width="2" d="M280.735 54.669a8.814 8.814 0 0 1 0 12.478 8.809 8.809 0 0 1-12.469 0c-3.448-3.446-3.448-9.027 0-12.478a8.814 8.814 0 0 1 12.47 0z"/>
        <path stroke="#BEBEBE" stroke-linecap="round" stroke-linejoin="round" stroke-width="2" d="M258.705 97.171l21.23-21.233-6.165-6.168-27.401 27.401zM264.468 91.104l-5.964-5.97"/>
        <text fill="#685959" font-family="NotoSansCJKkr-Regular, Noto Sans CJK KR" font-size="40">
            <tspan x="122.44" y="186">COMMING SOON</tspan>
        </text>
        <text fill="#646464" font-family="NotoSansCJKkr-Regular, Noto Sans CJK KR" font-size="16">
            <tspan x="206.244" y="222">페이지 준비중입니다.</tspan>
        </text>
    </g>
</svg>
