<svg xmlns="http://www.w3.org/2000/svg" width="22" height="22" viewBox="0 0 22 22">
    <defs>
        <linearGradient id="a" x1="50%" x2="50%" y1="-98.63%" y2="307.669%">
            <stop offset="0%" stop-color="#CFCFCF"/>
            <stop offset="100%" stop-color="#C0C0C0"/>
        </linearGradient>
        <linearGradient id="b" x1="50%" x2="50%" y1="-108.558%" y2="112.741%">
            <stop offset="0%" stop-color="#CFCFCF"/>
            <stop offset="100%" stop-color="#C0C0C0"/>
        </linearGradient>
        <linearGradient id="c" x1="50%" x2="50%" y1="-8.405%" y2="481.833%">
            <stop offset="0%" stop-color="#CFCFCF"/>
            <stop offset="100%" stop-color="#C0C0C0"/>
        </linearGradient>
        <linearGradient id="d" x1="50%" x2="50%" y1="-31.41%" y2="105.203%">
            <stop offset="0%" stop-color="#CFCFCF"/>
            <stop offset="100%" stop-color="#C0C0C0"/>
        </linearGradient>
    </defs>
    <g fill="none" fill-rule="evenodd">
        <path stroke="url(#a)" stroke-width="2" d="M12.847 4.857H19.9v5.186h-7.052zM7.052 4.857H0v5.186h7.052" transform="translate(1 1)"/>
        <path stroke="url(#b)" stroke-width="2" d="M12.847 19.52h5.637v-9.477M7.135 19.52H1.498v-9.477" transform="translate(1 1)"/>
        <path stroke="url(#c)" d="M9.003.568c.758.758.988 3.732.988 3.732s-2.974-.23-3.732-.988A1.94 1.94 0 1 1 9.003.568zM10.98.568c-.758.758-.989 3.732-.989 3.732s2.975-.23 3.733-.988A1.94 1.94 0 1 0 10.98.568z" transform="translate(1 1)"/>
        <path stroke="url(#d)" stroke-width="2" d="M7.136 20h5.711V4.607H7.136z" transform="translate(1 1)"/>
    </g>
</svg>
