<svg xmlns="http://www.w3.org/2000/svg" width="32" height="32" viewBox="0 0 32 32">
    <g fill="none" fill-rule="evenodd">
        <path fill="#FFF" fill-opacity=".01" d="M10.473 25.4c-2.955 4.006-8.869 5.184-8.869 5.184C3.2 29.482 4.732 27.287 4.938 25.4H2.806c-.498 0-.903-.418-.903-.933V3.933c0-.515.405-.933.903-.933h25.29c.5 0 .904.418.904.933v20.534c0 .515-.404.933-.903.933H10.473z"/>
        <g fill="#FFE195">
            <path d="M28.396 23.656H10.869a.998.998 0 0 0-.805.406c-1.253 1.7-3.127 2.856-4.773 3.607.54-.912.929-1.913 1.037-2.905a1.003 1.003 0 0 0-.994-1.108H3.299V3h25.097v20.656zM28.493 1H3.203c-1.05 0-1.904.867-1.904 1.933v20.79c0 1.066.854 1.933 1.904 1.933h.851c-.486 1.252-1.498 2.585-2.622 3.36a1.001 1.001 0 0 0 .763 1.804c.249-.049 5.942-1.223 9.163-5.164h17.135c1.049 0 1.903-.867 1.903-1.934V2.933c0-1.066-.854-1.933-1.903-1.933z"/>
            <path d="M9.37 10.283h11.47a.75.75 0 0 0 0-1.5H9.37a.75.75 0 0 0 0 1.5M9.37 16.293h8.79a.75.75 0 0 0 0-1.5H9.37a.75.75 0 0 0 0 1.5"/>
        </g>
    </g>
</svg>
