<svg xmlns="http://www.w3.org/2000/svg" width="32" height="32" viewBox="0 0 32 32">
    <g fill="none" fill-rule="evenodd">
        <path fill="#FFF" fill-opacity=".01" d="M24.207 8.933H29a1 1 0 0 1 1 1V29a1 1 0 0 1-1 1H3a1 1 0 0 1-1-1V3a1 1 0 0 1 1-1h20.207a1 1 0 0 1 1 1v5.933z"/>
        <g fill="#FFE195">
            <path d="M25.207 29H29V9.934h-3.793V29zm-2.896 0H3V3h20.207l.001 26h-.897zM29 7.934h-3.793V3c0-1.103-.897-2-2-2H3c-1.103 0-2 .897-2 2v26c0 1.103.897 2 2 2h26c1.103 0 2-.897 2-2V9.934c0-1.103-.897-2-2-2z"/>
            <path d="M18.225 8.184H8.024a.75.75 0 0 0 0 1.5h10.2a.75.75 0 0 0 0-1.5M14.605 13.184H8.023a.75.75 0 0 0 0 1.5h6.582a.75.75 0 0 0 0-1.5"/>
        </g>
    </g>
</svg>
