<svg xmlns="http://www.w3.org/2000/svg" width="32" height="32" viewBox="0 0 32 32">
    <g fill="none" fill-rule="evenodd">
        <path fill="#FFF" fill-opacity=".01" d="M29 12v18H3V12H2V2h28v10z"/>
        <g fill="#FFE195">
            <path d="M29 11.245c-.038.002-.071.015-.107.021h-2.626a1 1 0 1 0 0 2h1.8V29H3.933V13.266h1.8a1 1 0 1 0 0-2H3.107c-.036-.006-.069-.019-.107-.02V3h26v8.245zM30 1H2a1 1 0 0 0-1 1v10.266c0 .53.414.951.933.987V30a1 1 0 0 0 1 1h26.134a1 1 0 0 0 1-1V13.253a.993.993 0 0 0 .933-.987V2a1 1 0 0 0-1-1z"/>
            <path d="M11.8 13.795a.75.75 0 0 0 .75-.75c0-2.004 1.612-3.762 3.45-3.762 1.903 0 3.45 1.557 3.45 3.47 0 1.915-1.547 3.472-3.45 3.472h-.75v2.866a.75.75 0 0 0 1.5 0v-1.423a4.972 4.972 0 0 0 4.2-4.914c0-2.741-2.22-4.971-4.95-4.971-2.683 0-4.95 2.409-4.95 5.262 0 .414.336.75.75.75M16 21.88a.933.933 0 1 0 0 1.867.933.933 0 0 0 0-1.866"/>
        </g>
    </g>
</svg>
