<svg xmlns="http://www.w3.org/2000/svg" width="32" height="32" viewBox="0 0 32 32">
    <g fill="none" fill-rule="evenodd">
        <rect width="27" height="27.034" x="3" y="2.966" fill="#FFF" fill-opacity=".01" rx="1"/>
        <g fill="#FFE195">
            <path d="M4 28.826L3.994 3.96h3.968v3.274c0 1.1.894 1.993 1.993 1.993h12.917a1.995 1.995 0 0 0 1.993-1.993V3.96l3.962-.006.006 24.867L4 28.826zM22.865 2.994v4.233l-12.903.007L9.955 3l12.91-.006zm5.968-1.034h-4.265A1.988 1.988 0 0 0 22.872 1H9.955c-.72 0-1.345.387-1.696.96H3.994A1.996 1.996 0 0 0 2 3.953v24.873c0 1.1.895 1.994 1.994 1.994h24.839c1.1 0 1.994-.894 1.994-1.994V3.953a1.995 1.995 0 0 0-1.994-1.993z"/>
            <path d="M10.955 16.686a.75.75 0 0 0 0 1.5h10.917a.75.75 0 0 0 0-1.5H10.955zM10.955 22.248a.75.75 0 0 0 0 1.5h10.917a.75.75 0 0 0 0-1.5H10.955z"/>
        </g>
    </g>
</svg>
