<?xml version="1.0" encoding="utf-8"?>
<!-- Generator: Adobe Illustrator 16.0.0, SVG Export Plug-In . SVG Version: 6.00 Build 0)  -->
<!DOCTYPE svg PUBLIC "-//W3C//DTD SVG 1.1//EN" "http://www.w3.org/Graphics/SVG/1.1/DTD/svg11.dtd">
<svg version="1.1" id="Layer_1" xmlns="http://www.w3.org/2000/svg" xmlns:xlink="http://www.w3.org/1999/xlink" x="0px" y="0px"
	 width="258px" height="32px" viewBox="0 0 258 32" enable-background="new 0 0 258 32" xml:space="preserve">
<g>
	<path fill="#1E1E1E" d="M190.397,0.859l-11.663,30.297h9.335c0.881,0,1.667-0.555,1.964-1.383l5.282-14.725l5.258,14.722
		c0.296,0.83,1.082,1.386,1.965,1.386h9.357L200.237,0.859H190.397z"/>
	<polygon fill="#1E1E1E" points="246.526,21.514 246.526,0.865 236.604,0.865 236.604,31.157 258,31.15 258,21.514 	"/>
	<polygon fill="#1E1E1E" points="222.668,0.865 212.747,0.865 212.747,31.157 234.141,31.15 234.141,21.514 222.668,21.514 	"/>
	<path fill="#1E1E1E" d="M161.037,10.593l-6.179-8.522c-0.55-0.757-1.428-1.205-2.364-1.205h-8.433v30.29h9.922V16.382l6.989,10.748
		l6.988-10.748v14.774h9.922V0.866h-8.417c-0.944,0-1.83,0.457-2.377,1.225L161.037,10.593z"/>
	<rect x="61.393" y="0.843" fill="#1E1E1E" width="9.856" height="30.296"/>
	<path fill="#1E1E1E" d="M23.511,0.843H0v9.57h9.152L9.151,31.104h10.131v-20.69h9.267l-3.085-8.219
		C25.159,1.381,24.38,0.843,23.511,0.843"/>
	<path fill="#1E1E1E" d="M74.748,31.138h9.777V17.699l9.772,12.462c0.483,0.616,1.223,0.977,2.006,0.977h6.117V0.843h-9.777v13.432
		L82.856,1.816c-0.482-0.615-1.22-0.973-2.001-0.973h-6.107V31.138z"/>
	<path fill="#1E1E1E" d="M49.247,2.225l-5.281,14.725L38.708,2.227c-0.296-0.83-1.083-1.384-1.964-1.384h-9.357l11.659,30.295h9.838
		L60.546,0.843H51.21C50.33,0.843,49.544,1.396,49.247,2.225"/>
	<path fill="#1E1E1E" d="M121.642,22.352h-5.849V9.807h11.914c1.131,0,2.158-0.711,2.557-1.769l2.716-7.195h-27.043v30.262v0.034
		h26.723V13.844h-11.017V22.352z"/>
</g>
</svg>
