<svg xmlns="http://www.w3.org/2000/svg" width="26" height="26" viewBox="0 0 26 26">
    <g fill="none" fill-rule="evenodd">
        <rect width="26" height="26" fill="#2F2F2F" rx="8"/>
        <path fill="#FFF" d="M15.8 14.173L13 15.775l-2.8-1.602V10.97L13 9.368l2.8 1.602v3.203zm2.938-3.694a6.059 6.059 0 0 0-1.04-1.787l.968-2.685-2.76-1.578-1.865 2.173A6.17 6.17 0 0 0 13 6.507c-.355 0-.702.037-1.04.095l-1.865-2.173-2.76 1.578.967 2.684a6.049 6.049 0 0 0-1.04 1.788l-2.833.514v3.158l2.834.513c.245.656.595 1.26 1.038 1.786l-.966 2.685 2.76 1.58 1.866-2.175c.338.058.684.094 1.039.094a6.17 6.17 0 0 0 1.04-.094l1.866 2.174 2.76-1.58-.967-2.684a6.055 6.055 0 0 0 1.038-1.786l2.834-.513v-3.158l-2.833-.514z"/>
    </g>
</svg>
