<svg xmlns="http://www.w3.org/2000/svg" width="17" height="17" viewBox="0 0 17 17">
    <g fill="none" fill-rule="evenodd">
        <rect width="17" height="17" fill="#5E5E5E" rx="4"/>
        <path fill="#FFF" d="M10.39 9.332l-1.82 1.041-1.82-1.04V7.25L8.57 6.21l1.82 1.04v2.082zm1.908-2.4a3.937 3.937 0 0 0-.674-1.162l.628-1.744L10.458 3 9.246 4.412a4.01 4.01 0 0 0-.676-.061 4 4 0 0 0-.676.061L6.683 3 4.888 4.026l.629 1.744a3.93 3.93 0 0 0-.675 1.162L3 7.266v2.052l1.842.333c.159.426.386.819.674 1.161l-.628 1.745 1.795 1.026 1.212-1.413c.22.038.444.061.675.061.23 0 .456-.023.676-.061l1.212 1.413 1.795-1.026-.63-1.745c.289-.343.516-.735.675-1.16l1.842-.334V7.266l-1.842-.334z"/>
    </g>
</svg>
