<svg xmlns="http://www.w3.org/2000/svg" xmlns:xlink="http://www.w3.org/1999/xlink" width="258" height="32" viewBox="0 0 258 32">
    <defs>
        <path id="a" d="M0 31.295h257.97V.143H0z"/>
    </defs>
    <g fill="none" fill-rule="evenodd">
        <path fill="#000" d="M0 .852v8.67h9.125v21.876h8.68V9.523h8.902L22.256.852z"/>
        <g transform="translate(0 .103)">
            <path fill="#000" d="M102.711 16.022c0 8.435 6.714 15.273 14.996 15.273h12.38V12.678h-13.16v6.773h6.51v3.419h-5.665c-3.7 0-6.7-3.055-6.7-6.824 0-3.77 3-6.825 6.7-6.825h12.315V.75h-12.38c-8.282 0-14.996 6.838-14.996 15.273"/>
            <mask id="b" fill="#fff">
                <use xlink:href="#a"/>
            </mask>
            <path fill="#000" d="M58.83 31.295h8.68V.75h-8.68zM91.046 17.79L80.196.75h-8.68v30.545h8.68V14.254l10.85 17.041h8.68V.75h-8.68zM222.28.143h-7.003v31.152h19.128v-6.777H222.28zM200.828 24.518h-9.976l4.988-10.01 4.988 10.01zM195.84.456l-3.502 7.026-11.867 23.813H211.208L199.34 7.482 195.84.456zM40.85 13.028L34.57.75h-9.454L36.2 22.124l4.65 8.97 4.65-8.97L56.583.749h-9.455zM161.25 18.535l-8.336-9.95-7.004-8.36v31.07h7.004V18.493l4.151 5.051 4.185 5.114 4.186-5.114 4.151-5.051v12.802h7.004V.225l-7.004 8.36zM245.844 24.518V.143h-7.004v31.152H257.97v-6.777z" mask="url(#b)"/>
        </g>
    </g>
</svg>
