<svg xmlns="http://www.w3.org/2000/svg" width="130" height="16" viewBox="0 0 130 16">
    <g fill="#FFF" fill-rule="evenodd">
        <path d="M0 .43v4.368h4.598v11.023H8.97V4.798h4.486L11.214.43zM51.754 8.125c0 4.25 3.383 7.696 7.555 7.696h6.238V6.44h-6.63v3.412h3.28v1.723h-2.854c-1.865 0-3.376-1.54-3.376-3.44 0-1.898 1.511-3.438 3.376-3.438h6.204V.43H59.31c-4.172 0-7.555 3.446-7.555 7.696M29.643 15.82h4.374V.43h-4.374zM45.876 9.016L40.409.43h-4.374v15.392h4.374V7.234l5.467 8.587h4.373V.429h-4.373zM112.002.124h-3.53v15.697h9.64v-3.415h-6.11zM101.192 12.406h-5.026l2.513-5.043 2.513 5.043zM98.68.282l-1.765 3.54-5.979 11.999h15.488l-5.98-11.999L98.68.282zM20.583 6.617L17.419.429h-4.763L18.24 11.2l2.343 4.52 2.343-4.52L28.51.43h-4.764zM81.25 9.391l-4.2-5.014L73.52.165V15.821h3.53V9.37l2.091 2.544 2.11 2.577 2.108-2.577 2.092-2.545v6.45h3.529V.167L85.45 4.376zM123.875 12.406V.124h-3.529v15.697h9.639v-3.415z"/>
    </g>
</svg>
