<svg xmlns="http://www.w3.org/2000/svg" width="32" height="32" viewBox="0 0 32 32">
    <path style="fill:none" d="M0 0h32v32H0z"/>
    <path data-name="패스 344" d="M-199.378 1032.9c-.51-.41-1.83-1.32-1.95-1.408a4.251 4.251 0 0 1-1.56-4.957 1.1 1.1 0 0 0-.84-1.32 1.119 1.119 0 0 0-.75.088 8.69 8.69 0 0 0-4.89 8.741 4.7 4.7 0 0 1-.81-2.346 1.113 1.113 0 0 0-1.23-1 1.2 1.2 0 0 0-.84.5c-1.86 2.816-2.46 4.488-2.46 7.187a8.89 8.89 0 0 0 9 8.8 8.89 8.89 0 0 0 9-8.8 6.733 6.733 0 0 0-2.67-5.486z" transform="translate(221.707 -1020.183)" style="fill:#3f37c9"/>
</svg>
