<svg xmlns="http://www.w3.org/2000/svg" width="32" height="32" viewBox="0 0 32 32">
    <path style="fill:none" d="M0 0h32v32H0z"/>
    <path data-name="패스 342" d="M-266.689 1026.8a9.862 9.862 0 0 0-10 9.705 9.57 9.57 0 0 0 3.413 7.295c0 .263.016.79.024 1.285.008.479.024.926.024.99a.778.778 0 0 0 .351.59.83.83 0 0 0 .806.056c.271-.127 1.794-.806 2.272-.989a10.274 10.274 0 0 0 3.11.479 9.862 9.862 0 0 0 10-9.706 9.862 9.862 0 0 0-10-9.705zm4.167 13.554a.606.606 0 0 1-.357.555.6.6 0 0 1-.257.057.607.607 0 0 1-.4-.147l-3.157-1.874-3.158 1.874a.611.611 0 0 1-.4.147.6.6 0 0 1-.257-.057.6.6 0 0 1-.355-.555v-6.881a.84.84 0 0 1 .84-.84h6.651a.842.842 0 0 1 .842.84z" transform="translate(282.689 -1020.799)" style="fill:#3f37c9"/>
</svg>
