<svg xmlns="http://www.w3.org/2000/svg" width="88" height="88" viewBox="0 0 88 88">
    <defs>
        <linearGradient id="2piqnnec0a" x1=".766" y1=".129" x2=".243" y2=".861" gradientUnits="objectBoundingBox">
            <stop offset="0" stop-color="#dedded"/>
            <stop offset="1" stop-color="#cca789"/>
        </linearGradient>
    </defs>
    <path data-name="패스 236" d="m-116.279 1501.383-31.429-18.147a12.574 12.574 0 0 0-12.571 0l-31.429 18.147a12.57 12.57 0 0 0-6.286 10.886v26.565a12.574 12.574 0 0 0 6.286 10.888l31.429 18.146a12.568 12.568 0 0 0 12.571 0l31.429-18.146a12.573 12.573 0 0 0 6.286-10.888v-26.565a12.57 12.57 0 0 0-6.286-10.886z" transform="translate(197.993 -1481.552)" style="fill-rule:evenodd;fill:url(#2piqnnec0a)"/>
    <path data-name="패스 493" d="M5.88-18.336H3.432v11.424H18.6v-11.424h-2.448v3.792H5.88zm0 9.432v-3.672h10.272V-8.9zm14.976 6H1.224v2.04h19.632zm22.08-4.7h-8.592v-2.068H40.9v-1.9H28.2v-2.016h12.264v-5.64H25.728v1.9h12.288v1.968h-12.24v5.688h6.1v2.064h-8.62v1.992h19.68zM28.272-.192V-4.32H25.8V1.8h15.144V-.192zm17.952-8.184 1.008 1.968a11.015 11.015 0 0 0 7.944-5.52c1.536 2.88 4.368 4.68 8.04 5.424l1.008-1.968c-4.3-.648-7.752-3.576-7.752-6.84v-.5h6.888v-2.016H46.992v2.016h6.888v.5c0 3.264-3.432 6.24-7.656 6.936zM65.016-2.9H45.384v2.012h19.632z" transform="translate(11 53.5)" style="fill:#fff"/>
</svg>
