<svg id="img_check_pink_64" xmlns="http://www.w3.org/2000/svg" width="64" height="64" viewBox="0 0 64 64">
  <defs>
    <style>
      .cls-1 {
        fill: none;
      }

      .cls-2 {
        fill: #e6458e;
      }
    </style>
  </defs>
  <rect id="영역" class="cls-1" width="64" height="64"/>
  <path id="패스_429" data-name="패스 429" class="cls-2" d="M-61.76,1083.493a24.022,24.022,0,0,0-24,24,24.022,24.022,0,0,0,24,24,24.022,24.022,0,0,0,24-24A24.022,24.022,0,0,0-61.76,1083.493Zm12.267,20.19-13.183,13.184a2.7,2.7,0,0,1-3.787,0h0l-7.565-7.565a2.7,2.7,0,0,1,0-3.787,2.7,2.7,0,0,1,3.788,0l5.67,5.671,11.29-11.29a2.7,2.7,0,0,1,3.787,0A2.7,2.7,0,0,1-49.493,1103.683Z" transform="translate(93.76 -1075.492)"/>
</svg>
