<svg xmlns="http://www.w3.org/2000/svg" width="32" height="32" viewBox="0 0 32 32">
    <path style="fill:none" d="M0 0h32v32H0z"/>
    <path data-name="패스 370" d="m-213.838 1180.329-1.475-1.549-2.177-2.287a9.688 9.688 0 0 0 1.919-5.816 9.211 9.211 0 0 0-8.976-9.429 9.211 9.211 0 0 0-8.976 9.429 9.212 9.212 0 0 0 8.976 9.43 8.661 8.661 0 0 0 5.545-2.024l.773.812 2.341 2.459.537.564a1.076 1.076 0 0 0 .757.33 1.06 1.06 0 0 0 .756-.33 1.159 1.159 0 0 0 .314-.794 1.2 1.2 0 0 0-.314-.795zm-6.063-10.223-2.36 1.751.881 2.8a.5.5 0 0 1-.184.557.51.51 0 0 1-.587 0l-2.4-1.7-2.395 1.7a.5.5 0 0 1-.587 0 .5.5 0 0 1-.185-.558l.874-2.78.007-.023-2.36-1.751a.5.5 0 0 1-.18-.559.5.5 0 0 1 .474-.348l2.939-.029.935-2.786a.5.5 0 0 1 .477-.343.5.5 0 0 1 .477.343l.936 2.786 2.938.029a.5.5 0 0 1 .474.348.5.5 0 0 1-.173.563z" transform="translate(239.523 -1155.248)" style="fill:#3f37c9"/>
</svg>
