<svg id="ic_copy_white_24" xmlns="http://www.w3.org/2000/svg" width="24" height="24" viewBox="0 0 24 24">
  <defs>
    <style>
      .cls-1 {
        fill: none;
      }

      .cls-2 {
        fill: #fff;
      }
    </style>
  </defs>
  <rect id="영역" class="cls-1" width="24" height="24"/>
  <path id="패스_371" data-name="패스 371" class="cls-2" d="M-255.418,1166.034h-7a2,2,0,0,0-2,2v7a2,2,0,0,0,2,2h7a2,2,0,0,0,2-2v-7A2,2,0,0,0-255.418,1166.034Zm.5,8v1a.5.5,0,0,1-.5.5h-7a.5.5,0,0,1-.5-.5v-7a.5.5,0,0,1,.5-.5h7a.5.5,0,0,1,.5.5v6Z" transform="translate(269.418 -1158.033)"/>
  <path id="패스_372" data-name="패스 372" class="cls-2" d="M-251.124,1161.748h-7a1.994,1.994,0,0,0-1.981,1.809.2.2,0,0,0,.2.191h1.093a.281.281,0,0,0,.228-.191h0a.5.5,0,0,1,.461-.309h7a.5.5,0,0,1,.5.5v7a.494.494,0,0,1-.265.433l.007,0a.447.447,0,0,0-.242.323v1a.266.266,0,0,0,.216.218,1.992,1.992,0,0,0,1.784-1.978v-7A2,2,0,0,0-251.124,1161.748Z" transform="translate(268.124 -1156.748)"/>
</svg>
