<svg xmlns="http://www.w3.org/2000/svg" width="24" height="24" viewBox="0 0 24 24">
    <path style="fill:none" d="M0 0h24v24H0z"/>
    <g data-name="그룹 950">
        <path data-name="패스 239" d="M-300.283 1453.782h3.84c2.6 0 4.123 1.448 4.123 3.657 0 2.233-1.521 3.68-4.123 3.68h-1.607v2.663h-2.233zm3.742 5.362c1.239 0 1.989-.589 1.989-1.705s-.75-1.682-1.989-1.682h-1.509v3.387z" style="fill:#3f37c9" transform="translate(308.616 -1446.42)"/>
        <path data-name="패스 240" d="M-296.616 1450.42a8.009 8.009 0 0 1 8 8 8.009 8.009 0 0 1-8 8 8.009 8.009 0 0 1-8-8 8.009 8.009 0 0 1 8-8m0-2a10 10 0 0 0-10 10 10 10 0 0 0 10 10 10 10 0 0 0 10-10 10 10 0 0 0-10-10z" style="fill:#3f37c9" transform="translate(308.616 -1446.42)"/>
    </g>
</svg>
