<svg xmlns="http://www.w3.org/2000/svg" width="88" height="88" viewBox="0 0 88 88">
    <defs>
        <linearGradient id="czjjx5e2la" x1=".237" y1=".863" x2=".763" y2=".143" gradientUnits="objectBoundingBox">
            <stop offset="0" stop-color="#94aee3"/>
            <stop offset="1" stop-color="#d6d5e0"/>
        </linearGradient>
    </defs>
    <path data-name="패스 236" d="m-116.279 1501.383-31.429-18.147a12.574 12.574 0 0 0-12.571 0l-31.429 18.147a12.57 12.57 0 0 0-6.286 10.886v26.565a12.574 12.574 0 0 0 6.286 10.888l31.429 18.146a12.568 12.568 0 0 0 12.571 0l31.429-18.146a12.573 12.573 0 0 0 6.286-10.888v-26.565a12.57 12.57 0 0 0-6.286-10.886z" transform="translate(197.993 -1481.552)" style="fill-rule:evenodd;fill:url(#czjjx5e2la)"/>
    <path data-name="패스 494" d="M19.08-8.712v-11.112h-2.5v11.112zm-5.88-.48 1.2-1.944a6.976 6.976 0 0 1-5.28-6.48v-1.632H6.6v1.632a7.365 7.365 0 0 1-5.376 6.864l1.224 1.968A8.846 8.846 0 0 0 7.9-13.8a8.715 8.715 0 0 0 5.3 4.608zm6.528 8.9H7.344v-1.9H19.08v-5.5H4.872v1.92h11.76v1.776H4.92v5.64h14.808zM41.3-19.848l-2.5-.024v7.9h-4.528v-6.148h-2.424v5.448h-5.28v-5.472H24.12v14.736h10.152v-6.576h4.536V1.9h2.5zm-9.456 9.12v5.3h-5.28v-5.3z" transform="translate(22 53.5)" style="fill:#fff"/>
</svg>
