<svg id="ic_calendar_black_32" xmlns="http://www.w3.org/2000/svg" width="32" height="32" viewBox="0 0 32 32">
  <defs>
    <style>
      .cls-1 {
        fill: none;
      }

      .cls-2 {
        fill: #3e4259;
      }
    </style>
  </defs>
  <rect id="영역" class="cls-1" width="32" height="32"/>
  <path id="패스_123" data-name="패스 123" class="cls-2" d="M-67.068,823.756h-1.254a1.111,1.111,0,0,0-.556-.962,1.108,1.108,0,0,0-1.111,0,1.111,1.111,0,0,0-.556.962h-4.444a1.111,1.111,0,0,0-.556-.962,1.108,1.108,0,0,0-1.111,0,1.112,1.112,0,0,0-.555.962h-1.255a4.308,4.308,0,0,0-3.04,1.261,4.312,4.312,0,0,0-1.261,3.04v10.287a4.31,4.31,0,0,0,1.261,3.04,4.3,4.3,0,0,0,3.04,1.261h11.4a4.3,4.3,0,0,0,3.04-1.261,4.3,4.3,0,0,0,1.261-3.04V828.057a4.3,4.3,0,0,0-1.261-3.04,4.3,4.3,0,0,0-3.04-1.261Zm-11.4,2.222h1.255a1.112,1.112,0,0,0,.555.963,1.113,1.113,0,0,0,1.111,0,1.113,1.113,0,0,0,.556-.963h4.444a1.113,1.113,0,0,0,.556.963,1.113,1.113,0,0,0,1.111,0,1.113,1.113,0,0,0,.556-.963h1.254a2.082,2.082,0,0,1,1.469.61,2.082,2.082,0,0,1,.61,1.469v.144H-80.545v-.144a2.082,2.082,0,0,1,.61-1.469,2.082,2.082,0,0,1,1.469-.61Zm13.477,12.366a2.082,2.082,0,0,1-.61,1.469,2.082,2.082,0,0,1-1.469.61h-11.4a2.08,2.08,0,0,1-1.469-.61,2.082,2.082,0,0,1-.61-1.469v-7.921h15.556Z" transform="translate(88.767 -816.645)"/>
  <path id="패스_124" data-name="패스 124" class="cls-2" d="M-74.108,837.875a1.108,1.108,0,0,0,.786.325,1.107,1.107,0,0,0,.785-.325l3.889-3.889a1.111,1.111,0,0,0,.273-1.065,1.11,1.11,0,0,0-.778-.778,1.112,1.112,0,0,0-1.066.272l-3.1,3.1-1.437-1.436a1.105,1.105,0,0,0-.79-.339,1.109,1.109,0,0,0-.795.325,1.108,1.108,0,0,0-.325.795,1.111,1.111,0,0,0,.339.79Z" transform="translate(88.767 -816.645)"/>
</svg>
