<svg id="ic_product_c_d15_24" xmlns="http://www.w3.org/2000/svg" width="24" height="24" viewBox="0 0 24 24">
  <defs>
    <style>
      .cls-1 {
        fill: #8daae5;
      }

      .cls-2 {
        fill: #fff;
      }
    </style>
  </defs>
  <path id="배경" class="cls-1" d="M8,0h8a8,8,0,0,1,8,8v8a8,8,0,0,1-8,8H8a8,8,0,0,1-8-8V8A8,8,0,0,1,8,0Z"/>
  <path id="패스_504" data-name="패스 504" class="cls-2" d="M.168,1.54a5.687,5.687,0,0,0,5.81-4.452H3.4A3.2,3.2,0,0,1,.224-.8,3.528,3.528,0,0,1-3.388-4.452,3.52,3.52,0,0,1,.224-8.106,2.943,2.943,0,0,1,3.29-6.146H5.866a5.45,5.45,0,0,0-5.7-4.3,5.871,5.871,0,0,0-6.1,5.992A5.871,5.871,0,0,0,.168,1.54Z" transform="translate(12 16)"/>
</svg>
