<svg xmlns="http://www.w3.org/2000/svg" width="24" height="24" viewBox="0 0 24 24">
    <path style="fill:none" d="M0 0h24v24H0z"/>
    <path data-name="패스 572" d="m5221.224 21590.707-2.378-2.379a8.584 8.584 0 1 1 1.479-1.484l2.384 2.379a.993.993 0 0 1 0 1.408l-.076.076a.994.994 0 0 1-1.409 0zm-10.794-4.535h1.913v-2.281h1.376c2.233 0 3.533-1.24 3.533-3.158 0-1.893-1.3-3.133-3.533-3.133h-3.289zm1.913-3.977v-2.9h1.295c1.062 0 1.7.492 1.7 1.441s-.64 1.463-1.7 1.463z" transform="translate(-5202 -21569.998)" style="fill:#3f37c9"/>
</svg>
