<svg id="ic_ranking_color_40" xmlns="http://www.w3.org/2000/svg" xmlns:xlink="http://www.w3.org/1999/xlink" width="40" height="40" viewBox="0 0 40 40">
  <defs>
    <style>
      .cls-1 {
        fill: none;
      }

      .cls-2 {
        fill: url(#linear-gradient);
      }

      .cls-3 {
        fill: url(#linear-gradient-2);
      }
    </style>
    <linearGradient id="linear-gradient" x1="0.5" y1="1" x2="0.5" gradientUnits="objectBoundingBox">
      <stop offset="0" stop-color="#ff9800"/>
      <stop offset="1" stop-color="#f44336"/>
    </linearGradient>
    <linearGradient id="linear-gradient-2" x1="0.5" y1="1" x2="0.5" gradientUnits="objectBoundingBox">
      <stop offset="0" stop-color="#ff9d08"/>
      <stop offset="1" stop-color="#fff176"/>
    </linearGradient>
  </defs>
  <rect id="영역" class="cls-1" width="40" height="40"/>
  <path id="패스_345" data-name="패스 345" class="cls-2" d="M-456.155,873.058c-.708-.6-2.541-1.92-2.708-2.048-2.166-1.963-3-3.8-2.166-7.211a1.607,1.607,0,0,0-1.167-1.92,1.5,1.5,0,0,0-1.042.128,12.776,12.776,0,0,0-6.792,12.715,7.065,7.065,0,0,1-1.125-3.413,1.564,1.564,0,0,0-1.708-1.451,1.65,1.65,0,0,0-1.167.725c-2.583,4.1-3.416,6.528-3.416,10.453a12.636,12.636,0,0,0,12.5,12.8,12.636,12.636,0,0,0,12.5-12.8,9.963,9.963,0,0,0-3.709-7.978Z" transform="translate(484.946 -857.836)"/>
  <path id="패스_346" data-name="패스 346" class="cls-3" d="M-460.367,880.348c-.369-.311-1.324-1-1.411-1.067a3.307,3.307,0,0,1-1.128-3.756.837.837,0,0,0-.608-1,.777.777,0,0,0-.542.067,6.653,6.653,0,0,0-3.538,6.622,3.679,3.679,0,0,1-.586-1.778.814.814,0,0,0-.89-.755.858.858,0,0,0-.607.378,8.935,8.935,0,0,0-1.78,5.444,6.581,6.581,0,0,0,6.511,6.667,6.581,6.581,0,0,0,6.51-6.667,5.186,5.186,0,0,0-1.931-4.155Z" transform="translate(484.946 -857.836)"/>
</svg>
