<svg xmlns="http://www.w3.org/2000/svg" width="88" height="88" viewBox="0 0 88 88">
    <defs>
        <linearGradient id="uyzbf40rxa" x1=".766" y1=".129" x2=".243" y2=".861" gradientUnits="objectBoundingBox">
            <stop offset="0" stop-color="#ebdae2"/>
            <stop offset="1" stop-color="#c9c8de"/>
        </linearGradient>
    </defs>
    <path data-name="패스 236" d="m-116.279 1501.383-31.429-18.147a12.574 12.574 0 0 0-12.571 0l-31.429 18.147a12.57 12.57 0 0 0-6.286 10.886v26.565a12.574 12.574 0 0 0 6.286 10.888l31.429 18.146a12.568 12.568 0 0 0 12.571 0l31.429-18.146a12.573 12.573 0 0 0 6.286-10.888v-26.565a12.57 12.57 0 0 0-6.286-10.886z" transform="translate(197.993 -1481.552)" style="fill-rule:evenodd;fill:url(#uyzbf40rxa)"/>
    <path data-name="패스 492" d="M21.264-8.736v-2.04h-3.1v-9.072H15.7v21.7h2.472V-8.736zm-7.032-6.6v-1.992H9.048v-2.448H6.576v2.448H1.344v1.992zM9.048-4.248v-2.016c2.4-.384 3.96-1.824 3.96-3.936 0-2.448-2.088-4.056-5.184-4.056-3.072 0-5.208 1.608-5.208 4.056 0 2.112 1.56 3.528 3.96 3.936v2.112C4.56-4.08 2.616-4.08.96-4.08l.34 2.04a76.808 76.808 0 0 0 13.364-.86l-.192-1.824c-1.728.26-3.572.38-5.424.476zM4.944-10.2c0-1.344 1.152-2.16 2.88-2.16s2.856.816 2.856 2.16-1.128 2.136-2.856 2.136-2.88-.792-2.88-2.136zm36.192-9.648h-2.5V1.9h2.5zM29.592-18.24c-3.192 0-5.568 2.976-5.568 7.632 0 4.7 2.376 7.656 5.568 7.656 3.24 0 5.592-2.952 5.592-7.656 0-4.656-2.352-7.632-5.592-7.632zm0 2.232c1.92 0 3.216 2.016 3.216 5.4 0 3.48-1.3 5.448-3.216 5.448S26.4-7.128 26.4-10.608c0-3.384 1.272-5.4 3.192-5.4zm33.24 9.624v-1.992h-12.5v-2.976h11.852V-13.3H50.328v-2.78h12.336v-1.992H47.808v11.688zm2.208 3.552H45.384v2.016H65.04z" transform="translate(11 53.5)" style="fill:#fff"/>
</svg>
