<svg xmlns="http://www.w3.org/2000/svg" width="42.001" height="16" viewBox="0 0 42.001 16">
    <defs>
        <linearGradient id="2n71mima7a" y1=".5" x2="1" y2=".5" gradientUnits="objectBoundingBox">
            <stop offset="0" stop-color="#00c73c"/>
            <stop offset=".807" stop-color="#69a2d6"/>
            <stop offset="1" stop-color="#938fd9"/>
        </linearGradient>
    </defs>
    <path d="M2 0h38a2 2 0 0 1 2 2v12a2 2 0 0 1-2 2H2a2 2 0 0 1-2-2V2a2 2 0 0 1 2-2z" style="opacity:.1;fill:url(#2n71mima7a)"/>
    <path d="M2 0h38a2 2 0 0 1 2 2v12a2 2 0 0 1-2 2H2a2 2 0 0 1-2-2V2a2 2 0 0 1 2-2z" transform="translate(.001)" style="fill:#404040;opacity:.3;mix-blend-mode:multiply;isolation:isolate"/>
    <path data-name="패스 562" d="M7.64-3.75h1.29v-1.09H7.64v-3.52H6.32v9.2h1.32zM5.19-7.41H.85v1.07h3.01C3.62-4.29 2.49-2.85.34-1.74l.74 1.01a6.9 6.9 0 0 0 4.11-6.68zm11.74 4.52v-5.45l-1.32-.01v1.48h-1.57a5.672 5.672 0 0 0 .08-.9H9.85v1.05h2.85c-.2 1.25-1.29 2.28-3.38 2.8l.51 1.03a5.423 5.423 0 0 0 3.9-2.92h1.88v.9h-2.03v1.06h2.03v.96zm0 .39h-6.28v1.04h4.96V.82h1.32zM25.66.88v-9.24h-1.32V.88zm-5.87-6.27v-2.23h-1.31v6.35h4.54v-6.35h-1.31v2.23zm1.92 3.07h-1.92v-2.04h1.92zm11.07-.22 1.32.13a22.6 22.6 0 0 0 .31-4.26v-.89h-6.77v1.05h5.45a21.613 21.613 0 0 1-.31 3.97zm2.39 2.29v-1.06h-3.02v-2.91h-1.29v2.91h-.98v-2.91h-1.3v2.91h-1.75v1.06z" transform="translate(3.246 11.738)" style="fill:#fff;opacity:.9"/>
</svg>
