<svg xmlns="http://www.w3.org/2000/svg" width="32" height="32" viewBox="0 0 32 32">
    <path style="fill:none" d="M0 0h32v32H0z"/>
    <g data-name="패스 533" style="fill:#fafbff">
        <path d="M16 31.5c-4.14 0-8.033-1.612-10.96-4.54A15.399 15.399 0 0 1 .5 16c0-4.14 1.612-8.033 4.54-10.96A15.399 15.399 0 0 1 16 .5c4.14 0 8.033 1.612 10.96 4.54A15.399 15.399 0 0 1 31.5 16c0 4.14-1.612 8.033-4.54 10.96A15.399 15.399 0 0 1 16 31.5z" style="stroke:none"/>
        <path d="M16 1C11.993 1 8.227 2.56 5.393 5.393A14.902 14.902 0 0 0 1 16c0 4.007 1.56 7.773 4.393 10.607A14.902 14.902 0 0 0 16 31c4.007 0 7.773-1.56 10.607-4.393A14.902 14.902 0 0 0 31 16c0-4.007-1.56-7.773-4.393-10.607A14.902 14.902 0 0 0 16 1m0-1c8.837 0 16 7.163 16 16s-7.163 16-16 16S0 24.837 0 16 7.163 0 16 0z" style="fill:#dcdee8;stroke:none"/>
    </g>
    <path data-name="패스 532" d="m14168.07 19984.779-7.072-7.072.707-.707 7.072 7.072 7.072-7.072.707.707-7.779 7.779z" transform="translate(-14152.777 -19964.242)" style="fill:#b8b6c4"/>
</svg>
