<svg xmlns="http://www.w3.org/2000/svg" width="32" height="32" viewBox="0 0 32 32">
    <path style="fill:none" d="M0 0h32v32H0z"/>
    <path data-name="패스 361" d="M-463.861 997.871h-.242a9.489 9.489 0 0 0-8.565-8.5h.055v-.25a.958.958 0 0 0-.958-.958.958.958 0 0 0-.959.958v.25h.011a9.491 9.491 0 0 0-8.511 8.5h-.247a.958.958 0 0 0-.959.958.958.958 0 0 0 .959.958h.247v-.046a9.49 9.49 0 0 0 8.526 8.556h-.026v.243a.958.958 0 0 0 .959.958.958.958 0 0 0 .958-.958v-.243h-.075a9.624 9.624 0 0 0 8.58-8.514h.248a.958.958 0 0 0 .958-.958.958.958 0 0 0-.959-.954zm-8.751 8.868v-.249a.958.958 0 0 0-.958-.958.958.958 0 0 0-.959.958v.248a8.006 8.006 0 0 1-7.005-6.945h.248a.958.958 0 0 0 .957-.958.958.958 0 0 0-.957-.959h-.249a8.04 8.04 0 0 1 7.006-7.007v.248a.958.958 0 0 0 .959.958.958.958 0 0 0 .958-.958v-.249a8.008 8.008 0 0 1 6.954 7.007h-.25a.958.958 0 0 0-.958.959.958.958 0 0 0 .958.958h.249a7.974 7.974 0 0 1-6.953 6.947z" transform="translate(489.569 -982.832)" style="fill:#3e4259"/>
    <path data-name="패스 487" d="M7773.934 21163.154a1.155 1.155 0 1 1 1.154 1.158 1.155 1.155 0 0 1-1.154-1.158zm-3.467 0a1.156 1.156 0 1 1 1.154 1.158 1.155 1.155 0 0 1-1.154-1.158zm-3.467 0a1.156 1.156 0 1 1 1.155 1.158 1.155 1.155 0 0 1-1.155-1.158z" transform="translate(-7755.621 -21147.156)" style="stroke:transparent;fill:#3e4259"/>
</svg>
