<svg xmlns="http://www.w3.org/2000/svg" width="32" height="32" viewBox="0 0 32 32">
    <defs>
        <linearGradient id="k28twyr29c" x1=".5" x2=".5" y2="1" gradientUnits="objectBoundingBox">
            <stop offset="0" stop-color="#fefefe"/>
            <stop offset="1" stop-color="#ededed"/>
        </linearGradient>
        <linearGradient id="2ps8f0rj7d" x1=".5" x2=".5" y2="1" gradientUnits="objectBoundingBox">
            <stop offset="0" stop-color="#f36357"/>
            <stop offset=".25" stop-color="#e64034"/>
            <stop offset=".5" stop-color="#d52716"/>
            <stop offset=".75" stop-color="#bb1a0a"/>
            <stop offset="1" stop-color="#960d01"/>
        </linearGradient>
        <linearGradient id="cfqjfa6phe" x1=".5" y1="1" x2=".5" gradientUnits="objectBoundingBox">
            <stop offset="0" stop-opacity=".102"/>
            <stop offset=".141" stop-opacity=".047"/>
            <stop offset="1" stop-opacity="0"/>
        </linearGradient>
        <clipPath id="jo94nimm9a">
            <path d="M8 0h16a8 8 0 0 1 8 8v16a8 8 0 0 1-8 8H8a8 8 0 0 1-8-8V8a8 8 0 0 1 8-8z" transform="translate(368 961)" style="fill:#e6e6e6"/>
        </clipPath>
        <clipPath id="ysvbpq77cb">
            <path data-name="패스 635" d="M31.719.266a.968.968 0 0 0-.811-.271Q16.549 0 2.188 0A14.073 14.073 0 0 0 .666.025a.89.89 0 0 0-.666.9v30.13a.9.9 0 0 0 .934.92q14.986.009 29.97 0a.948.948 0 0 0 1.08-.924q.016-14.665.009-29.336c-.025-.485.112-1.065-.274-1.449z" transform="translate(0 .01)" style="fill:none"/>
        </clipPath>
    </defs>
    <g data-name="마스크 그룹 114" transform="translate(-368 -961)" style="clip-path:url(#jo94nimm9a)">
        <g data-name="그룹 1316">
            <g data-name="그룹 1313">
                <g data-name="그룹 1312" style="clip-path:url(#ysvbpq77cb)" transform="translate(368.001 961.001)">
                    <g data-name="그룹 1311">
                        <g data-name="그룹 1304">
                            <path data-name="패스 593" d="M3.923 47.475.857 52.938 3.923 58.4l3.065-5.464z" transform="translate(-.367 -20.343)" style="fill:url(#k28twyr29c)"/>
                            <path data-name="패스 594" d="m14.651 47.475-3.065 5.464 3.065 5.461 3.065-5.464z" transform="translate(-4.966 -20.343)" style="fill:url(#k28twyr29c)"/>
                            <path data-name="패스 595" d="m25.418 47.475-3.065 5.464 3.065 5.461 3.065-5.464z" transform="translate(-9.581 -20.343)" style="fill:url(#k28twyr29c)"/>
                            <path data-name="패스 596" d="m36.147 47.475-3.065 5.464 3.065 5.461 3.065-5.464z" transform="translate(-14.18 -20.343)" style="fill:url(#k28twyr29c)"/>
                            <path data-name="패스 597" d="m46.875 47.475-3.065 5.463 3.065 5.462 3.065-5.464z" transform="translate(-18.778 -20.343)" style="fill:url(#k28twyr29c)"/>
                        </g>
                        <g data-name="그룹 1305">
                            <path data-name="패스 598" d="M3.923-9.943.857-4.479 3.923.985l3.065-5.464z" transform="translate(-.367 4.268)" style="fill:url(#k28twyr29c)"/>
                            <path data-name="패스 599" d="m14.651-9.943-3.065 5.464L14.651.985l3.065-5.464z" transform="translate(-4.966 4.268)" style="fill:url(#k28twyr29c)"/>
                            <path data-name="패스 600" d="m25.418-9.943-3.065 5.464L25.418.985l3.065-5.464z" transform="translate(-9.581 4.268)" style="fill:url(#k28twyr29c)"/>
                            <path data-name="패스 601" d="m36.147-9.943-3.065 5.464L36.147.985l3.065-5.464z" transform="translate(-14.18 4.268)" style="fill:url(#k28twyr29c)"/>
                            <path data-name="패스 602" d="M46.875-9.943 43.81-4.479 46.875.985l3.065-5.464z" transform="translate(-18.778 4.268)" style="fill:url(#k28twyr29c)"/>
                        </g>
                        <g data-name="그룹 1306">
                            <path data-name="패스 603" d="m-1.461 37.912-3.065 5.464 3.065 5.464L1.6 43.376z" transform="translate(1.94 -16.245)" style="fill:url(#k28twyr29c)"/>
                            <path data-name="패스 604" d="m-6.825 28.35-3.065 5.464 3.065 5.464 3.065-5.464z" transform="translate(4.239 -12.146)" style="fill:url(#k28twyr29c)"/>
                            <path data-name="패스 605" d="m-6.825 9.182-3.065 5.464 3.065 5.464 3.065-5.464z" transform="translate(4.239 -3.93)" style="fill:url(#k28twyr29c)"/>
                            <path data-name="패스 606" d="m57.6 28.35-3.065 5.464 3.065 5.463 3.065-5.464z" transform="translate(-23.377 -12.146)" style="fill:url(#k28twyr29c)"/>
                            <path data-name="패스 607" d="m57.6 9.182-3.065 5.464 3.065 5.463 3.065-5.464z" transform="translate(-23.377 -3.93)" style="fill:url(#k28twyr29c)"/>
                            <path data-name="패스 608" d="M9.268 37.912 6.2 43.376l3.068 5.464 3.065-5.464z" transform="translate(-2.659 -16.245)" style="fill:url(#k28twyr29c)"/>
                            <path data-name="패스 609" d="m20.035 37.912-3.065 5.464 3.065 5.464 3.065-5.464z" transform="translate(-7.274 -16.245)" style="fill:url(#k28twyr29c)"/>
                            <path data-name="패스 610" d="M30.763 37.912 27.7 43.376l3.065 5.464 3.065-5.464z" transform="translate(-11.872 -16.245)" style="fill:url(#k28twyr29c)"/>
                            <path data-name="패스 611" d="m41.492 37.912-3.065 5.464 3.065 5.464 3.065-5.464z" transform="translate(-16.471 -16.245)" style="fill:url(#k28twyr29c)"/>
                            <path data-name="패스 612" d="m52.24 37.912-3.065 5.464 3.065 5.464 3.06-5.464z" transform="translate(-21.078 -16.245)" style="fill:url(#k28twyr29c)"/>
                        </g>
                        <g data-name="그룹 1307">
                            <path data-name="패스 613" d="M3.932 28.307.867 33.77l3.065 5.464L7 33.77z" transform="translate(-.372 -12.127)" style="fill:url(#k28twyr29c)"/>
                            <path data-name="패스 614" d="M14.661 28.307 11.6 33.77l3.065 5.464 3.065-5.464z" transform="translate(-4.971 -12.127)" style="fill:url(#k28twyr29c)"/>
                            <path data-name="패스 615" d="m25.428 28.307-3.066 5.463 3.065 5.464 3.065-5.464z" transform="translate(-9.586 -12.127)" style="fill:url(#k28twyr29c)"/>
                            <path data-name="패스 616" d="m36.156 28.307-3.065 5.463 3.065 5.464 3.065-5.464z" transform="translate(-14.184 -12.127)" style="fill:url(#k28twyr29c)"/>
                            <path data-name="패스 617" d="M46.885 28.307 43.82 33.77l3.065 5.464 3.065-5.464z" transform="translate(-18.783 -12.127)" style="fill:url(#k28twyr29c)"/>
                        </g>
                        <g data-name="그룹 1308">
                            <path data-name="패스 618" d="m-1.451 18.744-3.065 5.464 3.065 5.464 3.065-5.464z" transform="translate(1.935 -8.028)" style="fill:url(#k28twyr29c)"/>
                            <path data-name="패스 619" d="m9.277 18.744-3.065 5.464 3.065 5.464 3.065-5.464z" transform="translate(-2.663 -8.028)" style="fill:url(#k28twyr29c)"/>
                            <path data-name="패스 620" d="m20.044 18.744-3.065 5.464 3.065 5.464 3.065-5.464z" transform="translate(-7.278 -8.028)" style="fill:url(#k28twyr29c)"/>
                            <path data-name="패스 621" d="m30.773 18.744-3.065 5.464 3.065 5.464 3.065-5.464z" transform="translate(-11.877 -8.028)" style="fill:url(#k28twyr29c)"/>
                            <path data-name="패스 622" d="m41.5 18.744-3.065 5.464 3.065 5.464 3.065-5.464z" transform="translate(-16.475 -8.028)" style="fill:url(#k28twyr29c)"/>
                            <path data-name="패스 623" d="m52.249 18.744-3.065 5.464 3.065 5.464 3.065-5.464z" transform="translate(-21.082 -8.028)" style="fill:url(#k28twyr29c)"/>
                        </g>
                        <g data-name="그룹 1309">
                            <path data-name="패스 624" d="M3.932 9.182.867 14.646l3.065 5.464L7 14.646z" transform="translate(-.372 -3.93)" style="fill:url(#k28twyr29c)"/>
                            <path data-name="패스 625" d="M14.661 9.182 11.6 14.646l3.065 5.464 3.065-5.464z" transform="translate(-4.971 -3.93)" style="fill:url(#k28twyr29c)"/>
                            <path data-name="패스 626" d="m25.428 9.182-3.065 5.464 3.065 5.464 3.065-5.464z" transform="translate(-9.586 -3.93)" style="fill:url(#k28twyr29c)"/>
                            <path data-name="패스 627" d="m36.156 9.182-3.065 5.464 3.065 5.464 3.065-5.464z" transform="translate(-14.184 -3.93)" style="fill:url(#k28twyr29c)"/>
                            <path data-name="패스 628" d="m46.885 9.182-3.065 5.464 3.065 5.464 3.065-5.464z" transform="translate(-18.783 -3.93)" style="fill:url(#k28twyr29c)"/>
                        </g>
                        <g data-name="그룹 1310">
                            <path data-name="패스 629" d="m-1.451-.38-3.065 5.463 3.065 5.464 3.065-5.464z" transform="translate(1.935 .169)" style="fill:url(#k28twyr29c)"/>
                            <path data-name="패스 630" d="M9.277-.38 6.212 5.083l3.065 5.464 3.065-5.464z" transform="translate(-2.663 .169)" style="fill:url(#k28twyr29c)"/>
                            <path data-name="패스 631" d="m20.044-.38-3.065 5.463 3.065 5.464 3.065-5.464z" transform="translate(-7.278 .169)" style="fill:url(#k28twyr29c)"/>
                            <path data-name="패스 632" d="m30.773-.38-3.065 5.463 3.065 5.464 3.065-5.464z" transform="translate(-11.877 .169)" style="fill:url(#k28twyr29c)"/>
                            <path data-name="패스 633" d="m41.5-.38-3.064 5.463 3.064 5.464 3.065-5.464z" transform="translate(-16.475 .169)" style="fill:url(#k28twyr29c)"/>
                            <path data-name="패스 634" d="m52.249-.38-3.065 5.463 3.065 5.464 3.065-5.464z" transform="translate(-21.082 .169)" style="fill:url(#k28twyr29c)"/>
                        </g>
                    </g>
                </g>
            </g>
            <g data-name="그룹 1315">
                <g data-name="패스 636" transform="translate(366.825 959.918)" style="stroke-linecap:round;stroke-linejoin:round;fill:url(#2ps8f0rj7d)">
                    <path d="m16.91 31.844-.107-.12-1.695-1.89-2.206 1.258-.14.08-.07-.146-1.094-2.29-2.47.585-.157.037-.026-.16-.404-2.505-2.535-.135-.161-.008.02-.16.318-2.519-2.395-.843-.152-.054.065-.147 1.014-2.328-2.06-1.483-.13-.094.103-.124 1.629-1.947-1.559-2.004-.099-.127.134-.09 2.112-1.409-.93-2.362-.06-.15.154-.048 2.423-.757-.228-2.528-.014-.161.161-.003 2.538-.044.494-2.49.032-.158.155.043 2.448.673 1.175-2.25.075-.143.137.085 2.159 1.335 1.762-1.828.112-.116.107.12 1.696 1.89 2.205-1.258.14-.08.07.146 1.094 2.29 2.47-.585.157-.037.026.16.404 2.505 2.535.135.161.008-.02.16-.318 2.519 2.395.843.152.054-.064.147-1.015 2.328 2.06 1.483.13.094-.103.124-1.629 1.947 1.559 2.004.099.127-.134.09-2.112 1.409.93 2.362.06.15-.154.048-2.423.757.228 2.528.014.161-.161.003-2.538.044-.494 2.49-.031.158-.156-.043-2.448-.673-1.175 2.25-.075.143-.137-.085-2.159-1.335-1.761 1.828-.112.116z" style="stroke:none"/>
                    <path d="m17.434 2.54-1.846 1.914-2.262-1.399-1.231 2.358-2.565-.706-.517 2.61-2.66.045.24 2.65-2.54.792.976 2.475-2.212 1.476 1.633 2.1-1.707 2.04L4.9 20.447l-1.063 2.438 2.509.884-.333 2.639 2.656.14.424 2.626 2.588-.613 1.146 2.4 2.31-1.318 1.777 1.98 1.845-1.915 2.262 1.399 1.231-2.358 2.565.706.517-2.61 2.66-.045-.24-2.65 2.54-.792-.976-2.475 2.212-1.476-1.632-2.1 1.706-2.04-2.158-1.553 1.063-2.438-2.509-.884.333-2.639-2.655-.14-.424-2.626-2.588.613-1.147-2.4-2.31 1.318-1.776-1.98m0-.3a.297.297 0 0 1 .223.1l1.614 1.8 2.1-1.198a.3.3 0 0 1 .42.131l1.042 2.182 2.352-.558a.3.3 0 0 1 .366.244l.385 2.387 2.414.128a.3.3 0 0 1 .282.337l-.303 2.399 2.28.803a.3.3 0 0 1 .176.402l-.966 2.217 1.962 1.412a.3.3 0 0 1 .054.436l-1.551 1.854 1.484 1.909a.3.3 0 0 1-.07.434L29.687 21l.886 2.249a.3.3 0 0 1-.19.396l-2.307.721.217 2.408A.3.3 0 0 1 28 27.1l-2.418.042-.47 2.37a.3.3 0 0 1-.374.232l-2.33-.641-1.12 2.143a.3.3 0 0 1-.424.116l-2.056-1.272-1.677 1.741a.3.3 0 0 1-.44-.008l-1.614-1.8-2.1 1.198a.3.3 0 0 1-.42-.131l-1.042-2.182-2.352.558a.3.3 0 0 1-.366-.244l-.385-2.387-2.414-.128a.3.3 0 0 1-.282-.337l.303-2.399-2.28-.803a.3.3 0 0 1-.176-.402l.966-2.217-1.961-1.412a.3.3 0 0 1-.055-.436l1.551-1.854-1.484-1.909a.3.3 0 0 1 .07-.434l2.011-1.342-.886-2.249a.3.3 0 0 1 .19-.396l2.307-.721-.217-2.408a.3.3 0 0 1 .294-.327l2.417-.042.47-2.37a.3.3 0 0 1 .374-.232l2.33.641 1.12-2.143a.3.3 0 0 1 .424-.116l2.056 1.272 1.678-1.741a.3.3 0 0 1 .216-.092z" style="fill:#7b0000;stroke:none"/>
                </g>
                <g data-name="그룹 1314">
                    <path data-name="패스 637" d="m10.587 25.152-.458.389a.767.767 0 0 0-.691-.455c-.506 0-.808.192-.808.759v.792c0 .213.088.775.662.775a.973.973 0 0 0 .827-.447l.487.37a1.5 1.5 0 0 1-1.295.7 1.3 1.3 0 0 1-1.383-1.318c0-.577.02-.47.02-1.031a1.247 1.247 0 0 1 1.178-1.195 1.438 1.438 0 0 1 1.461.661z" transform="translate(364.602 950.513)" style="fill:#fff;fill-rule:evenodd"/>
                    <path data-name="패스 638" d="M19.07 24.6h.691s-.01 1.566-.01 1.957.153.925.681.925.74-.243.74-.906v-1.955h.691v3.447h-.593v-.313a1.678 1.678 0 0 1-1.012.351 1.231 1.231 0 0 1-1.188-1.246c0-.72-.01-2.26 0-2.26z" transform="translate(359.829 950.462)" style="fill:#fff;fill-rule:evenodd"/>
                    <path data-name="패스 639" d="M39.6 28.106h-.691s.01-1.566.01-1.957-.153-.925-.682-.925-.74.365-.74.991v1.871h-.691V24.64h.594v.312s.189-.375.939-.351a1.216 1.216 0 0 1 1.261 1.246c0 .721.009 2.259 0 2.259z" transform="translate(352.225 950.462)" style="fill:#fff;fill-rule:evenodd"/>
                    <path data-name="패스 640" d="M14.372 24.483h.356a1.2 1.2 0 0 1 1.195 1.2v1.136a1.2 1.2 0 0 1-1.195 1.2h-.356a1.2 1.2 0 0 1-1.195-1.2v-1.137a1.2 1.2 0 0 1 1.195-1.2zm.049.6a.682.682 0 0 0-.6.737v.853a.681.681 0 0 0 .6.736h.279a.681.681 0 0 0 .6-.736v-.853a.682.682 0 0 0-.6-.737z" transform="translate(362.353 950.513)" style="fill:#fff;fill-rule:evenodd"/>
                    <path data-name="패스 641" d="M25.139 24.6v4.829h.75v-1.61s.155.243.837.243a1.258 1.258 0 0 0 1.247-1.188v-1.158a1.2 1.2 0 0 0-1.062-1.168c-.77-.038-1 .165-1.11.37v-.331l-.662.01zm1.291.516h.342a.682.682 0 0 1 .6.737v.847a.681.681 0 0 1-.6.736h-.342a.681.681 0 0 1-.6-.736v-.853a.682.682 0 0 1 .6-.735z" transform="translate(357.225 950.487)" style="fill:#fff;fill-rule:evenodd"/>
                    <path data-name="패스 642" d="m31.138 24.766.282.467a1.266 1.266 0 0 1 .847-.185.658.658 0 0 1 .663.739 1.362 1.362 0 0 0-.789-.194 1.2 1.2 0 0 0-1.158.779c-.107.428-.1 1.431.759 1.6a1.316 1.316 0 0 0 1.256-.3v.322h.584v-2.459c0-1.226-1.7-1.433-2.444-.769zm1.042 1.386h.088a.585.585 0 0 1 .583.583v.117a.585.585 0 0 1-.583.583h-.088a.585.585 0 0 1-.583-.583v-.117a.585.585 0 0 1 .583-.583z" transform="translate(354.741 950.55)" style="fill:#fff;fill-rule:evenodd"/>
                    <path data-name="패스 643" d="M44.858 24.824a.766.766 0 0 1 .88-.213l.01.515a.589.589 0 0 0-.568.11 1.255 1.255 0 0 1 .122.541 1.178 1.178 0 0 1-1.14 1.206c-.4 0-.532.027-.891.535-.056.108.044.065.044.065a2.841 2.841 0 0 1 1.415-.087 1.153 1.153 0 0 1 .947 1.063c.017.567-.853 1.088-.853 1.088l-.3-.5c.286-.287.666-.479.3-.877s-1.256-.181-1.675-.087-.511-.362-.474-.706a1.1 1.1 0 0 1 .5-.683 1.226 1.226 0 0 1-.531-1.018 1.178 1.178 0 0 1 1.14-1.206h.37a1.1 1.1 0 0 1 .7.253zm-.931.3a.652.652 0 0 0-.681.614v.123a.651.651 0 0 0 .681.613h.1a.651.651 0 0 0 .681-.613v-.123a.652.652 0 0 0-.681-.614z" transform="translate(349.719 950.481)" style="fill:#fff;fill-rule:evenodd"/>
                </g>
            </g>
            <path data-name="패스 644" d="M31.719.266a.968.968 0 0 0-.811-.271Q16.549 0 2.188 0A14.073 14.073 0 0 0 .666.025a.89.89 0 0 0-.666.9v30.13a.9.9 0 0 0 .934.92q14.986.009 29.97 0a.948.948 0 0 0 1.08-.924q.016-14.665.009-29.336c-.025-.485.112-1.065-.274-1.449z" transform="translate(368.001 961.011)" style="fill:url(#cfqjfa6phe)"/>
        </g>
    </g>
</svg>
