<svg id="ic_copy_gray_24" xmlns="http://www.w3.org/2000/svg" width="24" height="24" viewBox="0 0 24 24">
  <defs>
    <style>
      .cls-1 {
        fill: none;
      }

      .cls-2 {
        fill: #b8b6c4;
      }
    </style>
  </defs>
  <rect id="영역" class="cls-1" width="24" height="24"/>
  <path id="패스_399" data-name="패스 399" class="cls-2" d="M124.46,938.693h-10a2.858,2.858,0,0,0-2.857,2.858v10a2.857,2.857,0,0,0,2.857,2.857h10a2.857,2.857,0,0,0,2.857-2.857v-10A2.858,2.858,0,0,0,124.46,938.693Zm.714,11.429v1.429a.715.715,0,0,1-.714.714h-10a.716.716,0,0,1-.715-.714v-10a.716.716,0,0,1,.715-.715h10a.715.715,0,0,1,.714.715v8.571Z" transform="translate(-109.602 -932.408)"/>
  <path id="패스_400" data-name="패스 400" class="cls-2" d="M128.745,934.408h-10a2.847,2.847,0,0,0-2.829,2.583.29.29,0,0,0,.282.274h1.562a.4.4,0,0,0,.326-.274h0a.714.714,0,0,1,.659-.441h10a.715.715,0,0,1,.715.714v10a.707.707,0,0,1-.378.618l.009.006a.642.642,0,0,0-.346.461v1.429a.382.382,0,0,0,.309.312,2.848,2.848,0,0,0,2.549-2.826v-10A2.858,2.858,0,0,0,128.745,934.408Z" transform="translate(-109.602 -932.408)"/>
</svg>
