<svg xmlns="http://www.w3.org/2000/svg" width="48" height="48" viewBox="0 0 48 48">
    <path style="fill:none" d="M0 0h48v48H0z"/>
    <path data-name="패스 430" d="M-68.2 205.8a10.9 10.9 0 0 0 6.464-2.1l1.411-1.029 1.028-1.411a11 11 0 0 0 2.067-7.278 10.992 10.992 0 0 0-3.192-6.963A10.928 10.928 0 0 0-68.2 183.8a10.928 10.928 0 0 0-7.778 3.222A10.927 10.927 0 0 0-79.2 194.8a10.929 10.929 0 0 0 3.221 7.778A10.927 10.927 0 0 0-68.2 205.8m17.324 8.824a2.493 2.493 0 0 1-1.768-.732l-6.148-6.148a16 16 0 0 1-20.722-1.631 16 16 0 0 1 0-22.627 16 16 0 0 1 22.628 0 16 16 0 0 1 1.631 20.722l6.147 6.148a2.5 2.5 0 0 1 0 3.536 2.493 2.493 0 0 1-1.769.731z" transform="translate(90.289 -172.711)" style="fill:#3f37c9"/>
</svg>
