<svg xmlns="http://www.w3.org/2000/svg" width="88" height="88" viewBox="0 0 88 88">
    <defs>
        <linearGradient id="br9w94n02a" x1=".766" y1=".129" x2=".243" y2=".861" gradientUnits="objectBoundingBox">
            <stop offset="0" stop-color="#ff99c0"/>
            <stop offset="1" stop-color="#8680ff"/>
        </linearGradient>
    </defs>
    <path data-name="패스 236" d="m-116.279 1501.383-31.429-18.147a12.574 12.574 0 0 0-12.571 0l-31.429 18.147a12.57 12.57 0 0 0-6.286 10.886v26.565a12.574 12.574 0 0 0 6.286 10.888l31.429 18.146a12.568 12.568 0 0 0 12.571 0l31.429-18.146a12.573 12.573 0 0 0 6.286-10.888v-26.565a12.57 12.57 0 0 0-6.286-10.886z" transform="translate(197.993 -1481.552)" style="fill-rule:evenodd;fill:url(#br9w94n02a)"/>
    <path data-name="패스 496" d="M21.384-9.456V-11.5H18v-8.352h-2.472V1.872H18V-9.456zM4.56-5.52v-10.248h7.608v-2.016H2.088v14.328h1.776a55.389 55.389 0 0 0 10.128-.72l-.264-2.04a52.508 52.508 0 0 1-9.168.696zm36.576-14.328h-2.5V1.9h2.5zM29.592-18.24c-3.192 0-5.568 2.976-5.568 7.632 0 4.7 2.376 7.656 5.568 7.656 3.24 0 5.592-2.952 5.592-7.656 0-4.656-2.352-7.632-5.592-7.632zm0 2.232c1.92 0 3.216 2.016 3.216 5.4 0 3.48-1.3 5.448-3.216 5.448S26.4-7.128 26.4-10.608c0-3.384 1.272-5.4 3.192-5.4zm35.952 6.7v-2.04H62.16v-8.472h-2.472v21.7h2.472V-9.312zm-14.4-8.928c-3.24 0-5.568 2.976-5.568 7.656s2.324 7.628 5.568 7.628 5.568-2.952 5.568-7.632-2.328-7.656-5.568-7.656zm0 13.08c-1.92 0-3.192-2.04-3.192-5.424s1.272-5.424 3.192-5.424 3.192 2.04 3.192 5.424-1.272 5.42-3.192 5.42z" transform="translate(11 53.5)" style="fill:#fff"/>
</svg>
