<svg id="thum_twitter_72" xmlns="http://www.w3.org/2000/svg" width="72" height="72.002" viewBox="0 0 72 72.002">
  <defs>
    <style>
      .cls-1 {
        fill: none;
      }

      .cls-2 {
        fill: #5a99ec;
      }

      .cls-3 {
        fill: #fff;
      }
    </style>
  </defs>
  <rect id="영역" class="cls-1" width="72" height="72"/>
  <path id="패스_552" data-name="패스 552" class="cls-2" d="M36,0A36,36,0,1,1,0,36,36,36,0,0,1,36,0Z" transform="translate(0 0.002)"/>
  <path id="패스_551" data-name="패스 551" class="cls-3" d="M276.463,1386.473c17.583,0,27.2-14.567,27.2-27.2,0-.414-.008-.826-.027-1.235a19.467,19.467,0,0,0,4.769-4.95,19.078,19.078,0,0,1-5.49,1.505,9.591,9.591,0,0,0,4.2-5.288,19.151,19.151,0,0,1-6.07,2.32,9.568,9.568,0,0,0-16.29,8.718,27.139,27.139,0,0,1-19.7-9.987,9.567,9.567,0,0,0,2.96,12.761,9.495,9.495,0,0,1-4.33-1.2c0,.039,0,.08,0,.122a9.562,9.562,0,0,0,7.669,9.371,9.559,9.559,0,0,1-4.317.164,9.568,9.568,0,0,0,8.93,6.639,19.173,19.173,0,0,1-11.872,4.092,19.526,19.526,0,0,1-2.281-.132,27.066,27.066,0,0,0,14.654,4.294" transform="translate(-247.736 -1329.738)"/>
</svg>
