<svg id="ic_keyword_color_40" xmlns="http://www.w3.org/2000/svg" xmlns:xlink="http://www.w3.org/1999/xlink" width="40" height="40" viewBox="0 0 40 40">
  <defs>
    <style>
      .cls-1 {
        fill: none;
      }

      .cls-2 {
        fill: url(#linear-gradient);
      }
    </style>
    <linearGradient id="linear-gradient" y1="0.5" x2="1" y2="0.5" gradientUnits="objectBoundingBox">
      <stop offset="0" stop-color="#f5b122"/>
      <stop offset="0.5" stop-color="#f06292"/>
      <stop offset="1" stop-color="#7b1fa2"/>
    </linearGradient>
  </defs>
  <rect id="영역" class="cls-1" width="40" height="40"/>
  <path id="패스_364" data-name="패스 364" class="cls-2" d="M-488.464,869.373a.576.576,0,0,0-.588-.533h-4.355l.882-4.321a.9.9,0,0,0-.176-.769.837.837,0,0,0-.706-.355h-3.885a.887.887,0,0,0-.882.71l-.942,4.675h-6.532l.882-4.321a.9.9,0,0,0-.176-.769.837.837,0,0,0-.706-.355h-3.884a.889.889,0,0,0-.883.71l-.941,4.675h-4.709a.888.888,0,0,0-.882.71l-.825,3.966a.9.9,0,0,0,.177.769.837.837,0,0,0,.706.355h4.355l-1.353,6.688H-518.6a.888.888,0,0,0-.882.71l-.765,3.788a.9.9,0,0,0,.176.769.837.837,0,0,0,.706.355h4.355l-.882,4.321a.9.9,0,0,0,.176.769.837.837,0,0,0,.706.355h3.885a.888.888,0,0,0,.882-.71l.942-4.675h6.532l-.882,4.32a.9.9,0,0,0,.176.77.841.841,0,0,0,.706.355h3.826a.888.888,0,0,0,.882-.71l.942-4.675h4.708a.889.889,0,0,0,.883-.71l.765-3.788a.9.9,0,0,0-.177-.769.837.837,0,0,0-.706-.356H-496l1.354-6.687h4.708a.887.887,0,0,0,.882-.71l.766-3.788A.9.9,0,0,0-488.464,869.373Zm-13.182,11.837h-6.533l1.354-6.688h6.532Z" transform="translate(524.266 -857.837)"/>
</svg>
