<svg xmlns="http://www.w3.org/2000/svg" width="20" height="20" viewBox="0 0 20 20">
    <path style="fill:none" d="M0 0h20v20H0z"/>
    <path data-name="패스 235" d="M-2932.586 1302.406a1.777 1.777 0 0 1-1.691-1.219l-.082-.24a7.525 7.525 0 0 1-.715-.293l-.223.111a1.79 1.79 0 0 1-2.062-.336l-.73-.732a1.786 1.786 0 0 1-.336-2.061l.113-.227a6.657 6.657 0 0 1-.3-.711l-.238-.08a1.779 1.779 0 0 1-1.219-1.693v-1.035a1.78 1.78 0 0 1 1.219-1.7l.238-.08a6.892 6.892 0 0 1 .3-.715l-.113-.223a1.785 1.785 0 0 1 .336-2.061l.73-.732a1.783 1.783 0 0 1 2.063-.336l.227.113a6.67 6.67 0 0 1 .711-.3l.082-.236a1.779 1.779 0 0 1 1.691-1.221h1.035a1.78 1.78 0 0 1 1.7 1.221l.082.238a7 7 0 0 1 .711.295l.227-.111a1.78 1.78 0 0 1 2.059.336l.734.732a1.786 1.786 0 0 1 .336 2.061l-.113.227a8.9 8.9 0 0 1 .3.711l.234.08a1.782 1.782 0 0 1 1.223 1.7v1.035a1.783 1.783 0 0 1-1.223 1.693l-.238.08c-.086.242-.184.48-.293.713l.113.225a1.786 1.786 0 0 1-.336 2.061l-.734.732a1.783 1.783 0 0 1-2.059.336l-.23-.113a7.42 7.42 0 0 1-.707.3l-.082.238a1.781 1.781 0 0 1-1.7 1.219zm-2.148-3.234a5.453 5.453 0 0 0 1.18.484.754.754 0 0 1 .508.486l.191.568a.279.279 0 0 0 .27.2h1.035a.287.287 0 0 0 .273-.2l.188-.564a.749.749 0 0 1 .5-.484 5.54 5.54 0 0 0 1.176-.49.759.759 0 0 1 .7-.02l.543.27a.276.276 0 0 0 .324-.053l.734-.732a.286.286 0 0 0 .055-.328l-.27-.535a.766.766 0 0 1 .016-.7 5.354 5.354 0 0 0 .488-1.178.74.74 0 0 1 .488-.51l.566-.189a.278.278 0 0 0 .191-.27v-1.035a.276.276 0 0 0-.191-.27l-.566-.189a.756.756 0 0 1-.484-.506 5.244 5.244 0 0 0-.492-1.176.762.762 0 0 1-.016-.705l.27-.539a.283.283 0 0 0-.055-.326l-.734-.732a.274.274 0 0 0-.324-.055l-.535.268a.758.758 0 0 1-.7-.018 5.3 5.3 0 0 0-1.18-.486.746.746 0 0 1-.508-.486l-.191-.568a.28.28 0 0 0-.27-.193h-1.035a.277.277 0 0 0-.27.193l-.187.563a.753.753 0 0 1-.5.484 5.388 5.388 0 0 0-1.18.494.742.742 0 0 1-.7.016l-.539-.27a.284.284 0 0 0-.328.055l-.73.732a.279.279 0 0 0-.055.328l.266.533a.754.754 0 0 1-.016.7 5.243 5.243 0 0 0-.484 1.18.762.762 0 0 1-.484.51l-.57.189a.286.286 0 0 0-.2.271v1.035a.285.285 0 0 0 .2.27l.563.189a.741.741 0 0 1 .484.5 5.5 5.5 0 0 0 .492 1.176.752.752 0 0 1 .02.705l-.27.539a.279.279 0 0 0 .055.328l.73.732a.28.28 0 0 0 .328.053l.535-.268a.74.74 0 0 1 .332-.078.736.736 0 0 1 .363.102zm-1.051-4.766a3.717 3.717 0 0 1 3.719-3.717 3.72 3.72 0 0 1 3.719 3.717 3.72 3.72 0 0 1-3.719 3.717 3.717 3.717 0 0 1-3.719-3.717zm1.555 0a2.165 2.165 0 0 0 2.164 2.164 2.168 2.168 0 0 0 2.164-2.164 2.168 2.168 0 0 0-2.164-2.164 2.165 2.165 0 0 0-2.164 2.164z" transform="translate(2942.065 -1284.406)" style="fill:#fff"/>
</svg>
