<svg xmlns="http://www.w3.org/2000/svg" width="24" height="24" viewBox="0 0 24 24">
    <path style="fill:none" d="M0 0h24v24H0z"/>
    <path data-name="패스 243" d="M-326.542 1450.42a8.009 8.009 0 0 1 8 8 8.009 8.009 0 0 1-8 8 8.009 8.009 0 0 1-8-8 8.009 8.009 0 0 1 8-8m0-2a10 10 0 0 0-10 10 10 10 0 0 0 10 10 10 10 0 0 0 10-10 10 10 0 0 0-10-10z" transform="translate(338.542 -1446.42)" style="fill:#3f37c9"/>
    <path data-name="패스 244" d="M-320.81 1458.149h-1.408l-.242.9h.99a.892.892 0 0 1 .9.9.893.893 0 0 1-.9.9h-1.453l-.594 2.244a.939.939 0 0 1-.858.682h-.022a.9.9 0 0 1-.858-.638l-1.276-4.269-1.277 4.269a.9.9 0 0 1-.858.638h-.022a.912.912 0 0 1-.858-.682l-.594-2.244h-1.452a.893.893 0 0 1-.9-.9.892.892 0 0 1 .9-.9h.968l-.242-.9h-1.408a.892.892 0 0 1-.9-.9.893.893 0 0 1 .9-.9h.924l-.374-1.43a.883.883 0 0 1 .638-1.1.918.918 0 0 1 1.1.638l1.364 5.083 1.211-4.07a.9.9 0 0 1 .858-.638.9.9 0 0 1 .858.638l1.254 4.07 1.342-5.083a.894.894 0 0 1 1.1-.638.894.894 0 0 1 .638 1.1l-.374 1.43h.924a.892.892 0 0 1 .9.9.892.892 0 0 1-.9.9z" transform="translate(338.542 -1446.42)" style="fill:#3f37c9"/>
</svg>
