<svg id="ic_detail_gray_32" xmlns="http://www.w3.org/2000/svg" width="32" height="32" viewBox="0 0 32 32">
  <defs>
    <style>
      .cls-1 {
        fill: none;
      }

      .cls-2 {
        fill: #b8b6c4;
      }
    </style>
  </defs>
  <rect id="영역" class="cls-1" width="32" height="32"/>
  <path id="패스_380" data-name="패스 380" class="cls-2" d="M-328.14,894.878a2.678,2.678,0,0,1-1.984-1.056,31.922,31.922,0,0,1-2.856-3.909c-.139-.214-.262-.405-.369-.565l-.24-.362-.36.243a9.96,9.96,0,0,1-5.588,1.705,10.033,10.033,0,0,1-10.015-10.028,10.033,10.033,0,0,1,10.015-10.028,10.033,10.033,0,0,1,10.016,10.028,10,10,0,0,1-1.583,5.4l-.224.35.341.238A40.128,40.128,0,0,1-326,890.7a2.935,2.935,0,0,1-.129,3.282,3.226,3.226,0,0,1-2.014.9Zm-11.4-21.828a7.86,7.86,0,0,0-7.847,7.856,7.86,7.86,0,0,0,7.847,7.855,7.859,7.859,0,0,0,7.845-7.855A7.859,7.859,0,0,0-339.536,873.05Z" transform="translate(353.552 -866.878)"/>
</svg>
