<svg xmlns="http://www.w3.org/2000/svg" width="24" height="24" viewBox="0 0 24 24">
    <path style="fill:none" d="M0 0h24v24H0z"/>
    <path data-name="패스 338" d="M-379.711 1122.85a.787.787 0 0 1 .787-.787h6.293a.787.787 0 0 1 .786.787.787.787 0 0 1-.786.787h-6.293a.787.787 0 0 1-.787-.787z" transform="translate(387.778 -1108.75)" style="fill:#b8b6c4;fill-rule:evenodd"/>
    <path data-name="패스 339" d="M-379.711 1118.651a.786.786 0 0 1 .787-.787h6.253a.786.786 0 0 1 .787.787.786.786 0 0 1-.787.786h-6.253a.786.786 0 0 1-.787-.786z" transform="translate(387.778 -1108.75)" style="fill:#b8b6c4;fill-rule:evenodd"/>
    <path data-name="패스 337" d="M-380.631 1127.177h9.707a1.573 1.573 0 0 0 1.573-1.573v-9.704a1.573 1.573 0 0 0-1.573-1.573h-9.707a1.573 1.573 0 0 0-1.574 1.573v9.707a1.573 1.573 0 0 0 1.574 1.573zm9.707 1.573a3.147 3.147 0 0 0 3.146-3.146v-9.704a3.147 3.147 0 0 0-3.146-3.147h-9.707a3.147 3.147 0 0 0-3.147 3.147v9.707a3.147 3.147 0 0 0 3.147 3.146z" transform="translate(387.778 -1108.75)" style="fill:#b8b6c4;fill-rule:evenodd"/>
</svg>
