<svg xmlns="http://www.w3.org/2000/svg" width="32" height="32" viewBox="0 0 32 32">
    <path style="fill:none" d="M0 0h32v32H0z"/>
    <path data-name="패스 358" d="M-466.914 961.811v7.339a.655.655 0 0 1-.335.592.506.506 0 0 1-.241.062.534.534 0 0 1-.372-.158l-2.964-2-2.963 2a.539.539 0 0 1-.372.158.5.5 0 0 1-.241-.062.653.653 0 0 1-.334-.592v-7.339a.848.848 0 0 1 .789-.9h6.243a.848.848 0 0 1 .79.9z" transform="translate(486.825 -949.359)" style="fill:#fff"/>
    <path data-name="패스 359" d="M-463.861 961.871h-.242a9.488 9.488 0 0 0-8.565-8.5h.055v-.25a.958.958 0 0 0-.958-.958.958.958 0 0 0-.959.958v.25h.011a9.491 9.491 0 0 0-8.511 8.5h-.247a.959.959 0 0 0-.959.958.958.958 0 0 0 .959.958h.247v-.046a9.49 9.49 0 0 0 8.53 8.559h-.026v.243a.958.958 0 0 0 .959.958.958.958 0 0 0 .958-.958v-.243h-.075a9.623 9.623 0 0 0 8.58-8.514h.248a.958.958 0 0 0 .958-.958.958.958 0 0 0-.963-.957zm-8.751 8.868v-.249a.958.958 0 0 0-.958-.958.958.958 0 0 0-.959.958v.248a8.007 8.007 0 0 1-7.005-6.945h.248a.958.958 0 0 0 .957-.958.958.958 0 0 0-.957-.958h-.249a8.04 8.04 0 0 1 7.006-7.007v.248a.959.959 0 0 0 .959.958.958.958 0 0 0 .958-.958v-.249a8.008 8.008 0 0 1 6.954 7.007h-.25a.958.958 0 0 0-.958.958.958.958 0 0 0 .958.958h.249a7.974 7.974 0 0 1-6.953 6.947z" transform="translate(489.569 -946.834)" style="fill:#fff"/>
</svg>
