<svg id="ic_delete_red_40" xmlns="http://www.w3.org/2000/svg" width="40" height="40" viewBox="0 0 40 40">
  <defs>
    <style>
      .cls-1 {
        fill: none;
      }

      .cls-2 {
        fill: #de3c33;
      }
    </style>
  </defs>
  <rect id="영역" class="cls-1" width="40" height="40"/>
  <path id="패스_348" data-name="패스 348" class="cls-2" d="M-332.519,1024.82a12,12,0,0,0-8.485,3.514,12,12,0,0,0-3.515,8.485,12,12,0,0,0,3.515,8.486,12,12,0,0,0,8.485,3.514,12,12,0,0,0,8.486-3.514,12,12,0,0,0,3.514-8.486,12.005,12.005,0,0,0-1.607-6,12,12,0,0,0-4.392-4.392,12.007,12.007,0,0,0-6-1.608Zm0,21.6a9.6,9.6,0,0,1-6.788-2.812,9.6,9.6,0,0,1-2.812-6.788,9.6,9.6,0,0,1,2.812-6.788,9.6,9.6,0,0,1,6.788-2.812,9.6,9.6,0,0,1,6.789,2.812,9.6,9.6,0,0,1,2.812,6.788,9.6,9.6,0,0,1-1.287,4.8,9.589,9.589,0,0,1-3.514,3.513,9.594,9.594,0,0,1-4.8,1.287Z" transform="translate(352.52 -1016.82)"/>
  <path id="패스_349" data-name="패스 349" class="cls-2" d="M-329.771,1032.367l-2.748,2.76-2.748-2.76a1.2,1.2,0,0,0-1.164-.311,1.206,1.206,0,0,0-.852.851,1.207,1.207,0,0,0,.312,1.164l2.76,2.748-2.76,2.748a1.208,1.208,0,0,0-.312,1.164,1.206,1.206,0,0,0,.852.852,1.2,1.2,0,0,0,1.164-.312l2.748-2.76,2.748,2.76a1.2,1.2,0,0,0,1.164.312,1.2,1.2,0,0,0,.852-.852,1.2,1.2,0,0,0-.312-1.164l-2.76-2.748,2.76-2.748a1.2,1.2,0,0,0,.312-1.164,1.2,1.2,0,0,0-.852-.851,1.2,1.2,0,0,0-1.164.311Z" transform="translate(352.52 -1016.82)"/>
</svg>
