<svg id="ic_ic_delete_red_24" xmlns="http://www.w3.org/2000/svg" width="24" height="24" viewBox="0 0 24 24">
  <defs>
    <style>
      .cls-1 {
        fill: none;
      }

      .cls-2 {
        fill: #de3c33;
      }
    </style>
  </defs>
  <rect id="영역" class="cls-1" width="24" height="24"/>
  <path id="패스_348" data-name="패스 348" class="cls-2" d="M-336.519,1024.82a8,8,0,0,0-5.657,2.343,8,8,0,0,0-2.343,5.657,8,8,0,0,0,2.343,5.657,8,8,0,0,0,5.657,2.343,8,8,0,0,0,5.657-2.343,8,8,0,0,0,2.343-5.657,8,8,0,0,0-1.071-4,8,8,0,0,0-2.928-2.928,8,8,0,0,0-4-1.072Zm0,14.4a6.4,6.4,0,0,1-4.525-1.875,6.4,6.4,0,0,1-1.875-4.525,6.4,6.4,0,0,1,1.875-4.525,6.4,6.4,0,0,1,4.525-1.875,6.4,6.4,0,0,1,4.526,1.875,6.4,6.4,0,0,1,1.875,4.525,6.4,6.4,0,0,1-.858,3.2,6.393,6.393,0,0,1-2.343,2.342,6.4,6.4,0,0,1-3.2.858Z" transform="translate(348.52 -1020.818)"/>
  <path id="패스_349" data-name="패스 349" class="cls-2" d="M-332.289,1032.25l-1.832,1.84-1.832-1.84a.8.8,0,0,0-.776-.207.8.8,0,0,0-.568.567.8.8,0,0,0,.208.776l1.84,1.832-1.84,1.832a.805.805,0,0,0-.208.776.8.8,0,0,0,.568.568.8.8,0,0,0,.776-.208l1.832-1.84,1.832,1.84a.8.8,0,0,0,.776.208.8.8,0,0,0,.568-.568.8.8,0,0,0-.208-.776l-1.84-1.832,1.84-1.832a.8.8,0,0,0,.208-.776.8.8,0,0,0-.568-.567.8.8,0,0,0-.776.207Z" transform="translate(346.121 -1023.217)"/>
</svg>
