<svg id="ic_point_purple_40" xmlns="http://www.w3.org/2000/svg" width="40" height="40" viewBox="0 0 40 40">
  <defs>
    <style>
      .cls-1 {
        fill: none;
      }

      .cls-2 {
        fill: #3f37c9;
      }
    </style>
  </defs>
  <rect id="영역" class="cls-1" width="40" height="40"/>
  <path id="패스_416" data-name="패스 416" class="cls-2" d="M-276.325,698.743a10.1,10.1,0,0,0-1.555.132c-.087.014-.174.025-.261.04a9.91,9.91,0,0,0-1.42.371c-.078.026-.153.056-.23.084a10.052,10.052,0,0,0-2.677,1.481c-.029.022-.058.041-.085.063a10.089,10.089,0,0,0-1.141,1.055l-.053.059a10.057,10.057,0,0,0-2.51,5.116l-.006.036c-.048.288-.086.579-.109.874h0c-.02.261-.039.523-.039.789a10.1,10.1,0,0,0,10.086,10.1,10.105,10.105,0,0,0,10.087-10.1A10.1,10.1,0,0,0-276.325,698.743Zm6.281,11.664h-7.511a.292.292,0,0,1-.292-.293v-7.988a.292.292,0,0,1,.292-.293h2.462a.293.293,0,0,1,.292.293v5.192h4.757a.292.292,0,0,1,.292.292v2.5A.293.293,0,0,1-270.044,710.407Z" transform="translate(302.738 -683.943)"/>
  <path id="패스_417" data-name="패스 417" class="cls-2" d="M-275.455,688.943h-18.372a5.421,5.421,0,0,0-5.411,5.417v15.863a5.421,5.421,0,0,0,5.411,5.418h6.664a12.726,12.726,0,0,1-1.949-6.309h-6.736a.292.292,0,0,1-.292-.293v-2.464a.292.292,0,0,1,.292-.292h6.975a12.711,12.711,0,0,1,.768-2.464h-7.743a.292.292,0,0,1-.292-.293v-2.464a.292.292,0,0,1,.292-.292h9.588a12.84,12.84,0,0,1,2.666-2.464h-12.252a.293.293,0,0,1-.293-.292V695.55a.293.293,0,0,1,.293-.293h22.412a.292.292,0,0,1,.292.293v.264h0v.64a12.746,12.746,0,0,1,3.1,1.236v-3.33A5.42,5.42,0,0,0-275.455,688.943Z" transform="translate(302.738 -683.943)"/>
</svg>
