<svg xmlns="http://www.w3.org/2000/svg" width="32" height="32" viewBox="0 0 32 32">
    <path style="fill:none" d="M0 0h32v32H0z"/>
    <path data-name="패스 214" d="M-243.046 1183.354h-15.762a2.119 2.119 0 0 0-2.119 2.113v1.95a2.106 2.106 0 0 0 1.505 2.031v11.505a2.415 2.415 0 0 0 2.432 2.4h7.289l-2.452.006h7.257a2.385 2.385 0 0 0 2.4-2.4v-11.5a2.08 2.08 0 0 0 1.567-2.037v-1.956a2.119 2.119 0 0 0-2.117-2.112zm-6.687 16.226h-6.239a.75.75 0 0 1-.75-.75.75.75 0 0 1 .75-.75h6.239a.75.75 0 0 1 .75.75.749.749 0 0 1-.75.75zm3.851-3h-10.09a.75.75 0 0 1-.75-.75.75.75 0 0 1 .75-.75h10.09a.75.75 0 0 1 .75.75.75.75 0 0 1-.75.75zm0-3h-10.09a.75.75 0 0 1-.75-.75.75.75 0 0 1 .75-.75h10.09a.75.75 0 0 1 .75.75.75.75 0 0 1-.75.75z" transform="translate(266.927 -1177.354)" style="fill:#3f37c9"/>
</svg>
