<svg id="img_subscription_empty" xmlns="http://www.w3.org/2000/svg" width="101.999" height="80" viewBox="0 0 101.999 80">
  <defs>
    <style>
      .cls-1 {
        fill: #e4e7ef;
      }

      .cls-2, .cls-9 {
        fill: #3a7ec1;
      }

      .cls-10, .cls-2, .cls-9 {
        opacity: 0.2;
      }

      .cls-2 {
        mix-blend-mode: multiply;
        isolation: isolate;
      }

      .cls-3 {
        fill: #f7f8ff;
      }

      .cls-4 {
        fill: #e4ecf9;
      }

      .cls-5 {
        fill: #80a4ff;
      }

      .cls-6 {
        fill: #58ddad;
      }

      .cls-7, .cls-8 {
        fill: #ffde80;
      }

      .cls-11, .cls-8, .cls-9 {
        stroke: rgba(0,0,0,0);
      }

      .cls-10 {
        fill: #4684af;
      }

      .cls-11 {
        fill: #3e4259;
      }

      .cls-12 {
        fill: #80eaff;
      }

      .cls-13 {
        fill: #ffe180;
      }
    </style>
  </defs>
  <path id="패스_315" data-name="패스 315" class="cls-1" d="M928.091,5392a42.332,42.332,0,0,1,29.179,5.459c12.31,7.727,21.544,21.663,21.61,36.5.066,15.074-8.544,27.708-22.326,33.528-7.668,3.239-16.576,4.815-24.749,3.394-13.939-2.425-23.139-9.815-31.165-21.206-7.709-10.94-7.217-29-.174-40.172C906.6,5399.782,916.989,5393.821,928.091,5392Z" transform="translate(-880.975 -5391.404)"/>
  <path id="패스_316" data-name="패스 316" class="cls-2" d="M958.392,5405.649a2.005,2.005,0,0,0-2.307-1.653l-43.061,7.2a2.01,2.01,0,0,0-1.648,2.313l9.081,54.641a2.005,2.005,0,0,0,2.307,1.653l43.061-7.2a2.01,2.01,0,0,0,1.649-2.313Z" transform="translate(-884.965 -5394.486)"/>
  <path id="패스_317" data-name="패스 317" class="cls-3" d="M967.589,5459.7l-43.061,7.2a2,2,0,0,1-2.307-1.653L913.14,5410.6a2.01,2.01,0,0,1,1.649-2.314l43.06-7.2a2.006,2.006,0,0,1,2.307,1.653l9.082,54.641A2.01,2.01,0,0,1,967.589,5459.7Z" transform="translate(-885.396 -5393.773)"/>
  <path id="패스_318" data-name="패스 318" class="cls-4" d="M954.108,5418.971a12.053,12.053,0,1,0-5.2,17.907l.017-.007a12.081,12.081,0,0,0,5.179-17.9Zm-6.3,15.277-.012.005a9.351,9.351,0,1,1,.012-.005Z" transform="translate(-890.051 -5396.878)"/>
  <path id="패스_319" data-name="패스 319" class="cls-5" d="M955.982,5418.971l-2.348,1.612a9.165,9.165,0,0,0-12.34-2.672l-1.475-2.44a12,12,0,0,1,16.162,3.5Z" transform="translate(-891.926 -5396.878)"/>
  <path id="패스_320" data-name="패스 320" class="cls-6" d="M961.108,5425.509a12.092,12.092,0,0,1-7.12,13.068l-.017.007-1.118-2.624.012-.005a9.223,9.223,0,0,0,3.955-13.666l2.348-1.612A12.028,12.028,0,0,1,961.108,5425.509Z" transform="translate(-895.111 -5398.584)"/>
  <path id="패스_321" data-name="패스 321" class="cls-7" d="M951.927,5443.542l-.017.007a12.02,12.02,0,0,1-7.491.648l.654-2.777a9.175,9.175,0,0,0,5.719-.495l.012-.005Z" transform="translate(-893.05 -5403.549)"/>
  <path id="패스_322" data-name="패스 322" class="cls-4" d="M951.2,5431.346a5.955,5.955,0,0,1-.545.663,6.363,6.363,0,0,1-8.327.837.13.13,0,0,1-.021-.014,6.392,6.392,0,0,1,3.8-11.594,6.317,6.317,0,0,1,3.607,1.19A6.4,6.4,0,0,1,951.2,5431.346Z" transform="translate(-891.881 -5398.721)"/>
  <path id="패스_323" data-name="패스 323" class="cls-6" d="M946.146,5421.237l-.1,6.391-6.268-1.152a6.371,6.371,0,0,1,6.367-5.238Z" transform="translate(-891.915 -5398.721)"/>
  <path id="패스_324" data-name="패스 324" class="cls-5" d="M953.263,5431.346a5.916,5.916,0,0,1-.545.663c-1.4-1.325-4.643-4.381-4.643-4.381l.1-6.39a6.314,6.314,0,0,1,3.607,1.19A6.4,6.4,0,0,1,953.263,5431.346Z" transform="translate(-893.943 -5398.722)"/>
  <path id="패스_522" data-name="패스 522" class="cls-8" d="M7758,20268.3l5.609-.937,2.1,12.6-5.614.941Zm16.563.865,5.609-.937,1.507,9.07-5.609.938Zm15.717-4.225,5.609-.937,1.766,10.623-5.609.941Z" transform="translate(-7720.085 -20218.16)"/>
  <path id="패스_326" data-name="패스 326" class="cls-4" d="M945.163,5469.088l-5.61.938-1.247-7.5,5.61-.938Z" transform="translate(-891.555 -5408.618)"/>
  <path id="패스_328" data-name="패스 328" class="cls-4" d="M966.45,5466.417l-5.61.938-.8-4.839,5.61-.937Z" transform="translate(-896.867 -5408.616)"/>
  <path id="패스_519" data-name="패스 519" class="cls-9" d="M7721.51,20265.438l-10.427-11.51.717-.652-1.93-2.125a11.6,11.6,0,1,1,2.369-2.156l1.927,2.123.712-.648,10.432,11.51a1.373,1.373,0,0,1-.092,1.938l-1.77,1.613a1.366,1.366,0,0,1-1.937-.092Zm-24.515-30.883a9.448,9.448,0,1,0,6.36-2.465A9.512,9.512,0,0,0,7696.995,20234.555Z" transform="translate(-7625.615 -20195.988)"/>
  <path id="패스_521" data-name="패스 521" class="cls-10" d="M10.182,0A10.211,10.211,0,1,1,0,10.211,10.2,10.2,0,0,1,10.182,0Z" transform="translate(67.984 33.16)"/>
  <path id="패스_520" data-name="패스 520" class="cls-11" d="M7721.089,20267.662l-10.428-11.512.717-.654-1.925-2.125a11.6,11.6,0,1,1,2.365-2.156l1.926,2.125.711-.648,10.433,11.506a1.38,1.38,0,0,1-.091,1.943l-1.77,1.613a1.376,1.376,0,0,1-1.938-.092Zm-24.513-30.887a9.443,9.443,0,1,0,6.357-2.465A9.407,9.407,0,0,0,7696.576,20236.775Z" transform="translate(-7624.771 -20200.43)"/>
  <path id="패스_518" data-name="패스 518" class="cls-12" d="M7.247,0A7.268,7.268,0,1,1,0,7.268,7.258,7.258,0,0,1,7.247,0Z" transform="translate(0 52.259)"/>
  <path id="패스_517" data-name="패스 517" class="cls-13" d="M3.97,0A3.981,3.981,0,1,1,0,3.981,3.976,3.976,0,0,1,3.97,0Z" transform="translate(94.059 9.844)"/>
</svg>
