<svg id="img_main_banner_source" xmlns="http://www.w3.org/2000/svg" width="175" height="172.427" viewBox="0 0 175 172.427">
  <defs>
    <style>
      .cls-1 {
        fill: none;
      }

      .cls-2 {
        fill: #081b31;
        stroke: rgba(0,0,0,0);
      }

      .cls-3 {
        fill: #f7f8ff;
      }

      .cls-4 {
        fill: #fff;
      }
    </style>
  </defs>
  <rect id="영역" class="cls-1" width="175" height="172" transform="translate(0 0.001)"/>
  <path id="패스_510" data-name="패스 510" class="cls-2" d="M7159.1,20640.373l-42.1-42.094c.005-.244.011-.482.021-.725l29.6,29.6,18.6,18.6c-.238.01-.482.016-.725.02Zm-1.446,4.984-11.4-11.41-28.835-28.834c-.042-.279-.078-.564-.108-.85l41.2,41.2C7158.223,20645.436,7157.938,20645.395,7157.652,20645.357Zm1.446-11.41-41.648-41.643c.031-.223.052-.439.088-.658l3.383,3.379,25.695,25.705,24.508,24.5c-.217.031-.44.059-.658.084Zm0-6.424-32.125-32.125-5.031-5.025-3.425-3.432c.052-.191.108-.383.161-.58l3.637,3.639,24.3,24.3,29.793,29.787c-.2.057-.389.113-.58.166Zm-9.762,15.943-30.031-30.037c-.119-.357-.233-.721-.342-1.082l27.653,27.652,3.808,3.809Q7149.881,20643.645,7149.336,20643.467Zm9.762-22.369-38.55-38.549-.466-.461c.067-.182.14-.357.212-.535l13.477,13.473,12.85,12.85,34.6,34.6c-.176.072-.358.141-.534.207Zm0-6.424-19.275-19.275-6.73-6.73-6.119-6.119-4.912-4.912c.083-.16.166-.326.254-.492l11.15,11.15,13.15,13.16,39.005,39c-.161.09-.326.172-.492.254Zm0-6.426-25.7-25.7-9-9c.1-.15.2-.3.3-.455l21.922,21.928,43.052,43.053c-.15.1-.3.191-.451.289Zm-23,28.4-9.979-9.979c-.57-.777-1.114-1.576-1.638-2.385l14,14C7137.668,20637.762,7136.875,20637.223,7136.1,20636.652Zm23-34.828-6.425-6.426-8.793-8.787-4.057-4.062-12.746-12.746c.109-.135.218-.281.326-.416l16.85,16.852,2.363,2.367,46.768,46.762c-.14.109-.28.219-.42.326Zm0-6.426-12.85-12.85-16.182-16.176c.124-.131.243-.26.363-.385l24.756,24.758,41.591,41.59c-.125.125-.254.244-.378.363Zm6.425,0-1.332-1.326-11.518-11.523-4.016-4.016-15.291-15.285c.135-.115.264-.234.4-.348l12.85,12.855,2.415,2.4,10.44,10.445,5.093,5.094,35.3,35.3c-.114.135-.228.27-.342.4Zm6.425,0-25.7-25.7-9.265-9.264.435-.311,22.052,22.051,43.171,43.172c-.1.146-.207.291-.311.436Zm6.425.006-2.383-2.385-10.467-10.471-15.259-15.26-9.342-9.336c.161-.09.316-.182.477-.27l5.218,5.223,4.016,4.016,8.839,8.834,16.892,16.9,28.726,28.721c-.088.16-.181.316-.27.477Zm6.425-.006-7.01-7.006-5.839-5.844-25.7-25.7-1.037-1.037c.171-.072.342-.15.518-.223l13.741,13.74,18.689,18.689,29.021,29.021c-.073.176-.15.342-.228.518Zm6.425,0-3.6-3.6-9.249-9.254-26.5-26.5-1.984-1.979c.191-.062.389-.109.58-.172l1.777,1.783,7.228,7.223L7188,20591.43l20.875,20.875c-.057.191-.108.389-.166.576Zm-6.425-12.85-29.767-29.768c.207-.037.42-.072.632-.109l3.808,3.809,38.544,38.551,12.083,12.082c-.036.207-.072.42-.114.627Zm19.275,12.855-5.031-5.031-7.818-7.824-30.5-30.5c.228-.016.456-.037.689-.053l38,38,11.358,11.357c-.016.232-.042.461-.057.689Zm-6.425-12.855-30.5-30.492.809.061,42.695,42.7c.021.27.042.539.062.8Zm6.425,0-29.353-29.354c.321.078.647.146.969.229l33.659,33.658c.083.322.15.648.223.969Zm-19.306-25.727c.513.254,1.026.514,1.528.783l18.871,18.871c.27.5.528,1.01.782,1.527Z" transform="translate(-7036.414 -20473.85)"/>
  <path id="패스_509" data-name="패스 509" class="cls-3" d="M66.724,0A66.724,66.724,0,1,1,0,66.724,66.724,66.724,0,0,1,66.724,0Z" transform="translate(23.499 11.428)"/>
  <path id="패스_216" data-name="패스 216" class="cls-4" d="M144.215,1313.145a11.427,11.427,0,1,1-11.426-11.429A11.442,11.442,0,0,1,144.215,1313.145Zm-17.367,0a5.941,5.941,0,1,0,5.941-5.942A5.947,5.947,0,0,0,126.848,1313.145Z" transform="translate(-120.716 -1301.716)"/>
</svg>
