<svg xmlns="http://www.w3.org/2000/svg" width="80" height="32" viewBox="0 0 80 32">
    <path data-name="패스 223" d="M-302.431 1265.152h-52.8c-7.48 0-13.6 4.892-13.6 13.316v1.208c0 8.424 6.119 13.316 13.6 13.316h1.9c3.867 3.732 4.174 4.16 4.648 4.16s.8-.438 4.753-4.16h41.5c7.48 0 13.6-4.892 13.6-13.316v-1.208c-.001-8.424-6.121-13.316-13.601-13.316z" transform="translate(368.831 -1265.152)" style="fill:#e6458e"/>
    <path data-name="패스 529" d="M6.52.584v-7.168H5.9v2.84h-.972v-2.68h-.616V.232h.616v-3.44H5.9V.584zM3.408-5.752H.68v4.416h2.728zM2.8-1.856H1.3v-3.376h1.5zm5.168-2.36.192.5a3.584 3.584 0 0 0 2.712-1.128 3.573 3.573 0 0 0 2.7 1.128l.2-.5c-1.336-.088-2.424-.536-2.528-1.24h2.208v-.5H11.2v-.68h-.656v.68H8.288v.5H10.5c-.1.704-1.212 1.156-2.532 1.24zM11.2-2.232V-2.9h2.9v-.5H7.632v.5h2.9v.664H8.4v.488h4.232v.608H8.424V.512H13.5v-.5H9.064v-.68h4.216v-1.564zm6.864-1.744c1.576 0 2.52-.432 2.52-1.24s-.944-1.248-2.52-1.248-2.52.44-2.52 1.248.944 1.24 2.52 1.24zm0-1.992c1.192 0 1.848.272 1.848.752s-.656.752-1.848.752-1.848-.272-1.848-.752.656-.752 1.848-.752zm3.248 3.008v-.528h-6.5v.528zM20.7 0h-4.436v-.728h4.216v-1.616H15.6v.5h4.232v.64h-4.208V.512H20.7zm9.456-2.784v-.528h-2.92v-.912h2.184v-.528h-4.228v-1.672h-.656v2.2h2.04v.912h-2.912v.528zM29.5-.032h-1.16v-1.512h1.1v-.528h-5.064v.528h1.1v1.512h-1.16V.5H29.5zm-1.808 0H26.12v-1.512h1.568zm9.08.64v-7.192h-.656v1.608h-1.84a1.617 1.617 0 0 0-1.5-1.056c-1.048 0-1.792.976-1.792 2.5s.744 2.5 1.792 2.5a1.637 1.637 0 0 0 1.544-1.144h1.792V.608zm-3.996-2.216c-.688 0-1.168-.752-1.168-1.92s.48-1.912 1.168-1.912c.672 0 1.168.752 1.168 1.912s-.496 1.92-1.168 1.92zm3.336-2.832v1.728H34.48a3.343 3.343 0 0 0 .08-.816 4.077 4.077 0 0 0-.1-.912zm2.768 1.832h4.928v-.536h-4.28v-2.24h4.208v-.544H38.88zm5.68 2.232V-.92h-6.512v.544zm6.6.976v-7.192h-.66v1.64h-1.412v.536H50.5v1.432h-1.46v.536h1.46V.6zm-4.992-2.216v-1.752h2.472v-2.568H45.5v.528h2.488v1.5H45.52v2.832h.544a20.083 20.083 0 0 0 3.168-.216l-.056-.544a18.246 18.246 0 0 1-3.008.22zm12.8 1.288v-.544H57.36v-1.944a1.6 1.6 0 0 0 .94-1.472c0-1.112-1.08-1.84-2.608-1.84s-2.608.728-2.608 1.84a1.626 1.626 0 0 0 .96 1.48v1.936h-1.6v.544zM55.7-5.616c1.152 0 1.984.528 1.984 1.328S56.848-2.96 55.7-2.96s-1.98-.528-1.98-1.328.824-1.328 1.98-1.328zm1 4.744h-2V-2.56a4.381 4.381 0 0 0 .992.112A4.924 4.924 0 0 0 56.7-2.56zm5.68-4.288.024-.832h-.744l.024.832.1 3.728h.5zM61.672.1h.728v-.748h-.728z" transform="translate(6 22)" style="fill:#fff"/>
    <path data-name="패스 530" d="m6.368-2.64.272-.544C5.368-3.4 3.992-4.4 3.992-5.568v-.552H3.3v.552C3.3-4.4 1.928-3.4.656-3.184l.272.544a3.832 3.832 0 0 0 2.72-1.928 3.881 3.881 0 0 0 2.72 1.928zm.568 2.312v-.536H5.168v-1.624h-.656v1.624H2.84v-1.624h-.648v1.624H.416v.536zm5.92-1.856h.656v-4.392h-.656zm-.672-.784-.04-.48c-.344.056-.7.08-1.056.112v-2.1h.7v-.524H7.944v.528h.7v2.184c-.16.008-.312.008-.464.008h-.428l.064.544a26.531 26.531 0 0 0 4.368-.272zm-2.9-.288v-2.176h1.168V-3.3c-.388.02-.788.036-1.164.044zm1.856 1.224c-1.488 0-2.408.48-2.408 1.312s.92 1.3 2.408 1.3 2.412-.48 2.412-1.3-.92-1.312-2.408-1.312zm0 2.1c-1.1 0-1.752-.28-1.752-.792s.656-.8 1.752-.8 1.752.288 1.752.8-.652.796-1.748.796zm11.16-3.62.248-.512C21.3-4.256 20.04-5.1 20.04-6.048V-6.4h-.672v.352c0 .96-1.256 1.808-2.528 2l.256.512A3.611 3.611 0 0 0 19.7-5.168a3.718 3.718 0 0 0 2.6 1.616zm.652 1.152v-.528H16.44v.528h2.976v1.448h.664V-2.4zM22.24-.1h-4.312v-1.532h-.656V.432h4.968zm7.3.7v-7.176h-.656V.6zm-3.532-3.9c1.064 0 1.824-.6 1.824-1.472s-.76-1.48-1.824-1.48-1.832.608-1.832 1.48.768 1.472 1.832 1.472zm0-2.408c.7 0 1.192.36 1.192.936s-.488.936-1.192.936-1.2-.384-1.2-.936.492-.928 1.2-.928zm2.416 3.248-.056-.488a34.1 34.1 0 0 1-4.728.256l.088.552c.608 0 1.272-.008 1.984-.04V.368h.656v-2.584a17.579 17.579 0 0 0 2.056-.24zm3.248-3.456h4.208v.584h-4.192v1.536h4.968v-.472h-4.32v-.612h4.192v-1.5h-4.856zm5.688 3.16v-.5h-6.5v.5zm-.584 2.78H32.3V-.64h4.256v-1.528h-4.92v.468H35.9v.6h-4.252V.5h5.128zm3.768-3.512h4.784v-2.864h-.648v.912h-3.488v-.912h-.648zm.648-1.448h3.488v.928h-3.488zm5 2.672v-.528h-6.52v.528h2.984v1.392h.656v-1.392zM45.464-.1h-4.312v-1.42H40.5V.432h4.96zM52.8-2.344v-4.232h-.664v1.5h-1.56v.536h1.56v2.2zm-2.072-.3.352-.52a2.517 2.517 0 0 1-1.752-2.276v-.784h-.656v.76A2.6 2.6 0 0 1 46.9-3.016l.344.528A3.105 3.105 0 0 0 49.016-4.3a2.96 2.96 0 0 0 1.712 1.652zm2.072.7h-4.808v.528h4.144V.6h.664zM60.168.584v-7.176h-.632v3.032h-.92v-2.864H58V.24h.616v-3.264h.92V.584zM57.64-5.36h-1.456v-1.016h-.648v1.016H54.08v.536h3.56zm-1.776 1.016a1.527 1.527 0 0 0-1.536 1.632 1.525 1.525 0 0 0 1.536 1.64 1.525 1.525 0 0 0 1.536-1.64 1.527 1.527 0 0 0-1.536-1.632zm0 2.728a.994.994 0 0 1-.952-1.1.967.967 0 0 1 .952-1.08.989.989 0 0 1 .952 1.08.994.994 0 0 1-.952 1.1zM67.2.6v-7.184h-.656v2.432H64.88v.536h1.664V.6zm-3.4-5.28v-1.288h-.656v1.288a3.79 3.79 0 0 1-1.856 3.232l.4.52a3.988 3.988 0 0 0 1.784-2.4 3.928 3.928 0 0 0 1.8 2.272l.384-.52A3.577 3.577 0 0 1 63.8-4.68z" transform="translate(6 12)" style="fill:#fff"/>
</svg>
