<svg id="thum_telegram_72" xmlns="http://www.w3.org/2000/svg" xmlns:xlink="http://www.w3.org/1999/xlink" width="72" height="72" viewBox="0 0 72 72">
  <defs>
    <style>
      .cls-1 {
        fill: none;
      }

      .cls-2 {
        fill: url(#linear-gradient);
      }

      .cls-3 {
        fill: #c8daea;
      }

      .cls-4 {
        fill: #a9c6d8;
      }

      .cls-5 {
        fill: #fff;
      }
    </style>
    <linearGradient id="linear-gradient" x1="0.5" y1="1" x2="0.5" gradientUnits="objectBoundingBox">
      <stop offset="0" stop-color="#1d93d2"/>
      <stop offset="1" stop-color="#38b0e3"/>
    </linearGradient>
  </defs>
  <rect id="영역" class="cls-1" width="72" height="72"/>
  <path id="패스_558" data-name="패스 558" class="cls-2" d="M36,0A36,36,0,1,1,0,36,36,36,0,0,1,36,0Z"/>
  <path id="패스_555" data-name="패스 555" class="cls-3" d="M447.6,1369.264l4.271,11.822s.534,1.106,1.106,1.106,9.077-8.847,9.077-8.847l9.457-18.267-23.758,11.136Z" transform="translate(-423.227 -1330.633)"/>
  <path id="패스_556" data-name="패스 556" class="cls-4" d="M453.258,1372.3l-.819,8.714s-.344,2.67,2.326,0,5.224-4.729,5.224-4.729Z" transform="translate(-423.227 -1330.633)"/>
  <path id="패스_557" data-name="패스 557" class="cls-5" d="M447.673,1369.686l-8.785-2.862s-1.049-.426-.712-1.392c.069-.2.21-.369.629-.661,1.947-1.357,36.032-13.608,36.032-13.608a2.912,2.912,0,0,1,1.531-.109.832.832,0,0,1,.566.617,2.8,2.8,0,0,1,.076.775c0,.226-.031.435-.051.763-.208,3.349-6.419,28.348-6.419,28.348s-.371,1.463-1.7,1.512a2.436,2.436,0,0,1-1.78-.686c-2.613-2.248-11.646-8.318-13.641-9.653a.378.378,0,0,1-.164-.269c-.028-.14.125-.315.125-.315s15.728-13.98,16.146-15.447c.033-.114-.089-.17-.254-.121-1.045.384-19.153,11.819-21.152,13.082A.957.957,0,0,1,447.673,1369.686Z" transform="translate(-423.227 -1330.633)"/>
</svg>
