<svg id="thum_whatsapp_72" xmlns="http://www.w3.org/2000/svg" xmlns:xlink="http://www.w3.org/1999/xlink" width="72" height="72" viewBox="0 0 72 72">
  <defs>
    <style>
      .cls-1 {
        fill: none;
      }

      .cls-2 {
        fill: url(#linear-gradient);
      }

      .cls-3 {
        fill: #fff;
      }
    </style>
    <linearGradient id="linear-gradient" x1="0.5" y1="0.927" x2="0.5" y2="-0.073" gradientUnits="objectBoundingBox">
      <stop offset="0" stop-color="#78cd51"/>
      <stop offset="1" stop-color="#a0fc84"/>
    </linearGradient>
  </defs>
  <rect id="영역" class="cls-1" width="72" height="72"/>
  <path id="패스_561" data-name="패스 561" class="cls-2" d="M36,0A36,36,0,1,1,0,36,36,36,0,0,1,36,0Z" transform="translate(0)"/>
  <path id="WA_Logo" data-name="WA Logo" class="cls-3" d="M528.266,1377.7a22.84,22.84,0,1,1,19.79,11.434h-.01a22.828,22.828,0,0,1-10.913-2.779l-12.107,3.175Zm10.121,4.934a18.952,18.952,0,0,0,9.661,2.645h.008a18.977,18.977,0,1,0-16.08-8.892l.452.717-1.919,7,7.186-1.884Zm13.395-5.7a32.9,32.9,0,0,1-3.253-1.2c-5.724-2.471-9.463-8.233-9.748-8.613s-2.33-3.094-2.33-5.9a6.4,6.4,0,0,1,2-4.759,2.1,2.1,0,0,1,1.522-.714c.38,0,.76,0,1.094.02.04,0,.084,0,.127,0,.333,0,.747,0,1.157.978.475,1.142,1.616,3.95,1.759,4.236a1.049,1.049,0,0,1,.049,1,3.935,3.935,0,0,1-.572.951c-.284.333-.6.744-.856,1-.286.285-.583.593-.25,1.165a17.193,17.193,0,0,0,3.174,3.952,15.593,15.593,0,0,0,4.589,2.832c.571.284.9.238,1.236-.143s1.427-1.666,1.807-2.237.761-.476,1.284-.285,3.329,1.571,3.9,1.857.951.427,1.094.666a4.755,4.755,0,0,1-.333,2.712c-.474,1.333-2.755,2.549-3.852,2.713a9.284,9.284,0,0,1-1.385.11A7.235,7.235,0,0,1,551.782,1376.931Z" transform="translate(-510.893 -1331.025)"/>
</svg>
